<svg width="287" height="229" viewBox="0 0 287 229" fill="none" xmlns="http://www.w3.org/2000/svg">
<path d="M96.5447 115.78C90.4514 115.78 85.4508 114.884 81.5429 113.092C77.635 111.3 74.7288 108.984 72.8317 106.151C70.9271 103.319 69.9786 100.32 69.9786 97.1609C69.9786 94.5108 70.7146 92.4606 72.1867 91.0255C73.6588 89.5904 75.5028 88.8766 77.7261 88.8766C79.6611 88.8766 81.2925 89.5068 82.6205 90.7597C83.9484 92.0126 84.6085 93.7895 84.6085 96.0902C84.6085 98.1708 83.8725 99.8186 82.4004 101.041C80.9283 102.264 79.2285 102.871 77.2936 102.871C75.4269 102.871 73.7651 102.332 72.293 101.254C70.8209 100.175 70.0848 98.8162 70.0848 97.1609H72.5586C72.5586 100.031 73.416 102.666 75.1385 105.073C76.861 107.48 79.312 109.416 82.5066 110.882C85.6937 112.355 89.5181 113.092 93.9572 113.092C101.629 113.092 107.183 110.654 110.628 105.772C114.073 100.897 115.788 95.1866 115.788 88.6564C115.788 85.1407 115.181 81.4276 113.96 77.517C112.738 73.6065 110.317 70.273 106.698 67.509C103.078 64.7451 97.645 63.3631 90.4059 63.3631V61.7457C100.733 61.7457 108.671 62.9986 114.233 65.512C119.787 68.0254 123.604 71.3209 125.683 75.4137C127.762 79.5065 128.802 83.9182 128.802 88.6488C128.802 94.2451 127.383 99.0744 124.553 103.122C121.722 107.176 117.867 110.297 112.988 112.484C108.124 114.686 102.638 115.78 96.5447 115.78ZM90.4135 62.3987V60.8877C97.2277 60.8877 102.137 59.6652 105.15 57.2277C108.162 54.7903 110.044 51.8289 110.795 48.3511C111.547 44.8734 111.926 41.4792 111.926 38.1837C111.926 34.4554 111.296 31.1523 110.044 28.282C108.792 25.4118 106.978 23.1717 104.611 21.5544C102.243 19.937 99.3372 19.1321 95.8997 19.1321C93.4639 19.1321 91.0737 19.489 88.7517 20.2103C86.4221 20.9317 84.3202 21.972 82.4611 23.3312C80.5944 24.698 79.1299 26.2926 78.0524 28.1226C76.9749 29.9526 76.4361 31.942 76.4361 34.0985H73.9624C73.9624 32.1622 74.7667 30.6739 76.383 29.6336C77.9993 28.5934 79.6231 28.0694 81.2773 28.0694C83.2123 28.0694 84.9121 28.6465 86.3842 29.7931C87.8563 30.9397 88.5923 32.6634 88.5923 34.9565C88.5923 37.5383 87.788 39.3683 86.1717 40.4465C84.5554 41.5247 82.924 42.0639 81.2773 42.0639C79.3424 42.0639 77.6047 41.4033 76.0643 40.0744C74.5239 38.7456 73.7499 36.7562 73.7499 34.0985C73.7499 30.9397 74.8426 28.039 77.028 25.3814C79.2134 22.7313 82.1348 20.5748 85.7923 18.9271C89.4498 17.2793 93.4639 16.4517 97.8347 16.4517C102.638 16.4517 107.1 17.2793 111.228 18.9271C115.348 20.5824 118.664 23.0199 121.176 26.247C123.688 29.4742 124.94 33.4607 124.94 38.1913C124.94 42.4967 124.135 46.4984 122.519 50.1887C120.903 53.8867 117.625 56.848 112.677 59.0653C107.73 61.2825 100.308 62.3987 90.4135 62.3987ZM86.3311 212.207L188.399 50.7734H192.596L90.5273 212.207H86.3311ZM173.443 212.852V210.271H185.706V123.745L145.587 183.801H212.166V186.382H140.86L187.648 115.992H197.976V210.271H207.658V212.852H173.443Z" fill="black"/>
</svg>
