<svg width="144" height="197" viewBox="0 0 144 197" fill="none" xmlns="http://www.w3.org/2000/svg">
<path d="M27.5447 99.7798C21.4514 99.7798 16.4508 98.8838 12.5429 97.0917C8.63503 95.2997 5.72877 92.9838 3.83173 90.1515C1.9271 87.3192 0.978577 84.3198 0.978577 81.161C0.978577 78.5109 1.71463 76.4607 3.18673 75.0256C4.65884 73.5905 6.50276 72.8767 8.72609 72.8767C10.6611 72.8767 12.2925 73.5069 13.6205 74.7598C14.9484 76.0127 15.6085 77.7896 15.6085 80.0903C15.6085 82.1709 14.8725 83.8186 13.4004 85.0412C11.9283 86.2637 10.2285 86.8712 8.29356 86.8712C6.42688 86.8712 4.76507 86.332 3.29297 85.2538C1.82086 84.1755 1.08481 82.8163 1.08481 81.161H3.55855C3.55855 84.0313 4.41602 86.6661 6.13853 89.0732C7.86104 91.4803 10.312 93.4166 13.5066 94.8821C16.6937 96.3552 20.5181 97.0917 24.9572 97.0917C32.6288 97.0917 38.1833 94.6543 41.6284 89.7718C45.0734 84.8969 46.7883 79.1867 46.7883 72.6565C46.7883 69.1408 46.1813 65.4277 44.9596 61.5171C43.7379 57.6066 41.3172 54.2731 37.6977 51.5091C34.0781 48.7452 28.645 47.3632 21.4059 47.3632V45.7458C31.7334 45.7458 39.6706 46.9987 45.2327 49.5121C50.7873 52.0255 54.6041 55.321 56.6833 59.4138C58.7624 63.5066 59.802 67.9183 59.802 72.6489C59.802 78.2452 58.383 83.0745 55.5526 87.1217C52.7222 91.1766 48.8675 94.2974 43.9883 96.4843C39.1243 98.6863 33.638 99.7798 27.5447 99.7798ZM21.4135 46.3988V44.8878C28.2277 44.8878 33.1372 43.6652 36.1497 41.2278C39.1622 38.7903 41.0441 35.829 41.7953 32.3512C42.5465 28.8735 42.9259 25.4793 42.9259 22.1838C42.9259 18.4555 42.2961 15.1524 41.0441 12.2821C39.792 9.41185 37.9784 7.17183 35.6109 5.55445C33.2434 3.93708 30.3372 3.13219 26.8997 3.13219C24.4639 3.13219 22.0737 3.48907 19.7517 4.21044C17.4221 4.9318 15.3202 5.97208 13.4611 7.33128C11.5944 8.69808 10.1299 10.2927 9.05238 12.1227C7.97486 13.9526 7.4361 15.9421 7.4361 18.0986H4.96236C4.96236 16.1623 5.76671 14.674 7.38299 13.6337C8.99926 12.5934 10.6231 12.0695 12.2773 12.0695C14.2123 12.0695 15.9121 12.6466 17.3842 13.7932C18.8563 14.9398 19.5923 16.6635 19.5923 18.9566C19.5923 21.5384 18.788 23.3683 17.1717 24.4466C15.5554 25.5248 13.924 26.064 12.2773 26.064C10.3424 26.064 8.60468 25.4034 7.06428 24.0745C5.52389 22.7457 4.74989 20.7562 4.74989 18.0986C4.74989 14.9398 5.84259 12.0391 8.02798 9.38148C10.2134 6.73141 13.1348 4.57492 16.7923 2.92717C20.4498 1.27942 24.4639 0.451752 28.8347 0.451752C33.638 0.451752 38.0999 1.27942 42.2278 2.92717C46.3482 4.58251 49.6642 7.01996 52.1759 10.2471C54.6876 13.4743 55.9396 17.4608 55.9396 22.1914C55.9396 26.4968 55.1353 30.4985 53.519 34.1888C51.9027 37.8867 48.6246 40.8481 43.6772 43.0654C38.7297 45.2826 31.3085 46.3988 21.4135 46.3988ZM17.3311 196.207L119.399 34.7735H123.596L21.5273 196.207H17.3311ZM104.443 196.853V194.271H116.706V107.745L76.587 167.801H143.166V170.382H71.8596L118.648 99.9924H128.976V194.271H138.658V196.853H104.443Z" fill="black"/>
</svg>
