<svg width="292" height="229" viewBox="0 0 292 229" fill="none" xmlns="http://www.w3.org/2000/svg">
<path d="M143.125 154.87C143.125 145.743 142.639 136.92 141.675 128.4C140.704 119.88 139.535 111.277 138.162 102.59C136.788 93.9111 135.453 84.8979 134.163 75.5733C132.873 66.2411 131.902 56.2483 131.257 45.5873C131.257 44.6989 131.257 43.9092 131.257 43.2258C131.257 42.5424 131.257 41.8363 131.257 41.1073C131.257 35.5338 132.205 30.8867 134.102 27.1736C135.999 23.4605 139.808 21.6001 145.545 21.6001C151.198 21.6001 155.03 23.4605 157.049 27.1736C159.067 30.8867 160.076 35.5338 160.076 41.1073C160.076 41.8363 160.038 42.5424 159.955 43.2258C159.872 43.9168 159.834 44.6989 159.834 45.5873C159.189 56.2483 158.195 66.2411 156.867 75.5733C155.531 84.9055 154.18 93.9111 152.807 102.59C151.434 111.277 150.265 119.873 149.294 128.4C148.322 136.92 147.837 145.743 147.837 154.87H143.125ZM145.788 207.697C143.125 207.697 140.681 207.051 138.465 205.76C136.242 204.47 134.489 202.716 133.199 200.491C131.909 198.273 131.264 195.828 131.264 193.163C131.264 190.498 131.909 188.053 133.199 185.836C134.489 183.618 136.242 181.834 138.465 180.505C140.681 179.176 143.125 178.508 145.788 178.508C148.451 178.508 150.872 179.176 153.05 180.505C155.228 181.842 156.988 183.618 158.316 185.836C159.644 188.061 160.312 190.498 160.312 193.163C160.312 195.828 159.644 198.273 158.316 200.491C156.98 202.716 155.228 204.47 153.05 205.76C150.872 207.051 148.451 207.697 145.788 207.697Z" fill="black"/>
</svg>
