<svg width="30" height="187" viewBox="0 0 30 187" fill="none" xmlns="http://www.w3.org/2000/svg">
<path d="M12.1245 133.87C12.1245 124.743 11.6389 115.92 10.6752 107.4C9.70391 98.8802 8.53533 90.2769 7.16188 81.5902C5.78842 72.9111 4.45289 63.8978 3.16291 54.5732C1.87293 45.2411 0.901676 35.2483 0.256683 24.5873C0.256683 23.6989 0.256683 22.9092 0.256683 22.2258C0.256683 21.5424 0.256683 20.8362 0.256683 20.1072C0.256683 14.5337 1.2052 9.88665 3.10224 6.17352C4.99927 2.4604 8.80849 0.600037 14.5451 0.600037C20.1983 0.600037 24.0303 2.4604 26.0488 6.17352C28.0672 9.88665 29.0764 14.5337 29.0764 20.1072C29.0764 20.8362 29.0385 21.5424 28.955 22.2258C28.8715 22.9168 28.8336 23.6989 28.8336 24.5873C28.1886 35.2483 27.1946 45.2411 25.8667 54.5732C24.5312 63.9054 23.1804 72.9111 21.807 81.5902C20.4335 90.2769 19.265 98.8726 18.2937 107.4C17.3224 115.92 16.8368 124.743 16.8368 133.87H12.1245ZM14.788 186.697C12.1245 186.697 9.68116 186.051 7.46542 184.76C5.24209 183.47 3.48923 181.715 2.19925 179.491C0.909262 177.273 0.264233 174.828 0.264233 172.163C0.264233 169.498 0.909262 167.053 2.19925 164.836C3.48923 162.618 5.24209 160.834 7.46542 159.505C9.68116 158.176 12.1245 157.508 14.788 157.508C17.4514 157.508 19.872 158.176 22.0498 159.505C24.2276 160.842 25.9881 162.618 27.316 164.836C28.6439 167.06 29.3117 169.498 29.3117 172.163C29.3117 174.828 28.6439 177.273 27.316 179.491C25.9805 181.715 24.2276 183.47 22.0498 184.76C19.872 186.051 17.4514 186.697 14.788 186.697Z" fill="black"/>
</svg>
