<svg width="293" height="229" viewBox="0 0 293 229" fill="none" xmlns="http://www.w3.org/2000/svg">
<path d="M128.277 170.383C121.417 168.849 114.512 166.063 107.577 162.023C100.633 157.983 94.2593 152.835 88.4468 146.578C82.6343 140.321 77.9524 133.07 74.4011 124.831C70.8499 116.592 69.0742 107.549 69.0742 97.6926C69.0742 82.506 72.2612 69.2785 78.6353 58.01C85.0093 46.7415 94.0089 38.0168 105.634 31.8359C117.259 25.6549 130.857 22.5645 146.436 22.5645C162.097 22.5645 175.718 25.6549 187.298 31.8359C198.877 38.0168 207.884 46.7415 214.296 58.01C220.716 69.2785 223.918 82.506 223.918 97.6926C223.918 107.549 222.143 116.532 218.591 124.649C215.04 132.766 210.358 139.896 204.546 146.032C198.733 152.175 192.359 157.201 185.416 161.119C178.473 165.038 171.567 167.764 164.715 169.297V164.939C171.492 162.114 177.228 157.429 181.91 150.884C186.592 144.338 190.143 136.487 192.564 127.322C194.985 118.157 196.199 108.278 196.199 97.7002C196.199 88.2465 195.455 79.2637 193.96 70.744C192.465 62.2243 189.885 54.6689 186.213 48.0855C182.54 41.5022 177.471 36.3311 171.021 32.58C164.564 28.8213 156.368 26.9458 146.443 26.9458C136.518 26.9458 128.323 28.8213 121.865 32.58C115.408 36.3387 110.361 41.5097 106.727 48.0855C103.092 54.6689 100.527 62.2243 99.0399 70.744C97.545 79.2637 96.8013 88.2541 96.8013 97.7002C96.8013 108.285 98.0155 118.24 100.436 127.565C102.857 136.897 106.408 144.931 111.09 151.673C115.772 158.416 121.501 163.208 128.285 166.032V170.383H128.277ZM75.122 206.732V170.383H79.8418C79.8418 176.04 81.1167 180.217 83.6587 182.92C86.2007 185.631 90.5791 186.982 96.7938 186.982H123.671V167.84L128.269 167.961V206.732H75.122ZM164.723 206.732V166.746H169.321V186.982H196.199C202.413 186.982 206.792 185.631 209.334 182.92C211.876 180.217 213.151 176.033 213.151 170.383H217.87V206.732H164.723Z" fill="black"/>
</svg>
