<svg width="155" height="185" viewBox="0 0 155 185" fill="none" xmlns="http://www.w3.org/2000/svg">
<path d="M59.2771 148.383C52.4174 146.849 45.5121 144.063 38.5765 140.023C31.6334 135.983 25.2593 130.835 19.4468 124.578C13.6343 118.321 8.95238 111.07 5.40112 102.831C1.84986 94.5922 0.0742188 85.5486 0.0742188 75.6925C0.0742188 60.5059 3.26123 47.2784 9.63528 36.0099C16.0093 24.7414 25.0089 16.0167 36.634 9.83578C48.259 3.65484 61.857 0.564362 77.4355 0.564362C93.0975 0.564362 106.718 3.65484 118.298 9.83578C129.877 16.0167 138.884 24.7414 145.296 36.0099C151.716 47.2784 154.918 60.5059 154.918 75.6925C154.918 85.5486 153.143 94.5315 149.591 102.649C146.04 110.766 141.358 117.896 135.546 124.031C129.733 130.174 123.359 135.201 116.416 139.119C109.473 143.038 102.567 145.764 95.7154 147.297V142.939C102.492 140.114 108.228 135.429 112.91 128.884C117.592 122.338 121.143 114.487 123.564 105.322C125.985 96.1565 127.199 86.2776 127.199 75.7001C127.199 66.2464 126.455 57.2636 124.96 48.7439C123.465 40.2242 120.885 32.6688 117.213 26.0855C113.54 19.5021 108.471 14.331 102.021 10.5799C95.5636 6.82124 87.3684 4.9457 77.4431 4.9457C67.5178 4.9457 59.3226 6.82124 52.8651 10.5799C46.4075 14.3386 41.3614 19.5097 37.7267 26.0855C34.0919 32.6688 31.5271 40.2242 30.0399 48.7439C28.545 57.2636 27.8013 66.254 27.8013 75.7001C27.8013 86.2852 29.0155 96.24 31.4361 105.565C33.8567 114.897 37.408 122.93 42.0899 129.673C46.7718 136.416 52.5008 141.208 59.2847 144.032V148.383H59.2771ZM6.12201 184.732V148.383H10.8418C10.8418 154.04 12.1167 158.217 14.6587 160.92C17.2007 163.631 21.5791 164.982 27.7938 164.982H54.671V145.839L59.2695 145.961V184.732H6.12201ZM95.723 184.732V144.746H100.321V164.982H127.199C133.413 164.982 137.792 163.631 140.334 160.92C142.876 158.217 144.151 154.033 144.151 148.383H148.87V184.732H95.723Z" fill="black"/>
</svg>
