<svg width="286" height="229" viewBox="0 0 286 229" fill="none" xmlns="http://www.w3.org/2000/svg">
<path d="M145.867 207.94C132.952 207.94 120.864 205.532 109.603 200.734C98.3425 195.927 88.4324 189.245 79.8806 180.68C71.3211 172.122 64.6435 162.205 59.8402 150.937C55.0369 139.668 52.639 127.572 52.639 114.648C52.639 101.724 55.0369 89.6283 59.8402 78.3599C64.6435 67.0914 71.3211 57.1745 79.8806 48.6169C88.4324 40.0592 98.3425 33.3695 109.603 28.563C120.864 23.7564 132.952 21.3569 145.867 21.3569C158.782 21.3569 170.87 23.764 182.131 28.563C193.392 33.3695 203.302 40.0516 211.854 48.6169C220.406 57.1821 227.106 67.0914 231.955 78.3599C236.796 89.6283 239.217 101.724 239.217 114.648C239.217 127.572 236.796 139.668 231.955 150.937C227.114 162.205 220.413 172.122 211.854 180.68C203.294 189.245 193.392 195.927 182.131 200.734C170.87 205.54 158.782 207.94 145.867 207.94ZM145.867 203.217C158.137 203.217 169.596 200.916 180.257 196.307C190.911 191.705 200.297 185.342 208.409 177.225C216.521 169.107 222.857 159.714 227.417 149.053C231.978 138.392 234.262 126.927 234.262 114.641C234.262 102.362 231.978 90.8964 227.417 80.2278C222.857 69.5668 216.521 60.1739 208.409 52.0567C200.297 43.9394 190.911 37.5762 180.257 32.9747C169.603 28.3731 158.137 26.0648 145.867 26.0648C133.597 26.0648 122.139 28.3656 111.478 32.9747C100.824 37.5762 91.4373 43.9394 83.3255 52.0567C75.2138 60.1739 68.8777 69.5668 64.3172 80.2278C59.7568 90.8888 57.4727 102.362 57.4727 114.641C57.4727 126.919 59.7492 138.385 64.3172 149.053C68.8777 159.714 75.2138 169.107 83.3255 177.225C91.4373 185.342 100.824 191.705 111.478 196.307C122.132 200.916 133.597 203.217 145.867 203.217ZM184.005 170.383C178.436 170.383 174.437 169.069 172.016 166.442C169.595 163.815 168.078 160.443 167.478 156.328C166.871 152.212 166.568 147.831 166.568 143.184C166.568 138.537 166.226 134.155 165.536 130.04C164.845 125.917 163.191 122.545 160.573 119.926C157.948 117.298 153.653 115.985 147.681 115.985H130.243V166.753H146.224V169.662H100.46V166.753H116.44V63.5149H100.46V60.6067H148.409C159.389 60.6067 168.184 62.8923 174.809 67.4559C181.425 72.0194 184.734 79.0281 184.734 88.4741C184.734 96.9558 182.169 103.273 177.047 107.435C171.917 111.596 164.557 113.995 154.95 114.641C161.969 115.127 167.357 116.744 171.113 119.485C174.869 122.234 177.487 125.583 178.982 129.539C180.477 133.495 181.342 137.641 181.585 141.954C181.828 146.274 181.964 150.352 182.01 154.194C182.048 158.029 182.495 161.142 183.345 163.526C184.195 165.911 185.986 167.103 188.733 167.103C190.266 167.103 191.639 166.943 192.846 166.617C194.06 166.298 195.145 165.933 196.116 165.523L197.087 168.067C195.957 168.713 194.219 169.259 191.882 169.7C189.53 170.163 186.912 170.383 184.005 170.383ZM130.243 113.19H148.402C155.345 113.19 160.71 111.049 164.504 106.766C168.298 102.484 170.195 96.3864 170.195 88.4741C170.195 80.4784 168.298 74.3202 164.504 69.9996C160.71 65.679 155.345 63.5149 148.402 63.5149H130.243V113.19Z" fill="black"/>
</svg>
