<svg width="188" height="187" viewBox="0 0 188 187" fill="none" xmlns="http://www.w3.org/2000/svg">
<path d="M93.8673 186.94C80.9522 186.94 68.8642 184.533 57.6034 179.734C46.3425 174.927 36.4324 168.245 27.8806 159.68C19.3211 151.122 12.6435 141.205 7.8402 129.937C3.03689 118.668 0.639038 106.572 0.639038 93.6483C0.639038 80.7245 3.03689 68.6284 7.8402 57.3599C12.6435 46.0915 19.3211 36.1746 27.8806 27.617C36.4324 19.0593 46.3425 12.3696 57.6034 7.56307C68.8642 2.75651 80.9522 0.357025 93.8673 0.357025C106.782 0.357025 118.87 2.7641 130.131 7.56307C141.392 12.3696 151.302 19.0517 159.854 27.617C168.406 36.1822 175.106 46.0915 179.955 57.3599C184.796 68.6284 187.217 80.7245 187.217 93.6483C187.217 106.572 184.796 118.668 179.955 129.937C175.114 141.205 168.413 151.122 159.854 159.68C151.294 168.245 141.392 174.927 130.131 179.734C118.87 184.54 106.782 186.94 93.8673 186.94ZM93.8673 182.217C106.137 182.217 117.596 179.916 128.257 175.307C138.911 170.705 148.297 164.342 156.409 156.225C164.521 148.107 170.857 138.715 175.417 128.054C179.978 117.393 182.262 105.927 182.262 93.6407C182.262 81.3624 179.978 69.8965 175.417 59.2279C170.857 48.5669 164.521 39.174 156.409 31.0567C148.297 22.9395 138.911 16.5763 128.257 11.9748C117.603 7.37324 106.137 5.06487 93.8673 5.06487C81.5972 5.06487 70.1391 7.36564 59.4777 11.9748C48.8239 16.5763 39.4373 22.9395 31.3255 31.0567C23.2138 39.174 16.8777 48.5669 12.3172 59.2279C7.75675 69.8889 5.4727 81.3624 5.4727 93.6407C5.4727 105.919 7.74916 117.385 12.3172 128.054C16.8777 138.715 23.2138 148.107 31.3255 156.225C39.4373 164.342 48.8239 170.705 59.4777 175.307C70.1315 179.916 81.5972 182.217 93.8673 182.217ZM132.005 149.383C126.436 149.383 122.437 148.07 120.016 145.442C117.595 142.815 116.078 139.444 115.478 135.328C114.871 131.212 114.568 126.831 114.568 122.184C114.568 117.537 114.226 113.156 113.536 109.04C112.845 104.917 111.191 101.545 108.573 98.9257C105.948 96.2984 101.653 94.9847 95.6808 94.9847H78.2432V145.754H94.2239V148.662H48.4597V145.754H64.4403V42.515H48.4597V39.6068H96.4093C107.389 39.6068 116.184 41.8924 122.809 46.456C129.425 51.0195 132.734 58.0282 132.734 67.4742C132.734 75.9559 130.169 82.2736 125.047 86.4347C119.917 90.5958 112.557 92.9953 102.95 93.6407C109.969 94.1267 115.357 95.7441 119.113 98.4853C122.869 101.234 125.487 104.583 126.982 108.539C128.477 112.495 129.342 116.641 129.585 120.954C129.828 125.274 129.964 129.352 130.01 133.194C130.048 137.029 130.495 140.142 131.345 142.526C132.195 144.911 133.986 146.103 136.733 146.103C138.266 146.103 139.639 145.943 140.846 145.617C142.06 145.298 143.145 144.934 144.116 144.523L145.087 147.067C143.957 147.713 142.219 148.259 139.882 148.7C137.53 149.163 134.912 149.383 132.005 149.383ZM78.2432 92.1904H96.4017C103.345 92.1904 108.71 90.0491 112.504 85.7665C116.298 81.4839 118.195 75.3864 118.195 67.4742C118.195 59.4785 116.298 53.3203 112.504 48.9997C108.71 44.6791 103.345 42.515 96.4017 42.515H78.2432V92.1904Z" fill="black"/>
</svg>
