<svg width="118" height="133" viewBox="0 0 118 133" fill="none" xmlns="http://www.w3.org/2000/svg">
<path d="M59.0341 132.256C55.4828 132.256 52.5765 130.965 50.3153 128.376C48.054 125.794 46.9234 122.157 46.9234 117.472C46.9234 116.743 46.9386 116.021 46.9841 115.292C47.022 114.563 47.0827 113.796 47.1662 112.991C47.7277 108.709 48.5169 105.14 49.5261 102.27C50.5353 99.4071 51.5673 96.6355 52.6145 93.9703C53.6617 91.305 54.5495 88.1766 55.2779 84.5773C56.0064 80.9857 56.4465 76.3614 56.6134 70.7044C51.7722 73.6126 47.9781 76.3006 45.2312 78.7609C42.4843 81.2287 40.2079 83.5674 38.3943 85.7847C36.5807 88.0095 34.6837 90.2647 32.7032 92.5731C30.7227 94.8739 28.044 97.3569 24.6521 100.022C24.0071 100.592 23.3773 101.032 22.7778 101.359C22.1708 101.685 21.5486 102.042 20.9036 102.452C16.7832 104.798 13.0954 105.626 9.82486 104.935C6.55437 104.252 3.98957 102.368 2.13806 99.3007C0.362431 96.233 -0.00180203 93.0818 1.04536 89.8471C2.09253 86.6199 4.68009 83.8332 8.79287 81.4869C9.43787 81.0844 10.0677 80.7199 10.6672 80.3934C11.2742 80.0745 11.9799 79.748 12.7842 79.4215C16.7377 77.8041 20.2131 76.6955 23.1952 76.088C26.1773 75.4805 29.1064 74.9794 31.9747 74.5769C34.843 74.1745 38.0073 73.4076 41.4827 72.2762C44.9505 71.1448 49.1922 69.2085 54.1928 66.4597C49.1846 63.7109 44.9505 61.7746 41.4827 60.6432C38.0149 59.5118 34.843 58.7449 31.9747 58.3425C29.1064 57.94 26.1849 57.4313 23.1952 56.8314C20.2055 56.2239 16.7377 55.1153 12.7842 53.4979C11.9799 53.179 11.2742 52.8297 10.6672 52.4652C10.0601 52.1008 9.43787 51.7591 8.79287 51.4325C4.6725 49.0938 2.09253 46.3071 1.04536 43.0723C-0.00180203 39.8452 0.354843 36.694 2.13806 33.6187C3.98957 30.551 6.55437 28.6754 9.82486 27.9844C13.0954 27.301 16.7832 28.1287 20.9036 30.4674C21.5486 30.794 22.1784 31.1356 22.7778 31.5001C23.3849 31.8646 24.0071 32.3278 24.6521 32.8897C28.044 35.555 30.7227 38.038 32.7032 40.3387C34.6837 42.6395 36.5807 44.9023 38.3943 47.1272C40.2079 49.352 42.4919 51.6907 45.2312 54.151C47.9781 56.6188 51.7722 59.2992 56.6134 62.2074C56.4465 56.558 56.0064 51.9337 55.2779 48.3345C54.5495 44.7429 53.6617 41.6068 52.6145 38.9416C51.5673 36.2763 50.5353 33.5124 49.5261 30.6421C48.5169 27.7794 47.7277 24.203 47.1662 19.9203C47.0827 19.0319 47.022 18.2422 46.9841 17.5588C46.9461 16.8754 46.9234 16.1617 46.9234 15.4403C46.9234 10.6717 48.054 7.01932 50.3153 4.47556C52.5765 1.9318 55.4828 0.656128 59.0341 0.656128C62.5853 0.656128 65.4916 1.9318 67.7529 4.47556C70.0141 7.01932 71.1448 10.6793 71.1448 15.4403C71.1448 16.1692 71.1448 16.8754 71.1448 17.5588C71.1448 18.2422 71.0613 19.0319 70.9019 19.9203C70.3404 24.203 69.5513 27.7794 68.542 30.6421C67.5328 33.5124 66.5008 36.2763 65.4537 38.9416C64.4065 41.6068 63.5187 44.7353 62.7902 48.3345C62.0617 51.9261 61.6216 56.5504 61.4623 62.2074C66.3035 59.2992 70.0976 56.6188 72.8445 54.151C75.5914 51.6907 77.8679 49.3444 79.689 47.1272C81.5026 44.9099 83.3996 42.6471 85.3801 40.3387C87.3607 38.038 90.0393 35.555 93.4312 32.8897C94.0762 32.3278 94.7212 31.857 95.3662 31.5001C96.0112 31.1356 96.6182 30.794 97.1797 30.4674C101.293 28.1287 105.011 27.301 108.319 27.9844C111.628 28.6754 114.17 30.551 115.945 33.6187C117.797 36.6864 118.184 39.8376 117.099 43.0723C116.006 46.3071 113.403 49.0938 109.29 51.4325C108.721 51.7591 108.122 52.1008 107.477 52.4652C106.832 52.8297 106.103 53.1714 105.299 53.4979C101.346 55.1153 97.8703 56.2239 94.8881 56.8314C91.8984 57.4389 88.9769 57.94 86.1086 58.3425C83.2403 58.7449 80.076 59.5118 76.6082 60.6432C73.1405 61.7746 68.8987 63.7109 63.8981 66.4597C68.8987 69.2085 73.1405 71.1448 76.6082 72.2762C80.076 73.4076 83.2479 74.1745 86.1086 74.5769C88.9769 74.9794 91.8984 75.4881 94.8881 76.088C97.8703 76.6955 101.346 77.8041 105.299 79.4215C106.103 79.748 106.832 80.0669 107.477 80.3934C108.122 80.7199 108.729 81.0844 109.29 81.4869C113.403 83.8332 116.014 86.6199 117.099 89.8471C118.191 93.0818 117.804 96.2255 115.945 99.3007C114.17 102.368 111.628 104.252 108.319 104.935C105.011 105.626 101.293 104.798 97.1797 102.452C96.6106 102.05 96.0112 101.685 95.3662 101.359C94.7212 101.04 94.0762 100.592 93.4312 100.022C90.0393 97.3569 87.3607 94.8739 85.3801 92.5731C83.3996 90.2723 81.5026 88.0095 79.689 85.7847C77.8755 83.5674 75.5914 81.2211 72.8445 78.7609C70.0976 76.3006 66.3035 73.6126 61.4623 70.7044C61.6216 76.3614 62.0693 80.9857 62.7902 84.5773C63.5187 88.169 64.4065 91.305 65.4537 93.9703C66.5008 96.6355 67.5328 99.4071 68.542 102.27C69.5513 105.14 70.3404 108.709 70.9019 112.991C71.0613 113.796 71.1448 114.563 71.1448 115.292C71.1448 116.021 71.1448 116.743 71.1448 117.472C71.1448 122.157 70.0141 125.794 67.7529 128.376C65.4916 130.957 62.5853 132.256 59.0341 132.256Z" fill="black"/>
</svg>
