<svg width="287" height="229" viewBox="0 0 287 229" fill="none" xmlns="http://www.w3.org/2000/svg">
<path d="M141.034 180.256C137.483 180.256 134.577 178.965 132.315 176.376C130.054 173.794 128.923 170.157 128.923 165.472C128.923 164.743 128.939 164.021 128.984 163.292C129.022 162.563 129.083 161.796 129.166 160.992C129.728 156.709 130.517 153.14 131.526 150.27C132.535 147.407 133.567 144.636 134.614 141.97C135.662 139.305 136.549 136.177 137.278 132.577C138.006 128.986 138.447 124.361 138.613 118.704C133.772 121.613 129.978 124.301 127.231 126.761C124.484 129.229 122.208 131.568 120.394 133.785C118.581 136.01 116.684 138.265 114.703 140.573C112.723 142.874 110.044 145.357 106.652 148.022C106.007 148.592 105.377 149.032 104.778 149.359C104.171 149.685 103.549 150.042 102.904 150.452C98.7832 152.798 95.0954 153.626 91.8249 152.935C88.5544 152.252 85.9896 150.369 84.1381 147.301C82.3624 144.233 81.9982 141.082 83.0454 137.847C84.0925 134.62 86.6801 131.833 90.7929 129.487C91.4379 129.085 92.0677 128.72 92.6672 128.394C93.2742 128.075 93.9799 127.748 94.7842 127.422C98.7377 125.804 102.213 124.696 105.195 124.088C108.177 123.481 111.106 122.98 113.975 122.577C116.843 122.175 120.007 121.408 123.483 120.276C126.95 119.145 131.192 117.209 136.193 114.46C131.185 111.711 126.95 109.775 123.483 108.643C120.015 107.512 116.843 106.745 113.975 106.343C111.106 105.94 108.185 105.431 105.195 104.832C102.205 104.224 98.7377 103.115 94.7842 101.498C93.9799 101.179 93.2742 100.83 92.6672 100.465C92.0601 100.101 91.4379 99.7592 90.7929 99.4327C86.6725 97.0939 84.0925 94.3072 83.0454 91.0725C81.9982 87.8453 82.3548 84.6941 84.1381 81.6188C85.9896 78.5511 88.5544 76.6756 91.8249 75.9846C95.0954 75.3012 98.7832 76.1288 102.904 78.4676C103.549 78.7941 104.178 79.1358 104.778 79.5002C105.385 79.8647 106.007 80.3279 106.652 80.8898C110.044 83.5551 112.723 86.0381 114.703 88.3389C116.684 90.6396 118.581 92.9024 120.394 95.1273C122.208 97.3521 124.492 99.6909 127.231 102.151C129.978 104.619 133.772 107.299 138.613 110.208C138.447 104.558 138.006 99.9338 137.278 96.3346C136.549 92.743 135.662 89.6069 134.614 86.9417C133.567 84.2764 132.535 81.5125 131.526 78.6422C130.517 75.7795 129.728 72.2031 129.166 67.9205C129.083 67.032 129.022 66.2423 128.984 65.559C128.946 64.8756 128.923 64.1618 128.923 63.4404C128.923 58.6718 130.054 55.0194 132.315 52.4757C134.577 49.9319 137.483 48.6562 141.034 48.6562C144.585 48.6562 147.492 49.9319 149.753 52.4757C152.014 55.0194 153.145 58.6794 153.145 63.4404C153.145 64.1694 153.145 64.8756 153.145 65.559C153.145 66.2423 153.061 67.032 152.902 67.9205C152.34 72.2031 151.551 75.7795 150.542 78.6422C149.533 81.5125 148.501 84.2764 147.454 86.9417C146.406 89.6069 145.519 92.7354 144.79 96.3346C144.062 99.9262 143.622 104.551 143.462 110.208C148.304 107.299 152.098 104.619 154.845 102.151C157.591 99.6909 159.868 97.3445 161.689 95.1273C163.503 92.91 165.4 90.6472 167.38 88.3389C169.361 86.0381 172.039 83.5551 175.431 80.8898C176.076 80.3279 176.721 79.8571 177.366 79.5002C178.011 79.1358 178.618 78.7941 179.18 78.4676C183.293 76.1288 187.011 75.3012 190.319 75.9846C193.628 76.6756 196.17 78.5511 197.945 81.6188C199.797 84.6865 200.184 87.8377 199.099 91.0725C198.006 94.3072 195.403 97.0939 191.29 99.4327C190.721 99.7592 190.122 100.101 189.477 100.465C188.832 100.83 188.103 101.172 187.299 101.498C183.346 103.115 179.87 104.224 176.888 104.832C173.898 105.439 170.977 105.94 168.109 106.343C165.24 106.745 162.076 107.512 158.608 108.643C155.14 109.775 150.899 111.711 145.898 114.46C150.899 117.209 155.14 119.145 158.608 120.276C162.076 121.408 165.248 122.175 168.109 122.577C170.977 122.98 173.898 123.488 176.888 124.088C179.87 124.696 183.346 125.804 187.299 127.422C188.103 127.748 188.832 128.067 189.477 128.394C190.122 128.72 190.729 129.085 191.29 129.487C195.403 131.833 198.014 134.62 199.099 137.847C200.191 141.082 199.804 144.226 197.945 147.301C196.17 150.369 193.628 152.252 190.319 152.935C187.011 153.626 183.293 152.798 179.18 150.452C178.611 150.05 178.011 149.685 177.366 149.359C176.721 149.04 176.076 148.592 175.431 148.022C172.039 145.357 169.361 142.874 167.38 140.573C165.4 138.272 163.503 136.01 161.689 133.785C159.875 131.568 157.591 129.221 154.845 126.761C152.098 124.301 148.304 121.613 143.462 118.704C143.622 124.361 144.069 128.986 144.79 132.577C145.519 136.169 146.406 139.305 147.454 141.97C148.501 144.636 149.533 147.407 150.542 150.27C151.551 153.14 152.34 156.709 152.902 160.992C153.061 161.796 153.145 162.563 153.145 163.292C153.145 164.021 153.145 164.743 153.145 165.472C153.145 170.157 152.014 173.794 149.753 176.376C147.492 178.957 144.585 180.256 141.034 180.256Z" fill="black"/>
</svg>
