<svg width="128" height="207" viewBox="0 0 128 207" fill="none" xmlns="http://www.w3.org/2000/svg">
<path d="M42.7764 206.083C33.7389 206.083 26.0293 204.124 19.6477 200.206C13.266 196.288 8.42479 191.421 5.11635 185.604C1.80791 179.788 0.153687 174.055 0.153687 168.398C0.153687 159.43 2.35426 152.847 6.7554 148.647C11.1565 144.448 16.1419 142.345 21.7116 142.345C26.7122 142.345 31.1362 144.099 34.9682 147.615C38.8002 151.13 40.72 156.036 40.72 162.338C40.72 167.266 38.7622 171.283 34.8467 174.396C30.9313 177.51 26.5529 179.059 21.7116 179.059C18.001 179.059 14.6926 178.39 11.7863 177.062C8.88006 175.725 6.86163 174.252 5.73099 172.642C6.61881 177.487 8.65243 182.096 11.847 186.454C15.0341 190.813 19.2531 194.374 24.4965 197.115C29.74 199.864 35.8332 201.231 42.7764 201.231C52.7017 201.231 61.0563 198.422 67.8401 192.81C74.6163 187.199 79.7687 179.742 83.2744 170.455C86.7877 161.169 88.5406 151.032 88.5406 140.044V0.843811H93.2605V139.33C93.2605 151.047 91.3862 161.989 87.63 172.164C83.8739 182.339 78.2662 190.54 70.7995 196.759C63.3403 202.978 53.9993 206.083 42.7764 206.083ZM68.3258 119.702C46.4491 119.702 29.7855 115.746 18.3198 107.826C6.85404 99.9136 1.12497 88.0757 1.12497 72.3271C1.12497 56.5786 6.85404 44.7255 18.3198 36.7677C29.7779 28.8099 46.4491 24.8311 68.3258 24.8311H127.415V29.5541H71.839C67.8021 29.5541 63.9853 31.1259 60.3961 34.2771C56.8069 37.4283 53.9007 42.1742 51.6773 48.5146C49.454 54.855 48.3461 62.79 48.3461 72.3196C48.3461 81.8492 49.454 89.769 51.6773 96.0638C53.8931 102.366 56.7993 107.089 60.3961 110.241C63.9853 113.392 67.8021 114.964 71.839 114.964H92.3043V119.687H68.3258V119.702Z" fill="black"/>
</svg>
