<svg width="292" height="229" viewBox="0 0 292 229" fill="none" xmlns="http://www.w3.org/2000/svg">
<path d="M124.776 217.083C115.739 217.083 108.029 215.124 101.648 211.206C95.266 207.288 90.4248 202.42 87.1164 196.604C83.8079 190.788 82.1537 185.055 82.1537 179.398C82.1537 170.43 84.3543 163.846 88.7554 159.647C93.1565 155.448 98.1419 153.345 103.712 153.345C108.712 153.345 113.136 155.099 116.968 158.615C120.8 162.13 122.72 167.036 122.72 173.338C122.72 178.266 120.762 182.283 116.847 185.396C112.931 188.51 108.553 190.059 103.712 190.059C100.001 190.059 96.6926 189.39 93.7863 188.062C90.8801 186.725 88.8616 185.252 87.731 183.642C88.6188 188.487 90.6524 193.096 93.847 197.454C97.0341 201.813 101.253 205.374 106.497 208.115C111.74 210.864 117.833 212.231 124.776 212.231C134.702 212.231 143.056 209.421 149.84 203.81C156.616 198.199 161.769 190.742 165.274 181.455C168.788 172.169 170.541 162.032 170.541 151.044V11.8438H175.26V150.33C175.26 162.047 173.386 172.989 169.63 183.164C165.874 193.339 160.266 201.54 152.799 207.759C145.34 213.977 135.999 217.083 124.776 217.083ZM150.326 130.702C128.449 130.702 111.785 126.746 100.32 118.826C88.854 110.914 83.125 99.0756 83.125 83.3271C83.125 67.5786 88.854 55.7254 100.32 47.7677C111.778 39.8099 128.449 35.831 150.326 35.831H209.415V40.554H153.839C149.802 40.554 145.985 42.1258 142.396 45.2771C138.807 48.4283 135.901 53.1741 133.677 59.5145C131.454 65.8549 130.346 73.7899 130.346 83.3195C130.346 92.8491 131.454 100.769 133.677 107.064C135.893 113.366 138.799 118.089 142.396 121.24C145.985 124.392 149.802 125.963 153.839 125.963H174.304V130.687H150.326V130.702Z" fill="black"/>
</svg>
