<svg width="159" height="118" viewBox="0 0 159 118" fill="none" xmlns="http://www.w3.org/2000/svg">
<path d="M18.7151 2.50987V113.448H36.6231V116.41H0.0482178V113.448H15.6039V5.47126H0.0482178V2.50987H18.7151ZM108.104 2.50987V5.47126H92.0926V117.928H87.9949L16.5145 2.50987H33.9673L89.0573 92.9462V5.47126H71.5287V2.50987H108.104ZM107.648 29.7698C107.648 35.8445 108.726 41.0459 110.873 45.3741C113.021 49.7023 116.01 53.0054 119.827 55.2834C123.644 57.5613 128.114 58.7003 133.22 58.7003C138.327 58.7003 142.819 57.5613 146.689 55.2834C150.559 53.0054 153.572 49.7023 155.719 45.3741C157.867 41.0459 158.944 35.8445 158.944 29.7698C158.944 23.6952 157.867 18.5166 155.719 14.2415C153.572 9.96651 150.559 6.68619 146.689 4.4082C142.819 2.13021 138.327 0.991211 133.22 0.991211C128.114 0.991211 123.644 2.13021 119.827 4.4082C116.01 6.68619 113.021 9.96651 110.873 14.2415C108.726 18.5242 107.648 23.6952 107.648 29.7698ZM115.085 70.0144V67.1289H151.508V70.0144H115.085ZM120.548 29.7698C120.548 21.1135 121.55 14.4314 123.545 9.72351C125.541 5.01566 128.766 2.66175 133.22 2.66175C137.72 2.66175 140.975 5.01566 142.971 9.72351C144.967 14.4314 145.968 21.1135 145.968 29.7698C145.968 38.4794 144.967 45.1995 142.971 49.9301C140.975 54.6607 137.72 57.0298 133.22 57.0298C128.766 57.0298 125.541 54.6607 123.545 49.9301C121.55 45.1995 120.548 38.4794 120.548 29.7698Z" fill="black"/>
</svg>
