<svg width="293" height="229" viewBox="0 0 293 229" fill="none" xmlns="http://www.w3.org/2000/svg">
<path d="M85.7151 57.5099V168.448H103.623V171.41H67.0482V168.448H82.6039V60.4713H67.0482V57.5099H85.7151ZM175.104 57.5099V60.4713H159.093V172.928H154.995L83.5145 57.5099H100.967L156.057 147.946V60.4713H138.529V57.5099H175.104ZM174.648 84.7698C174.648 90.8445 175.726 96.0459 177.873 100.374C180.021 104.702 183.01 108.005 186.827 110.283C190.644 112.561 195.114 113.7 200.22 113.7C205.327 113.7 209.819 112.561 213.689 110.283C217.559 108.005 220.572 104.702 222.719 100.374C224.867 96.0459 225.944 90.8445 225.944 84.7698C225.944 78.6952 224.867 73.5166 222.719 69.2415C220.572 64.9665 217.559 61.6862 213.689 59.4082C209.819 57.1302 205.327 55.9912 200.22 55.9912C195.114 55.9912 190.644 57.1302 186.827 59.4082C183.01 61.6862 180.021 64.9665 177.873 69.2415C175.726 73.5242 174.648 78.6952 174.648 84.7698ZM182.085 125.014V122.129H218.508V125.014H182.085ZM187.548 84.7698C187.548 76.1135 188.55 69.4314 190.545 64.7235C192.541 60.0157 195.766 57.6617 200.22 57.6617C204.72 57.6617 207.975 60.0157 209.971 64.7235C211.967 69.4314 212.968 76.1135 212.968 84.7698C212.968 93.4794 211.967 100.199 209.971 104.93C207.975 109.661 204.72 112.03 200.22 112.03C195.766 112.03 192.541 109.661 190.545 104.93C188.55 100.199 187.548 93.4794 187.548 84.7698Z" fill="black"/>
</svg>
