<svg width="292" height="229" viewBox="0 0 292 229" fill="none" xmlns="http://www.w3.org/2000/svg">
<path d="M93.1785 146.754V145.182H102.74V83.0232H94.0207C88.9367 83.0232 85.6661 84.6405 84.2168 87.8677C82.7599 91.1024 82.039 95.461 82.039 100.951H80.2255V81.3223H133.623V100.951H131.931C131.931 95.461 131.188 91.0949 129.693 87.8677C128.198 84.6405 124.912 83.0232 119.828 83.0232H111.109V145.182H120.67V146.754H93.1785ZM173.332 147.597L149.968 83.866V145.174H156.388V146.746H141.978V145.174H148.155V83.0156H141.492V81.3223H157.351L177.574 135.964L196.461 81.3223H212.199V83.0156H206.143V145.174H212.199V146.746H190.891V145.174H197.796V83.0156L175.396 147.597H173.332Z" fill="black"/>
</svg>
