<svg width="133" height="67" viewBox="0 0 133 67" fill="none" xmlns="http://www.w3.org/2000/svg">
<path d="M13.1785 65.7541V64.1822H22.7395V2.0234H14.0207C8.93667 2.0234 5.66614 3.64078 4.21681 6.86794C2.75988 10.1027 2.03901 14.4612 2.03901 19.9512H0.225525V0.32251H53.6233V19.9512H51.9311C51.9311 14.4612 51.1875 10.0951 49.6926 6.86794C48.1978 3.64078 44.9121 2.0234 39.828 2.0234H31.1093V64.1822H40.6703V65.7541H13.1785ZM93.3321 66.5969L69.9682 2.86625V64.1747H76.3878V65.7465H61.9779V64.1747H68.1546V2.0158H61.4923V0.32251H77.3514L97.5739 54.964L116.461 0.32251H132.199V2.0158H126.143V64.1747H132.199V65.7465H110.891V64.1747H117.796V2.0158L95.3961 66.5969H93.3321Z" fill="black"/>
</svg>
