<svg width="157" height="163" viewBox="0 0 157 163" fill="none" xmlns="http://www.w3.org/2000/svg">
<path d="M48.9319 162.275C39.6289 162.275 31.3653 160.757 24.1262 157.712C16.8871 154.667 11.2112 150.293 7.0832 144.59C2.95524 138.888 0.891235 131.978 0.891235 123.861C0.891235 117.771 2.32543 112.304 5.19376 107.436C8.06208 102.577 11.6816 98.3093 16.0524 94.6341C20.4232 90.959 24.9457 87.7926 29.6352 85.1349C34.3171 82.4772 38.5665 80.3283 42.3758 78.6806C46.185 77.0404 48.8636 75.8331 50.3964 75.0586L51.9672 78.1035C45.9498 81.3231 40.8657 84.9223 36.7074 88.9164C32.5491 92.9029 29.3848 97.6411 27.2146 103.139C25.0444 108.629 23.9669 115.227 23.9669 122.919C23.9669 127.118 24.7712 131.158 26.3799 135.038C27.9885 138.918 30.2802 142.404 33.2472 145.479C36.2217 148.562 39.7502 150.992 43.8402 152.776C47.9303 154.561 52.4225 155.449 57.3168 155.449C65.2161 155.449 72.736 153.718 79.8689 150.255C87.0018 146.793 93.5883 142.054 99.636 136.033C105.684 130.019 111.018 123.124 115.632 115.356C120.246 107.588 124.002 99.3724 126.908 90.6932C129.807 82.0216 131.681 73.3425 132.516 64.6633H136.712C135.665 74.0411 133.51 83.396 130.262 92.7358C127.014 102.076 122.78 110.907 117.574 119.236C112.369 127.566 106.298 134.962 99.3781 141.432C92.4576 147.901 84.7632 152.996 76.3024 156.702C67.8416 160.415 58.7207 162.275 48.9319 162.275ZM104.728 160.172L35.2959 57.3206C32.5718 53.3341 30.2802 48.9452 28.4287 44.1462C26.5772 39.3549 25.6514 35.1026 25.6514 31.3971C25.6514 25.1022 27.4726 19.6578 31.1074 15.0791C34.7421 10.5003 39.7427 6.94662 46.1016 4.42564C52.4605 1.90466 59.6996 0.644165 67.8113 0.644165C75.2932 0.644165 82.0239 1.79835 88.0034 4.10671C93.9829 6.41508 98.7027 9.64983 102.163 13.811C105.623 17.9721 107.353 22.8546 107.353 28.4509C107.353 34.1155 106.253 38.96 104.052 42.9845C101.852 47.0089 98.8241 50.5246 94.9845 53.5316C91.1373 56.5385 86.7362 59.3404 81.766 61.9297C76.8033 64.5191 71.5598 67.2451 66.0356 70.1153L63.7289 67.283C67.0828 65.1873 70.5809 62.4385 74.2157 59.0443C77.8504 55.6501 80.9084 51.3978 83.3897 46.2951C85.8711 41.1848 87.1156 35.0646 87.1156 27.9269C87.1156 24.639 86.592 21.1613 85.5448 17.4861C84.4977 13.811 82.593 10.6825 79.8309 8.0932C77.0688 5.50388 73.0699 4.21303 67.8189 4.21303C62.4313 4.21303 58.1667 5.24571 55.0252 7.31109C51.8761 9.37647 49.6225 12.0721 48.2642 15.3904C46.8983 18.7162 46.2153 22.2319 46.2153 25.9375C46.2153 29.5747 47.475 34.0395 49.9943 39.3169C52.5136 44.6018 56.0041 50.6005 60.4811 57.313L125.823 156.072H153.823V160.164H104.728V160.172ZM106.61 67.7158V63.6231H156.949V67.7158H106.61Z" fill="black"/>
</svg>
