<svg width="286" height="229" viewBox="0 0 286 229" fill="none" xmlns="http://www.w3.org/2000/svg">
<path d="M115.932 195.275C106.629 195.275 98.3653 193.757 91.1262 190.712C83.8871 187.667 78.2112 183.293 74.0832 177.59C69.9552 171.888 67.8912 164.978 67.8912 156.861C67.8912 150.771 69.3254 145.304 72.1938 140.436C75.0621 135.577 78.6816 131.309 83.0524 127.634C87.4232 123.959 91.9457 120.792 96.6352 118.135C101.317 115.477 105.567 113.328 109.376 111.68C113.185 110.04 115.864 108.833 117.396 108.058L118.967 111.103C112.95 114.323 107.866 117.922 103.707 121.916C99.5491 125.903 96.3848 130.641 94.2146 136.139C92.0444 141.628 90.9669 148.227 90.9669 155.919C90.9669 160.118 91.7712 164.158 93.3799 168.038C94.9885 171.918 97.2802 175.404 100.247 178.479C103.222 181.562 106.75 183.992 110.84 185.776C114.93 187.56 119.422 188.449 124.317 188.449C132.216 188.449 139.736 186.718 146.869 183.255C154.002 179.792 160.588 175.054 166.636 169.033C172.684 163.019 178.018 156.124 182.632 148.356C187.246 140.588 191.002 132.372 193.908 123.693C196.807 115.022 198.681 106.342 199.516 97.6632H203.712C202.665 107.041 200.51 116.396 197.262 125.736C194.014 135.075 189.78 143.906 184.574 152.236C179.369 160.566 173.298 167.962 166.378 174.432C159.458 180.901 151.763 185.996 143.302 189.702C134.842 193.415 125.721 195.275 115.932 195.275ZM171.728 193.172L102.296 90.3205C99.5718 86.334 97.2802 81.9451 95.4287 77.1461C93.5772 72.3547 92.6514 68.1025 92.6514 64.3969C92.6514 58.1021 94.4726 52.6577 98.1074 48.0789C101.742 43.5002 106.743 39.9465 113.102 37.4255C119.46 34.9045 126.7 33.644 134.811 33.644C142.293 33.644 149.024 34.7982 155.003 37.1066C160.983 39.415 165.703 42.6497 169.163 46.8108C172.623 50.972 174.353 55.8545 174.353 61.4507C174.353 67.1153 173.253 71.9599 171.052 75.9843C168.852 80.0088 165.824 83.5245 161.984 86.5314C158.137 89.5384 153.736 92.3403 148.766 94.9296C143.803 97.5189 138.56 100.245 133.036 103.115L130.729 100.283C134.083 98.1872 137.581 95.4384 141.216 92.0442C144.85 88.65 147.908 84.3977 150.39 79.295C152.871 74.1847 154.116 68.0645 154.116 60.9268C154.116 57.6389 153.592 54.1612 152.545 50.486C151.498 46.8108 149.593 43.6824 146.831 41.0931C144.069 38.5038 140.07 37.2129 134.819 37.2129C129.431 37.2129 125.167 38.2456 122.025 40.311C118.876 42.3763 116.622 45.072 115.264 48.3903C113.898 51.7161 113.215 55.2318 113.215 58.9374C113.215 62.5745 114.475 67.0394 116.994 72.3168C119.514 77.6017 123.004 83.6004 127.481 90.3129L192.823 189.071H220.823V193.164H171.728V193.172ZM173.61 100.716V96.6229H223.949V100.716H173.61Z" fill="black"/>
</svg>
