<svg width="94" height="177" viewBox="0 0 94 177" fill="none" xmlns="http://www.w3.org/2000/svg">
<path d="M49.485 163.597C38.7933 163.597 29.7862 161.903 22.4788 158.517C15.1638 155.13 9.63961 151.037 5.90623 146.238C2.17286 141.439 0.298584 136.944 0.298584 132.753C0.298584 128.303 1.47474 124.552 3.82707 121.492C6.1794 118.432 9.48025 116.898 13.7296 116.898C15.7253 116.898 17.6603 117.368 19.527 118.302C21.3937 119.236 22.9568 120.656 24.2165 122.555C25.4761 124.453 26.0983 126.822 26.0983 129.662C26.0983 132.244 25.4685 134.484 24.2165 136.382C22.9568 138.288 21.333 139.754 19.3373 140.779C17.3416 141.811 15.2473 142.328 13.0543 142.328C10.9903 142.328 8.99461 142.009 7.06722 141.363C5.13224 140.718 3.5539 139.685 2.33221 138.273C1.11051 136.853 0.495872 135.015 0.495872 132.76H4.16855C4.16855 136.564 5.87589 140.612 9.29056 144.894C12.7052 149.184 17.7286 152.822 24.3606 155.821C30.9927 158.82 39.2107 160.316 48.9994 160.316C59.6911 160.316 67.6131 157.628 72.7655 152.245C77.9179 146.861 80.4978 139.404 80.4978 129.859C80.4978 124.187 79.1471 119.434 76.4382 115.599C73.7292 111.765 70.1704 108.477 65.7616 105.736C61.3529 102.994 56.5041 100.481 51.2227 98.1954C45.9414 95.9098 40.6448 93.5028 35.3255 90.9894C30.0138 88.476 25.1498 85.5298 20.7335 82.1432C16.3172 78.7565 12.7583 74.603 10.057 69.6674C7.34798 64.7393 5.99729 58.695 5.99729 51.5346C5.99729 45.7333 7.17346 40.5091 9.52579 35.8696C11.8781 31.2301 15.0955 27.2664 19.1855 23.9785C23.2755 20.6906 27.9423 18.1772 33.1933 16.4383C38.4443 14.6995 43.9988 13.8262 49.8644 13.8262C56.8228 13.8262 63.3562 15.3069 69.4798 18.2759C75.5959 21.2449 80.5585 25.0947 84.3602 29.8329C88.1619 34.5711 90.0589 39.5523 90.0589 44.7689C90.0589 48.7023 88.8676 52.1648 86.4849 55.1642C84.1022 58.1635 80.7862 59.6594 76.5292 59.6594C74.5943 59.6594 72.682 59.1962 70.7774 58.2547C68.8804 57.3207 67.3172 55.9007 66.0879 54.0024C64.8662 52.1041 64.2516 49.735 64.2516 46.8951C64.2516 43.0301 65.5568 39.9472 68.1671 37.6616C70.7774 35.376 73.7216 34.2294 77.0073 34.2294C79.132 34.2294 81.1808 34.7458 83.1461 35.7785C85.1114 36.8111 86.7201 38.1172 87.9798 39.6966C89.2394 41.276 89.8616 42.9693 89.8616 44.7765H86.189C86.189 40.0687 84.4968 35.6418 81.1125 31.4807C77.7282 27.3195 73.3043 23.9405 67.8256 21.3284C62.347 18.7163 56.4585 17.4102 50.1452 17.4102C42.9972 17.4102 37.1619 18.4733 32.6545 20.5994C28.1471 22.7256 24.8311 25.7401 22.6988 29.6431C20.5741 33.5461 19.5118 38.102 19.5118 43.3262C19.5118 48.4213 20.8473 52.7039 23.5184 56.1893C26.1894 59.667 29.7331 62.6512 34.1494 65.1342C38.5581 67.6172 43.4221 69.9711 48.7414 72.196C54.0531 74.4208 59.3496 76.7899 64.6386 79.3033C69.9199 81.8167 74.7688 84.8312 79.1775 88.3469C83.5862 91.8626 87.1299 96.1756 89.8085 101.301C92.4795 106.427 93.8151 112.729 93.8151 120.201C93.8151 129.161 92.0091 136.898 88.4047 143.406C84.7927 149.921 79.6783 154.91 73.0387 158.395C66.4294 161.858 58.5681 163.597 49.485 163.597ZM36.5396 176.262V0.287354H40.3109V176.262H36.5396ZM54.129 176.262V0.287354H57.9003V176.262H54.129Z" fill="black"/>
</svg>
