<svg width="287" height="229" viewBox="0 0 287 229" fill="none" xmlns="http://www.w3.org/2000/svg">
<path d="M143.485 189.597C132.793 189.597 123.786 187.903 116.479 184.517C109.164 181.13 103.64 177.037 99.9062 172.239C96.1729 167.44 94.2986 162.944 94.2986 158.753C94.2986 154.303 95.4747 150.552 97.8271 147.492C100.179 144.432 103.48 142.898 107.73 142.898C109.725 142.898 111.66 143.369 113.527 144.303C115.394 145.237 116.957 146.657 118.216 148.555C119.476 150.453 120.098 152.822 120.098 155.662C120.098 158.244 119.469 160.484 118.216 162.382C116.957 164.288 115.333 165.754 113.337 166.779C111.342 167.812 109.247 168.328 107.054 168.328C104.99 168.328 102.995 168.009 101.067 167.364C99.1322 166.718 97.5539 165.686 96.3322 164.273C95.1105 162.853 94.4959 161.016 94.4959 158.76H98.1685C98.1685 162.565 99.8759 166.612 103.291 170.894C106.705 175.185 111.729 178.822 118.361 181.821C124.993 184.821 133.211 186.316 142.999 186.316C153.691 186.316 161.613 183.628 166.766 178.245C171.918 172.861 174.498 165.405 174.498 155.86C174.498 150.188 173.147 145.434 170.438 141.6C167.729 137.765 164.17 134.477 159.762 131.736C155.353 128.995 150.504 126.481 145.223 124.196C139.941 121.91 134.645 119.503 129.326 116.99C124.014 114.476 119.15 111.53 114.733 108.143C110.317 104.757 106.758 100.603 104.057 95.6676C101.348 90.7396 99.9973 84.6953 99.9973 77.5348C99.9973 71.7335 101.173 66.5093 103.526 61.8698C105.878 57.2303 109.095 53.2666 113.186 49.9787C117.276 46.6908 121.942 44.1774 127.193 42.4386C132.444 40.6997 137.999 39.8265 143.864 39.8265C150.823 39.8265 157.356 41.3072 163.48 44.2761C169.596 47.2451 174.559 51.0949 178.36 55.8332C182.162 60.5714 184.059 65.5526 184.059 70.7692C184.059 74.7025 182.868 78.1651 180.485 81.1644C178.102 84.1638 174.786 85.6596 170.529 85.6596C168.594 85.6596 166.682 85.1965 164.777 84.2549C162.88 83.3209 161.317 81.9009 160.088 80.0026C158.866 78.1043 158.252 75.7352 158.252 72.8953C158.252 69.0303 159.557 65.9474 162.167 63.6619C164.777 61.3763 167.722 60.2297 171.007 60.2297C173.132 60.2297 175.181 60.746 177.146 61.7787C179.111 62.8114 180.72 64.1175 181.98 65.6969C183.239 67.2763 183.862 68.9696 183.862 70.7768H180.189C180.189 66.0689 178.497 61.642 175.112 57.4809C171.728 53.3198 167.304 49.9408 161.826 47.3287C156.347 44.7166 150.459 43.4105 144.145 43.4105C136.997 43.4105 131.162 44.4736 126.654 46.5997C122.147 48.7258 118.831 51.7404 116.699 55.6433C114.574 59.5463 113.512 64.1022 113.512 69.3264C113.512 74.4215 114.847 78.7042 117.518 82.1895C120.189 85.6672 123.733 88.6514 128.149 91.1344C132.558 93.6174 137.422 95.9714 142.741 98.1962C148.053 100.421 153.35 102.79 158.639 105.304C163.92 107.817 168.769 110.831 173.177 114.347C177.586 117.863 181.13 122.176 183.809 127.301C186.48 132.427 187.815 138.729 187.815 146.201C187.815 155.161 186.009 162.899 182.405 169.406C178.793 175.921 173.678 180.91 167.039 184.395C160.429 187.858 152.568 189.597 143.485 189.597ZM130.54 202.262V26.2876H134.311V202.262H130.54ZM148.129 202.262V26.2876H151.9V202.262H148.129Z" fill="black"/>
</svg>
