<svg width="292" height="229" viewBox="0 0 292 229" fill="none" xmlns="http://www.w3.org/2000/svg">
<path d="M97.3755 124.256C92.1928 124.256 87.3667 123.406 82.9201 121.69C78.4658 119.981 74.5807 117.415 71.2494 113.998C67.9258 110.581 65.3307 106.366 63.4716 101.362C61.6125 96.3583 60.6791 90.5874 60.6791 84.0572C60.6791 77.5269 61.6049 71.756 63.4716 66.752C65.3307 61.748 67.9258 57.5338 71.2494 54.1168C74.5731 50.6998 78.4658 48.1181 82.9201 46.3792C87.3743 44.6403 92.1928 43.7671 97.3755 43.7671C102.498 43.7671 107.286 44.6403 111.74 46.3792C116.194 48.1181 120.064 50.6998 123.365 54.1168C126.658 57.5338 129.238 61.748 131.097 66.752C132.956 71.756 133.89 77.5269 133.89 84.0572C133.89 90.5874 132.805 96.3583 130.642 101.362C128.479 106.366 125.596 110.581 121.992 113.998C118.395 117.415 114.441 119.981 110.139 121.69C105.844 123.406 101.587 124.256 97.3755 124.256ZM97.3755 120.778C100.729 120.778 103.476 119.753 105.609 117.711C107.741 115.668 109.41 112.904 110.594 109.426C111.785 105.949 112.605 102.008 113.068 97.6112C113.523 93.2147 113.751 88.6967 113.751 84.0572C113.751 79.3569 113.523 74.8237 113.068 70.4575C112.613 66.0914 111.785 62.1732 110.594 58.6879C109.403 55.2102 107.741 52.4462 105.609 50.4036C103.476 48.361 100.729 47.336 97.3755 47.336C93.9608 47.336 91.1684 48.361 89.0058 50.4036C86.8431 52.4462 85.1585 55.2102 83.9748 58.6879C82.7835 62.1656 81.9639 66.0914 81.501 70.4575C81.0458 74.8237 80.8181 79.3569 80.8181 84.0572C80.8181 88.6967 81.0458 93.2147 81.501 97.6112C81.9563 102.008 82.7835 105.941 83.9748 109.426C85.1661 112.904 86.8431 115.668 89.0058 117.711C91.1684 119.753 93.9608 120.778 97.3755 120.778ZM96.4649 182.952L190.9 45.5971H195.111L100.669 182.952H96.4649ZM194.193 184.782C189.071 184.782 184.275 183.909 179.828 182.17C175.374 180.431 171.504 177.85 168.203 174.433C164.91 171.016 162.33 166.801 160.471 161.797C158.612 156.793 157.679 151.022 157.679 144.492C157.679 137.962 158.604 132.191 160.471 127.187C162.33 122.183 164.91 117.969 168.203 114.552C171.497 111.135 175.374 108.568 179.828 106.86C184.283 105.151 189.071 104.293 194.193 104.293C199.376 104.293 204.194 105.151 208.648 106.86C213.103 108.568 216.988 111.135 220.319 114.552C223.643 117.969 226.238 122.183 228.097 127.187C229.956 132.191 230.889 137.962 230.889 144.492C230.889 151.022 229.789 156.793 227.596 161.797C225.403 166.801 222.52 171.016 218.946 174.433C215.379 177.85 211.426 180.431 207.093 182.17C202.76 183.917 198.465 184.782 194.193 184.782ZM194.193 181.213C197.608 181.213 200.4 180.188 202.563 178.146C204.725 176.103 206.41 173.339 207.594 169.861C208.785 166.384 209.604 162.443 210.067 158.046C210.523 153.65 210.75 149.132 210.75 144.492C210.75 139.792 210.523 135.259 210.067 130.893C209.612 126.526 208.785 122.608 207.594 119.123C206.402 115.645 204.725 112.881 202.563 110.839C200.4 108.796 197.608 107.771 194.193 107.771C190.839 107.771 188.092 108.796 185.96 110.839C183.82 112.881 182.158 115.645 180.974 119.123C179.783 122.601 178.963 126.526 178.501 130.893C178.045 135.259 177.818 139.792 177.818 144.492C177.818 149.132 178.045 153.65 178.501 158.046C178.956 162.443 179.783 166.376 180.974 169.861C182.166 173.339 183.827 176.103 185.96 178.146C188.092 180.196 190.839 181.213 194.193 181.213Z" fill="black"/>
</svg>
