<svg width="171" height="142" viewBox="0 0 171 142" fill="none" xmlns="http://www.w3.org/2000/svg">
<path d="M37.3755 81.2562C32.1928 81.2562 27.3667 80.4058 22.9201 78.6897C18.4658 76.9812 14.5807 74.4146 11.2494 70.9977C7.92583 67.5807 5.33068 63.3664 3.47158 58.3624C1.61248 53.3584 0.679138 47.5875 0.679138 41.0573C0.679138 34.527 1.60489 28.7561 3.47158 23.7521C5.33068 18.7481 7.92583 14.5339 11.2494 11.1169C14.5731 7.6999 18.4658 5.11818 22.9201 3.37931C27.3743 1.64044 32.1928 0.767212 37.3755 0.767212C42.4975 0.767212 47.2856 1.64044 51.7399 3.37931C56.1941 5.11818 60.0641 7.6999 63.365 11.1169C66.6582 14.5339 69.2382 18.7481 71.0973 23.7521C72.9564 28.7561 73.8897 34.527 73.8897 41.0573C73.8897 47.5875 72.8047 53.3584 70.642 58.3624C68.4794 63.3664 65.5959 67.5807 61.9915 70.9977C58.3947 74.4146 54.4413 76.9812 50.1388 78.6897C45.8439 80.4058 41.5869 81.2562 37.3755 81.2562ZM37.3755 77.7785C40.7295 77.7785 43.4764 76.7534 45.6086 74.7108C47.7409 72.6682 49.4103 69.9042 50.5941 66.4265C51.7854 62.9487 52.6049 59.0078 53.0678 54.6113C53.5231 50.2148 53.7508 45.6968 53.7508 41.0573C53.7508 36.357 53.5231 31.8238 53.0678 27.4576C52.6125 23.0915 51.7854 19.1733 50.5941 15.688C49.4027 12.2103 47.7409 9.44635 45.6086 7.40375C43.4764 5.36115 40.7295 4.33607 37.3755 4.33607C33.9608 4.33607 31.1684 5.36115 29.0058 7.40375C26.8431 9.44635 25.1585 12.2103 23.9748 15.688C22.7835 19.1658 21.9639 23.0915 21.501 27.4576C21.0458 31.8238 20.8181 36.357 20.8181 41.0573C20.8181 45.6968 21.0458 50.2148 21.501 54.6113C21.9563 59.0078 22.7835 62.9412 23.9748 66.4265C25.1661 69.9042 26.8431 72.6682 29.0058 74.7108C31.1684 76.7534 33.9608 77.7785 37.3755 77.7785ZM36.4649 139.952L130.9 2.59718H135.111L40.6688 139.952H36.4649ZM134.193 141.782C129.071 141.782 124.275 140.909 119.828 139.17C115.374 137.431 111.504 134.85 108.203 131.433C104.91 128.016 102.33 123.801 100.471 118.798C98.612 113.794 97.6786 108.023 97.6786 101.492C97.6786 94.9621 98.6044 89.1912 100.471 84.1872C102.33 79.1832 104.91 74.9689 108.203 71.552C111.497 68.135 115.374 65.5684 119.828 63.8599C124.283 62.1514 129.071 61.2934 134.193 61.2934C139.376 61.2934 144.194 62.1514 148.648 63.8599C153.103 65.5684 156.988 68.135 160.319 71.552C163.643 74.9689 166.238 79.1832 168.097 84.1872C169.956 89.1912 170.889 94.9621 170.889 101.492C170.889 108.023 169.789 113.794 167.596 118.798C165.403 123.801 162.52 128.016 158.946 131.433C155.379 134.85 151.426 137.431 147.093 139.17C142.76 140.917 138.465 141.782 134.193 141.782ZM134.193 138.214C137.608 138.214 140.4 137.188 142.563 135.146C144.725 133.103 146.41 130.339 147.594 126.862C148.785 123.384 149.604 119.443 150.067 115.046C150.523 110.65 150.75 106.132 150.75 101.492C150.75 96.7921 150.523 92.2589 150.067 87.8928C149.612 83.5266 148.785 79.6085 147.594 76.1231C146.402 72.6454 144.725 69.8815 142.563 67.8389C140.4 65.7963 137.608 64.7711 134.193 64.7711C130.839 64.7711 128.092 65.7963 125.96 67.8389C123.82 69.8815 122.158 72.6454 120.974 76.1231C119.783 79.6009 118.963 83.5266 118.501 87.8928C118.045 92.2589 117.818 96.7921 117.818 101.492C117.818 106.132 118.045 110.65 118.501 115.046C118.956 119.443 119.783 123.376 120.974 126.862C122.166 130.339 123.827 133.103 125.96 135.146C128.092 137.196 130.839 138.214 134.193 138.214Z" fill="black"/>
</svg>
