<svg width="293" height="229" viewBox="0 0 293 229" fill="none" xmlns="http://www.w3.org/2000/svg">
<path d="M89.7112 174.858L86.3193 171.464L105.328 152.321C95.9638 141.987 91.2819 129.299 91.2819 114.279C91.2819 99.2595 95.9638 86.5787 105.328 76.2366L86.1979 57.2154L89.7112 53.6997L108.72 72.8424C113.485 68.4003 119.07 64.9302 125.489 62.4244C131.909 59.9186 139.027 58.6657 146.858 58.6657C154.689 58.6657 161.814 59.9186 168.226 62.4244C174.645 64.9302 180.192 68.3624 184.874 72.7209L203.883 53.8212L207.274 57.2154L188.266 76.2366C197.546 86.4952 202.19 99.176 202.19 114.279C202.19 129.223 197.592 141.941 188.387 152.443L207.274 171.343L203.761 174.858L184.874 155.837C180.192 160.196 174.645 163.651 168.226 166.194C161.806 168.738 154.681 170.014 146.858 170.014C139.027 170.014 131.886 168.761 125.429 166.255C118.971 163.749 113.401 160.279 108.72 155.837L89.7112 174.858ZM146.858 164.683C157.193 164.683 166.048 162.345 173.431 157.652C180.815 152.967 186.49 146.809 190.444 139.177C194.397 131.546 196.378 123.247 196.378 114.279C196.378 105.311 194.397 97.0119 190.444 89.3806C186.49 81.7493 180.822 75.6064 173.431 70.9669C166.048 66.3198 157.185 64.0038 146.858 64.0038C136.522 64.0038 127.644 66.3274 120.223 70.9669C112.794 75.614 107.088 81.7493 103.089 89.3806C99.0902 97.0119 97.0944 105.311 97.0944 114.279C97.0944 123.247 99.0902 131.546 103.089 139.177C107.088 146.809 112.794 152.974 120.223 157.652C127.644 162.337 136.522 164.683 146.858 164.683Z" fill="black"/>
<ellipse cx="146.125" cy="114.4" rx="13.4838" ry="13.489" fill="black"/>
</svg>
