<svg width="122" height="122" viewBox="0 0 122 122" fill="none" xmlns="http://www.w3.org/2000/svg">
<path d="M3.71119 121.858L0.319266 118.464L19.3276 99.3214C9.96384 88.987 5.28195 76.2986 5.28195 61.279C5.28195 46.2595 9.96384 33.5787 19.3276 23.2366L0.197876 4.21536L3.71119 0.699707L22.7195 19.8424C27.4849 15.4003 33.0698 11.9302 39.4893 9.4244C45.9089 6.91861 53.0266 5.66571 60.8576 5.66571C68.6885 5.66571 75.8138 6.91861 82.2258 9.4244C88.6453 11.9302 94.1923 15.3624 98.8742 19.7209L117.883 0.821179L121.274 4.21536L102.266 23.2366C111.546 33.4952 116.19 46.176 116.19 61.279C116.19 76.2226 111.592 88.9414 102.387 99.443L121.274 118.343L117.761 121.858L98.8742 102.837C94.1923 107.196 88.6453 110.651 82.2258 113.194C75.8062 115.738 68.6809 117.014 60.8576 117.014C53.0266 117.014 45.8861 115.761 39.4286 113.255C32.9711 110.749 27.4014 107.279 22.7195 102.837L3.71119 121.858ZM60.8576 111.683C71.1926 111.683 80.048 109.345 87.4313 104.652C94.8145 99.9669 100.49 93.8087 104.444 86.1774C108.397 78.5462 110.378 70.2467 110.378 61.279C110.378 52.3113 108.397 44.0119 104.444 36.3806C100.49 28.7493 94.8221 22.6064 87.4313 17.9669C80.048 13.3198 71.185 11.0038 60.8576 11.0038C50.5225 11.0038 41.6444 13.3274 34.2232 17.9669C26.7944 22.614 21.0881 28.7493 17.0891 36.3806C13.0902 44.0119 11.0944 52.3113 11.0944 61.279C11.0944 70.2467 13.0902 78.5462 17.0891 86.1774C21.0881 93.8087 26.7944 99.9745 34.2232 104.652C41.6444 109.337 50.5225 111.683 60.8576 111.683Z" fill="black"/>
<ellipse cx="60.1255" cy="61.4001" rx="13.4838" ry="13.489" fill="black"/>
</svg>
