<svg width="188" height="52" viewBox="0 0 188 52" fill="none" xmlns="http://www.w3.org/2000/svg">
<path d="M87.4652 39.2484C77.9226 35.0382 69.9704 32.2752 63.6086 30.9594C57.5119 29.3806 51.5478 28.5911 45.7162 28.5911C38.2941 28.5911 30.4744 30.8279 22.2572 35.3013C14.0399 39.7747 6.75037 45.3007 0.388611 51.8793V21.0915C13.1121 7.14493 29.0165 0.171631 48.1018 0.171631C55.789 0.171631 63.3435 0.961062 70.7656 2.53992C78.4527 4.11878 88.393 7.53965 100.586 12.8025C110.129 17.0128 117.949 19.9074 124.045 21.4862C130.407 22.802 136.371 23.4598 141.938 23.4598C149.625 23.4598 157.577 21.2231 165.794 16.7497C174.012 12.2762 181.301 6.75022 187.663 0.171631V30.5647C174.674 44.7745 158.77 51.8793 139.95 51.8793C132.528 51.8793 124.841 51.0899 116.888 49.511C109.201 47.669 99.3935 44.2482 87.4652 39.2484Z" fill="white"/>
</svg>
