<svg width="292" height="229" viewBox="0 0 292 229" fill="none" xmlns="http://www.w3.org/2000/svg">
<path d="M291.905 0.378906H0.51947V228.178H291.905V0.378906Z" fill="black"/>
<path d="M139.465 127.249C129.923 123.038 121.97 120.275 115.609 118.96C109.512 117.381 103.548 116.591 97.7162 116.591C90.2941 116.591 82.4744 118.828 74.2572 123.302C66.0399 127.775 58.7504 133.301 52.3886 139.88V109.092C65.1121 95.1452 81.0165 88.1719 100.102 88.1719C107.789 88.1719 115.344 88.9613 122.766 90.5402C130.453 92.119 140.393 95.5399 152.586 100.803C162.129 105.013 169.949 107.908 176.045 109.486C182.407 110.802 188.371 111.46 193.938 111.46C201.625 111.46 209.577 109.223 217.794 104.75C226.012 100.276 233.301 94.7505 239.663 88.1719V118.565C226.674 132.775 210.77 139.88 191.95 139.88C184.528 139.88 176.841 139.09 168.888 137.511C161.201 135.669 151.394 132.248 139.465 127.249Z" fill="white"/>
</svg>
