<svg width="118" height="118" viewBox="0 0 118 118" fill="none" xmlns="http://www.w3.org/2000/svg">
<path d="M59.0341 0.621582C67.1307 0.621582 74.7037 2.12502 81.7606 5.13956C88.8176 8.1541 95.0247 12.338 100.39 17.7065C105.754 23.075 109.951 29.2863 112.986 36.348C116.021 43.4098 117.539 50.9879 117.539 59.0899C117.539 67.192 116.021 74.7702 112.986 81.8319C109.951 88.8937 105.754 95.105 100.39 100.473C95.0247 105.842 88.8176 110.026 81.7606 113.04C74.7037 116.055 67.1307 117.558 59.0341 117.558C50.9375 117.558 43.3646 116.055 36.3076 113.04C29.2506 110.026 23.0435 105.842 17.6786 100.473C12.3138 95.105 8.13274 88.8937 5.12024 81.8319C2.10774 74.7702 0.605286 67.192 0.605286 59.0899C0.605286 50.9879 2.10774 43.4098 5.12024 36.348C8.13274 29.2863 12.3138 23.075 17.6786 17.7065C23.0435 12.338 29.2506 8.1541 36.3076 5.13956C43.3646 2.13261 50.9375 0.621582 59.0341 0.621582ZM59.0341 114.597C66.7209 114.597 73.9069 113.154 80.5845 110.269C87.2621 107.383 93.1429 103.397 98.227 98.3094C103.311 93.2218 107.28 87.337 110.14 80.6549C113.001 73.9728 114.428 66.782 114.428 59.0899C114.428 51.3979 113.001 44.2071 110.14 37.525C107.28 30.8429 103.311 24.9581 98.227 19.8706C93.1429 14.7831 87.2621 10.7966 80.5845 7.91113C73.9069 5.02568 66.7209 3.58294 59.0341 3.58294C51.3473 3.58294 44.1613 5.02568 37.4837 7.91113C30.8062 10.7966 24.9253 14.7831 19.8413 19.8706C14.7572 24.9581 10.7886 30.8429 7.92786 37.525C5.06712 44.2071 3.64055 51.3979 3.64055 59.0899C3.64055 66.782 5.06712 73.9728 7.92786 80.6549C10.7886 87.337 14.7572 93.2218 19.8413 98.3094C24.9253 103.397 30.8062 107.383 37.4837 110.269C44.1613 113.154 51.3473 114.597 59.0341 114.597ZM60.4 92.0449C64.3458 92.0449 67.8212 91.2628 70.8337 89.691C73.8462 88.1192 76.2061 86.0234 77.9286 83.3885C79.6511 80.7536 80.5845 77.8226 80.7362 74.5803H82.5574V93.2598H80.9639L76.6386 87.8686C74.5671 89.8428 72.0478 91.3842 69.0884 92.5005C66.129 93.6167 62.9268 94.171 59.4894 94.171C53.3202 94.171 47.9023 92.6524 43.2507 89.6151C38.5992 86.5777 34.9797 82.4242 32.3997 77.162C29.8197 71.8999 28.5297 65.8708 28.5297 59.0899C28.5297 52.3091 29.8197 46.2801 32.3997 41.0179C34.9797 35.7558 38.5992 31.6022 43.2507 28.5649C47.9023 25.5276 53.3202 24.0089 59.4894 24.0089C62.4715 24.0089 65.3475 24.5404 68.102 25.6035C70.8565 26.6666 73.2771 28.1093 75.3486 29.9317L80.0533 24.9201H81.6468V43.5997H79.8257C79.6739 40.0536 78.6723 36.9783 76.8283 34.3738C74.9844 31.7693 72.6017 29.7418 69.6955 28.2991C66.7892 26.8564 63.6857 26.135 60.4 26.135C56.401 26.135 53.0395 27.0615 50.3077 28.9066C47.576 30.7518 45.3906 33.25 43.744 36.3861C42.0973 39.5221 40.8984 43.0529 40.1396 46.9787C39.3808 50.9044 39.0014 54.9364 39.0014 59.0899C39.0014 63.2435 39.3808 67.2756 40.1396 71.2013C40.8984 75.127 42.0973 78.6579 43.744 81.7939C45.3906 84.93 47.576 87.4281 50.3077 89.2733C53.0395 91.1261 56.401 92.0449 60.4 92.0449Z" fill="black"/>
</svg>
