<svg width="287" height="228" viewBox="0 0 287 228" fill="none" xmlns="http://www.w3.org/2000/svg">
<path d="M141.034 55.6216C149.131 55.6216 156.704 57.125 163.761 60.1396C170.818 63.1541 177.025 67.338 182.39 72.7065C187.754 78.075 191.951 84.2863 194.986 91.348C198.021 98.4098 199.539 105.988 199.539 114.09C199.539 122.192 198.021 129.77 194.986 136.832C191.951 143.894 187.754 150.105 182.39 155.473C177.025 160.842 170.818 165.026 163.761 168.04C156.704 171.055 149.131 172.558 141.034 172.558C132.938 172.558 125.365 171.055 118.308 168.04C111.251 165.026 105.043 160.842 99.6786 155.473C94.3138 150.105 90.1327 143.894 87.1202 136.832C84.1077 129.77 82.6053 122.192 82.6053 114.09C82.6053 105.988 84.1077 98.4098 87.1202 91.348C90.1327 84.2863 94.3138 78.075 99.6786 72.7065C105.043 67.338 111.251 63.1541 118.308 60.1396C125.365 57.1326 132.938 55.6216 141.034 55.6216ZM141.034 169.597C148.721 169.597 155.907 168.154 162.584 165.269C169.262 162.383 175.143 158.397 180.227 153.309C185.311 148.222 189.28 142.337 192.14 135.655C195.001 128.973 196.428 121.782 196.428 114.09C196.428 106.398 195.001 99.2071 192.14 92.525C189.28 85.8429 185.311 79.9581 180.227 74.8706C175.143 69.7831 169.262 65.7966 162.584 62.9111C155.907 60.0257 148.721 58.5829 141.034 58.5829C133.347 58.5829 126.161 60.0257 119.484 62.9111C112.806 65.7966 106.925 69.7831 101.841 74.8706C96.7572 79.9581 92.7886 85.8429 89.9279 92.525C87.0671 99.2071 85.6405 106.398 85.6405 114.09C85.6405 121.782 87.0671 128.973 89.9279 135.655C92.7886 142.337 96.7572 148.222 101.841 153.309C106.925 158.397 112.806 162.383 119.484 165.269C126.161 168.154 133.347 169.597 141.034 169.597ZM142.4 147.045C146.346 147.045 149.821 146.263 152.834 144.691C155.846 143.119 158.206 141.023 159.929 138.389C161.651 135.754 162.584 132.823 162.736 129.58H164.557V148.26H162.964L158.639 142.869C156.567 144.843 154.048 146.384 151.088 147.5C148.129 148.617 144.927 149.171 141.489 149.171C135.32 149.171 129.902 147.652 125.251 144.615C120.599 141.578 116.98 137.424 114.4 132.162C111.82 126.9 110.53 120.871 110.53 114.09C110.53 107.309 111.82 101.28 114.4 96.0179C116.98 90.7558 120.599 86.6022 125.251 83.5649C129.902 80.5276 135.32 79.0089 141.489 79.0089C144.472 79.0089 147.347 79.5404 150.102 80.6035C152.856 81.6666 155.277 83.1093 157.349 84.9317L162.053 79.9201H163.647V98.5997H161.826C161.674 95.0536 160.672 91.9783 158.828 89.3738C156.984 86.7693 154.602 84.7418 151.695 83.2991C148.789 81.8564 145.686 81.135 142.4 81.135C138.401 81.135 135.039 82.0615 132.308 83.9066C129.576 85.7518 127.391 88.25 125.744 91.3861C124.097 94.5221 122.898 98.0529 122.14 101.979C121.381 105.904 121.001 109.936 121.001 114.09C121.001 118.243 121.381 122.276 122.14 126.201C122.898 130.127 124.097 133.658 125.744 136.794C127.391 139.93 129.576 142.428 132.308 144.273C135.039 146.126 138.401 147.045 142.4 147.045Z" fill="black"/>
</svg>
