<svg width="292" height="228" viewBox="0 0 292 228" fill="none" xmlns="http://www.w3.org/2000/svg">
<path d="M84.6349 109.944V105.745H176.77V109.944H84.6349ZM96.4952 192.832C95.6757 187.168 96.0324 181.966 97.5652 177.228C99.098 172.49 101.192 168.124 103.856 164.13C106.512 160.135 109.274 156.475 112.134 153.127C114.995 149.786 117.416 146.65 119.396 143.711C121.369 140.78 122.363 138.016 122.363 135.419C122.363 129.55 121.529 124.249 119.859 119.511C118.19 114.773 116.262 110.202 114.085 105.798C111.899 101.394 109.979 96.8301 108.31 92.0843C106.641 87.3461 105.806 82.0384 105.806 76.1763C105.806 66.624 108.052 58.6814 112.552 52.3334C117.052 45.9854 123.373 41.2168 131.522 38.0048C139.664 34.8004 149.225 33.1982 160.205 33.1982C168.522 33.1982 175.632 34.155 181.528 36.0609C187.424 37.9744 192.25 40.5334 195.999 43.7377C199.747 46.9421 202.509 50.5414 204.285 54.5354C206.053 58.5295 206.941 62.6375 206.941 66.867C206.941 69.6613 206.341 72 205.15 73.8756C203.959 75.7511 202.441 77.1483 200.597 78.0747C198.753 78.9935 196.78 79.4566 194.663 79.4566C192.956 79.4566 191.218 79.0618 189.45 78.2797C187.675 77.4976 186.18 76.2675 184.95 74.5969C183.721 72.9264 183.107 70.7243 183.107 67.9983C183.107 65.6141 183.653 63.579 184.746 61.9085C185.838 60.238 187.265 58.9623 189.04 58.0739C190.808 57.1855 192.683 56.7451 194.663 56.7451C196.636 56.7451 198.548 57.1551 200.392 57.9752C202.236 58.7953 203.746 59.9722 204.945 61.5061C206.137 63.0399 206.736 64.832 206.736 66.8746H203.056C203.056 62.9184 202.236 59.1522 200.605 55.5681C198.966 51.9841 196.477 48.7797 193.138 45.9474C189.799 43.1151 185.573 40.8827 180.458 39.2425C175.344 37.6024 169.311 36.7899 162.361 36.7899C155.273 36.7899 149.506 38.0048 145.082 40.4195C140.651 42.8417 137.221 45.9626 134.808 49.782C132.387 53.6015 130.733 57.6639 129.845 61.9617C128.957 66.2595 128.517 70.3219 128.517 74.1413C128.517 79.1908 129.094 83.8835 130.255 88.2117C131.416 92.5475 132.744 96.6403 134.246 100.49C135.741 104.348 137.077 108.129 138.23 111.85C139.391 115.57 139.968 119.337 139.968 123.156C139.968 129.299 138.959 134.546 136.948 138.912C134.937 143.278 132.349 147.136 129.177 150.477C126.006 153.818 122.682 156.939 119.207 159.839C115.731 162.74 112.491 165.724 109.494 168.792C106.496 171.859 104.129 175.307 102.384 179.126C100.646 182.946 99.9782 187.517 100.388 192.84H96.4952V192.832ZM169.918 194.981C162.968 194.981 157.034 194.351 152.124 193.09C147.215 191.83 142.935 190.38 139.292 188.739C135.65 187.099 132.304 185.657 129.269 184.388C126.233 183.128 123.115 182.498 119.912 182.498C117.12 182.498 114.358 182.923 111.626 183.773C108.902 184.624 106.527 185.824 104.516 187.357C102.505 188.891 101.154 190.714 100.479 192.832H98.3316C99.356 189.013 100.631 185.634 102.164 182.703C103.696 179.772 105.593 177.281 107.84 175.231C110.086 173.181 112.779 171.632 115.921 170.576C119.055 169.521 122.735 168.989 126.962 168.989C132.076 168.989 136.538 169.331 140.355 170.014C144.172 170.698 147.7 171.495 150.94 172.421C154.18 173.34 157.398 174.145 160.6 174.828C163.802 175.512 167.346 175.854 171.231 175.854C174.433 175.854 177.757 175.633 181.202 175.185C184.647 174.745 187.849 173.857 190.816 172.528C193.783 171.199 196.181 169.255 198.025 166.696C199.869 164.137 200.787 160.781 200.787 156.62H204.778C204.778 166.514 203.139 174.236 199.869 179.794C196.598 185.353 192.303 189.279 186.984 191.564C181.68 193.835 175.981 194.981 169.918 194.981Z" fill="black"/>
</svg>
