<svg width="123" height="162" viewBox="0 0 123 162" fill="none" xmlns="http://www.w3.org/2000/svg">
<path d="M0.634949 76.944V72.7449H92.7704V76.944H0.634949ZM12.4952 159.832C11.6757 154.168 12.0324 148.966 13.5652 144.228C15.098 139.49 17.1923 135.124 19.8558 131.13C22.5116 127.136 25.2737 123.476 28.1345 120.127C30.9952 116.786 33.4158 113.65 35.3963 110.711C37.3693 107.78 38.3633 105.016 38.3633 102.42C38.3633 96.5499 37.5286 91.2497 35.8592 86.5115C34.1898 81.7733 32.2624 77.2022 30.0846 72.7981C27.8992 68.3939 25.9794 63.8303 24.31 59.0845C22.6406 54.3463 21.8059 49.0386 21.8059 43.1766C21.8059 33.6242 24.052 25.6816 28.5518 19.3336C33.0516 12.9856 39.3725 8.21702 47.5222 5.00506C55.6643 1.80069 65.2254 0.198486 76.2054 0.198486C84.5221 0.198486 91.6322 1.15526 97.5282 3.06118C103.424 4.97469 108.25 7.53362 111.999 10.738C115.747 13.9424 118.509 17.5416 120.285 21.5357C122.053 25.5298 122.941 29.6377 122.941 33.8672C122.941 36.6615 122.341 39.0003 121.15 40.8758C119.959 42.7513 118.441 44.1485 116.597 45.0749C114.753 45.9937 112.78 46.4569 110.663 46.4569C108.956 46.4569 107.218 46.062 105.45 45.2799C103.675 44.4978 102.18 43.2677 100.95 41.5972C99.7211 39.9266 99.1065 37.7246 99.1065 34.9986C99.1065 32.6143 99.6529 30.5793 100.746 28.9088C101.838 27.2382 103.265 25.9626 105.04 25.0741C106.808 24.1857 108.683 23.7453 110.663 23.7453C112.636 23.7453 114.548 24.1554 116.392 24.9754C118.236 25.7955 119.746 26.9725 120.945 28.5063C122.137 30.0402 122.736 31.8322 122.736 33.8748H119.056C119.056 29.9187 118.236 26.1524 116.605 22.5684C114.966 18.9843 112.477 15.7799 109.138 12.9476C105.799 10.1153 101.573 7.88292 96.4582 6.24277C91.3438 4.60262 85.3113 3.7901 78.3605 3.7901C71.2732 3.7901 65.5061 5.00505 61.0822 7.41972C56.6508 9.84198 53.2209 12.9628 50.8079 16.7823C48.3873 20.6017 46.733 24.6641 45.8452 28.9619C44.9574 33.2597 44.5173 37.3221 44.5173 41.1415C44.5173 46.1911 45.094 50.8838 46.255 55.212C47.416 59.5477 48.7439 63.6405 50.2464 67.4903C51.7412 71.3477 53.0768 75.1292 54.2302 78.8499C55.3911 82.5706 55.9678 86.3369 55.9678 90.1563C55.9678 96.2993 54.9586 101.546 52.9478 105.912C50.9369 110.279 48.3493 114.136 45.1774 117.477C42.0056 120.818 38.682 123.939 35.2066 126.84C31.7313 129.74 28.4911 132.724 25.4937 135.792C22.4964 138.86 20.1289 142.307 18.3836 146.127C16.646 149.946 15.9782 154.517 16.388 159.84H12.4952V159.832ZM85.9183 161.981C78.9675 161.981 73.0336 161.351 68.1241 160.091C63.2145 158.83 58.9348 157.38 55.2925 155.74C51.6502 154.1 48.3038 152.657 45.2685 151.389C42.2333 150.128 39.1145 149.498 35.9123 149.498C33.1199 149.498 30.3578 149.923 27.6261 150.774C24.9019 151.624 22.5268 152.824 20.5159 154.358C18.5051 155.891 17.1544 157.714 16.4791 159.832H14.3316C15.356 156.013 16.6308 152.634 18.1636 149.703C19.6964 146.772 21.5934 144.281 23.8395 142.231C26.0856 140.181 28.7794 138.632 31.9209 137.576C35.0549 136.521 38.7351 135.989 42.9617 135.989C48.0761 135.989 52.538 136.331 56.3548 137.015C60.1717 137.698 63.7002 138.495 66.9403 139.422C70.1805 140.34 73.3978 141.145 76.6 141.829C79.8022 142.512 83.3459 142.854 87.2311 142.854C90.4333 142.854 93.7569 142.634 97.2019 142.186C100.647 141.745 103.849 140.857 106.816 139.528C109.783 138.199 112.181 136.255 114.025 133.696C115.869 131.137 116.787 127.781 116.787 123.62H120.778C120.778 133.514 119.139 141.236 115.869 146.795C112.598 152.353 108.303 156.279 102.984 158.564C97.68 160.835 91.9812 161.981 85.9183 161.981Z" fill="black"/>
</svg>
