<svg width="175" height="195" viewBox="0 0 175 195" fill="none" xmlns="http://www.w3.org/2000/svg">
<path d="M70.954 194.018C62.1441 194.018 53.5544 192.568 45.1922 189.675C36.8301 186.782 29.2874 182.127 22.5719 175.726C15.8488 169.325 10.5143 160.874 6.55327 150.387C2.59984 139.901 0.619324 127.091 0.619324 111.965C0.619324 99.8691 2.34187 88.2665 5.77931 77.1651C9.21675 66.0637 14.0731 55.8431 20.3485 46.5109C26.6164 37.1788 34.0149 29.0388 42.5364 22.0909C51.0579 15.143 60.4292 9.75179 70.6581 5.91717C80.8869 2.09015 91.6545 0.176636 102.976 0.176636C115.193 0.176636 125.794 2.39385 134.763 6.83593C143.732 11.278 151.146 17.1628 156.996 24.5056C162.847 31.8407 167.202 39.9352 170.071 48.7814C172.931 57.6276 174.365 66.4661 174.365 75.282C174.365 83.0044 173.258 90.666 171.034 98.2593C168.819 105.853 165.548 112.755 161.246 118.966C156.935 125.178 151.616 130.151 145.28 133.88C138.944 137.615 131.659 139.476 123.426 139.476C119.116 139.476 115.55 138.64 112.719 136.962C109.889 135.292 107.719 133.082 106.209 130.349C104.699 127.615 103.765 124.638 103.409 121.419C103.052 118.199 103.234 115.109 103.94 112.147L117.834 52.297H135.195L121.21 112.147C121.021 113.112 120.679 114.517 120.194 116.347C119.708 118.176 119.344 120.158 119.086 122.285C118.828 124.411 118.843 126.453 119.131 128.412C119.42 130.379 120.239 131.981 121.59 133.242C122.941 134.495 124.997 135.125 127.767 135.125C134.065 135.125 139.839 133.454 145.083 130.106C150.326 126.757 154.841 122.239 158.635 116.544C162.429 110.849 165.373 104.448 167.46 97.3329C169.547 90.2256 170.594 82.8677 170.594 75.2744C170.594 66.7775 169.259 58.3337 166.588 49.9355C163.917 41.5373 159.819 33.8605 154.287 26.9126C148.755 19.9648 141.729 14.3989 133.207 10.215C124.686 6.03105 114.571 3.94288 102.87 3.94288C92.0642 3.94288 81.7595 5.81083 71.948 9.53914C62.1365 13.275 53.137 18.4841 44.9342 25.1814C36.7314 31.8787 29.6137 39.7453 23.566 48.7814C17.5182 57.825 12.8439 67.7039 9.52786 78.418C6.21184 89.1322 4.55758 100.317 4.55758 111.965C4.55758 126.446 6.42426 138.678 10.1501 148.648C13.8834 158.626 18.9144 166.667 25.2505 172.78C31.5866 178.893 38.7119 183.335 46.6188 186.106C54.5332 188.87 62.6374 190.26 70.9312 190.26C81.2208 190.26 90.4632 189.265 98.666 187.268C106.869 185.271 114.244 182.249 120.808 178.194C127.364 174.139 133.443 168.961 139.043 162.651L141.554 165.065C133.45 174.526 123.593 181.717 111.983 186.638C100.388 191.551 86.707 194.018 70.954 194.018ZM73.8451 139.089C68.761 139.089 64.0184 137.912 59.6173 135.565C55.2085 133.219 51.6573 129.756 48.9559 125.185C46.2545 120.614 44.9039 114.987 44.9039 108.29C44.9039 101.016 46.1559 93.9539 48.6676 87.0972C51.1717 80.2404 54.5636 74.0671 58.8433 68.5619C63.123 63.0568 67.9567 58.6678 73.3595 55.3875C78.7622 52.1072 84.3243 50.4671 90.0458 50.4671C94.1586 50.4671 97.6036 51.5149 100.366 53.6031C103.128 55.6988 105.351 58.4324 107.021 61.8115C108.69 65.1905 109.896 68.8884 110.64 72.9129C111.376 76.9373 111.748 80.9389 111.748 84.933C111.748 92.2682 110.739 99.2085 108.713 105.739C106.687 112.269 103.887 118.047 100.32 123.067C96.7537 128.086 92.7017 132.012 88.1639 134.844C83.6414 137.669 78.8608 139.089 73.8451 139.089ZM77.7075 134.449C81.3118 134.449 84.9238 133.143 88.5585 130.538C92.1933 127.934 95.5017 124.358 98.4914 119.824C101.481 115.284 103.894 110.105 105.731 104.281C107.567 98.4568 108.477 92.3593 108.477 85.9885C108.477 83.9307 108.303 81.2123 107.946 77.8333C107.59 74.4543 106.869 71.0297 105.776 67.552C104.683 64.0743 103.06 61.1508 100.904 58.7665C98.7494 56.3898 95.8432 55.1977 92.1705 55.1977C88.6344 55.1977 85.1894 56.8075 81.8506 60.0271C78.5042 63.2466 75.5297 67.4913 72.9269 72.7686C70.3242 78.046 68.245 83.7941 66.7046 89.9978C65.1642 96.2091 64.3903 102.307 64.3903 108.29C64.3903 112.603 64.7772 116.757 65.5512 120.743C66.3252 124.737 67.6759 128.017 69.6033 130.592C71.5307 133.166 74.2321 134.449 77.7075 134.449Z" fill="black"/>
</svg>
