<svg width="293" height="228" viewBox="0 0 293 228" fill="none" xmlns="http://www.w3.org/2000/svg">
<path d="M129.954 211.019C121.144 211.019 112.554 209.568 104.192 206.675C95.8301 203.782 88.2874 199.127 81.5719 192.726C74.8488 186.325 69.5143 177.874 65.5533 167.387C61.5998 156.901 59.6193 144.091 59.6193 128.965C59.6193 116.869 61.3419 105.267 64.7793 94.1652C68.2167 83.0638 73.0731 72.8432 79.3485 63.5111C85.6164 54.1789 93.0149 46.0389 101.536 39.091C110.058 32.1431 119.429 26.7519 129.658 22.9173C139.887 19.0903 150.654 17.1768 161.976 17.1768C174.193 17.1768 184.794 19.394 193.763 23.8361C202.732 28.2781 210.146 34.163 215.996 41.5057C221.847 48.8408 226.202 56.9353 229.071 65.7815C231.931 74.6277 233.365 83.4663 233.365 92.2821C233.365 100.004 232.258 107.666 230.034 115.259C227.819 122.853 224.548 129.755 220.246 135.966C215.935 142.178 210.616 147.151 204.28 150.88C197.944 154.616 190.659 156.476 182.426 156.476C178.116 156.476 174.55 155.641 171.719 153.962C168.889 152.292 166.719 150.082 165.209 147.349C163.699 144.615 162.765 141.639 162.409 138.419C162.052 135.199 162.234 132.109 162.94 129.148L176.834 69.2971H194.195L180.21 129.148C180.021 130.112 179.679 131.517 179.194 133.347C178.708 135.177 178.344 137.159 178.086 139.285C177.828 141.411 177.843 143.453 178.131 145.412C178.42 147.379 179.239 148.981 180.59 150.242C181.941 151.495 183.997 152.125 186.767 152.125C193.065 152.125 198.839 150.454 204.083 147.106C209.326 143.757 213.841 139.239 217.635 133.544C221.429 127.849 224.373 121.448 226.46 114.333C228.547 107.226 229.594 99.8678 229.594 92.2745C229.594 83.7776 228.259 75.3338 225.588 66.9356C222.917 58.5374 218.819 50.8606 213.287 43.9127C207.755 36.9649 200.729 31.399 192.207 27.2151C183.686 23.0312 173.571 20.943 161.87 20.943C151.064 20.943 140.76 22.811 130.948 26.5393C121.137 30.2752 112.137 35.4842 103.934 42.1815C95.7314 48.8788 88.6137 56.7455 82.566 65.7815C76.5182 74.8251 71.8439 84.704 68.5279 95.4181C65.2118 106.132 63.5576 117.317 63.5576 128.965C63.5576 143.446 65.4243 155.679 69.1501 165.649C72.8834 175.626 77.9144 183.667 84.2505 189.78C90.5866 195.893 97.7119 200.335 105.619 203.106C113.533 205.87 121.637 207.26 129.931 207.26C140.221 207.26 149.463 206.265 157.666 204.268C165.869 202.271 173.244 199.249 179.808 195.194C186.364 191.139 192.443 185.961 198.043 179.651L200.554 182.065C192.45 191.527 182.593 198.717 170.983 203.638C159.388 208.551 145.707 211.019 129.954 211.019ZM132.845 156.089C127.761 156.089 123.018 154.912 118.617 152.565C114.209 150.219 110.657 146.756 107.956 142.185C105.255 137.614 103.904 131.987 103.904 125.29C103.904 118.016 105.156 110.954 107.668 104.097C110.172 97.2406 113.564 91.0672 117.843 85.562C122.123 80.0569 126.957 75.6679 132.359 72.3876C137.762 69.1073 143.324 67.4672 149.046 67.4672C153.159 67.4672 156.604 68.5151 159.366 70.6032C162.128 72.699 164.351 75.4326 166.021 78.8116C167.69 82.1906 168.896 85.8885 169.64 89.913C170.376 93.9374 170.748 97.9391 170.748 101.933C170.748 109.268 169.739 116.209 167.713 122.739C165.687 129.269 162.887 135.048 159.32 140.067C155.754 145.086 151.702 149.012 147.164 151.844C142.641 154.669 137.861 156.089 132.845 156.089ZM136.707 151.449C140.312 151.449 143.924 150.143 147.559 147.539C151.193 144.934 154.502 141.358 157.491 136.824C160.481 132.284 162.894 127.105 164.731 121.281C166.567 115.457 167.477 109.359 167.477 102.989C167.477 100.931 167.303 98.2124 166.946 94.8334C166.59 91.4544 165.869 88.0298 164.776 84.5521C163.683 81.0744 162.06 78.151 159.904 75.7667C157.749 73.39 154.843 72.1978 151.171 72.1978C147.634 72.1978 144.189 73.8076 140.851 77.0272C137.504 80.2467 134.53 84.4914 131.927 89.7688C129.324 95.0461 127.245 100.794 125.705 106.998C124.164 113.209 123.39 119.307 123.39 125.29C123.39 129.603 123.777 133.757 124.551 137.743C125.325 141.737 126.676 145.018 128.603 147.592C130.531 150.166 133.232 151.449 136.707 151.449Z" fill="black"/>
</svg>
