<svg width="292" height="228" viewBox="0 0 292 228" fill="none" xmlns="http://www.w3.org/2000/svg">
<path d="M146.576 123.787V119.55C152.146 118.904 157.253 117.006 161.889 113.855C166.533 110.703 170.548 106.724 173.939 101.918C177.331 97.1114 179.949 91.8795 181.808 86.2301C183.667 80.5807 184.593 74.9237 184.593 69.2667C184.593 61.6734 182.855 54.6495 179.388 48.1876C175.92 41.7257 170.995 36.5168 164.614 32.5606C158.239 28.6045 150.651 26.6227 141.849 26.6227C135.392 26.6227 129.359 27.792 123.751 30.1384C118.144 32.4847 113.135 35.5752 108.742 39.4098C104.341 43.2444 100.706 47.4891 97.8453 52.1286C94.977 56.7757 93.0192 61.4 91.9721 66.0015C92.6171 64.6272 93.687 63.6173 95.1818 62.9718C96.6767 62.3264 98.0654 61.9999 99.3629 61.9999C101.784 61.9999 104.045 62.5238 106.139 63.5717C108.233 64.6196 109.933 66.1382 111.223 68.1125C112.513 70.0943 113.158 72.4938 113.158 75.3186C113.158 78.5533 112.43 81.1578 110.98 83.132C109.523 85.1139 107.733 86.5642 105.593 87.4906C103.453 88.417 101.374 88.8878 99.3553 88.8878C95.6447 88.8878 92.4349 87.6121 89.7259 85.0683C87.0169 82.5246 85.6663 78.7887 85.6663 73.8606C85.6663 68.2871 87.0398 62.4327 89.7867 56.2897C92.5336 50.1543 96.5629 44.3758 101.897 38.9618C107.224 33.5478 113.72 29.1664 121.391 25.8178C129.055 22.4691 137.774 20.791 147.548 20.791C156.669 20.791 164.879 21.9603 172.186 24.3067C179.494 26.653 185.724 30.0244 190.891 34.421C196.059 38.8251 199.989 44.1556 202.698 50.4125C205.4 56.6694 206.751 63.7615 206.751 71.6737C206.751 77.4902 205.658 83.003 203.48 88.212C201.302 93.421 198.275 98.2048 194.397 102.571C190.52 106.929 186.043 110.688 180.958 113.839C175.874 116.991 170.403 119.436 164.553 121.167C158.702 122.913 152.708 123.787 146.576 123.787ZM141.007 207.381C138.343 207.381 135.9 206.736 133.684 205.445C131.461 204.154 129.708 202.4 128.418 200.175C127.128 197.958 126.483 195.513 126.483 192.848C126.483 190.183 127.128 187.737 128.418 185.52C129.708 183.303 131.461 181.519 133.684 180.19C135.9 178.861 138.343 178.193 141.007 178.193C143.67 178.193 146.114 178.861 148.329 180.19C150.545 181.526 152.306 183.303 153.595 185.52C154.885 187.745 155.531 190.183 155.531 192.848C155.531 195.513 154.885 197.958 153.595 200.175C152.306 202.4 150.545 204.154 148.329 205.445C146.114 206.736 143.67 207.381 141.007 207.381ZM138.222 154.562C138.222 148.829 137.592 142.246 136.348 134.812C135.096 127.378 133.722 119.587 132.227 111.425C130.732 103.269 129.541 95.3497 128.653 87.6804C128.57 86.792 128.509 85.9871 128.471 85.2582C128.433 84.5292 128.41 83.8003 128.41 83.0789C128.41 80.7402 128.813 78.1508 129.625 75.3261C130.429 72.5014 131.886 70.0564 133.98 67.9986C136.074 65.9408 139.026 64.9081 142.82 64.9081C146.614 64.9081 149.581 65.9408 151.721 67.9986C153.861 70.0564 155.356 72.5014 156.198 75.3261C157.048 78.1508 157.473 80.7402 157.473 83.0789C157.473 83.8078 157.473 84.5368 157.473 85.2582C157.473 85.9871 157.39 86.792 157.23 87.6804C156.585 93.4969 155.493 99.4349 153.96 105.494C152.427 111.554 150.811 117.53 149.118 123.43C147.426 129.33 145.969 134.918 144.763 140.211C143.549 145.503 142.949 150.287 142.949 154.57H138.222V154.562Z" fill="black"/>
</svg>
