<svg width="122" height="188" viewBox="0 0 122 188" fill="none" xmlns="http://www.w3.org/2000/svg">
<path d="M61.5765 103.787V99.5496C67.1462 98.9041 72.253 97.0058 76.8894 93.8546C81.5334 90.7034 85.5475 86.7245 88.9394 81.9179C92.3313 77.1114 94.9492 71.8795 96.8083 66.2301C98.6674 60.5807 99.5931 54.9237 99.5931 49.2667C99.5931 41.6734 97.8554 34.6495 94.3877 28.1876C90.9199 21.7257 85.9952 16.5168 79.6135 12.5606C73.2395 8.60453 65.6513 6.62267 56.849 6.62267C50.3915 6.62267 44.3589 7.79204 38.7513 10.1384C33.1436 12.4847 28.1354 15.5752 23.7419 19.4098C19.3408 23.2444 15.706 27.4891 12.8453 32.1286C9.97697 36.7757 8.01923 41.4 6.97207 46.0015C7.61706 44.6272 8.68698 43.6173 10.1818 42.9718C11.6767 42.3264 13.0654 41.9999 14.3629 41.9999C16.7836 41.9999 19.0448 42.5238 21.1391 43.5717C23.2334 44.6196 24.9332 46.1382 26.2232 48.1125C27.5132 50.0943 28.1582 52.4938 28.1582 55.3186C28.1582 58.5533 27.4297 61.1578 25.9804 63.132C24.5234 65.1139 22.7326 66.5642 20.5928 67.4906C18.4529 68.417 16.3738 68.8878 14.3553 68.8878C10.6447 68.8878 7.43488 67.6121 4.72591 65.0683C2.01693 62.5246 0.66626 58.7887 0.66626 53.8606C0.66626 48.2871 2.03976 42.4327 4.78667 36.2897C7.53359 30.1543 11.5629 24.3758 16.8973 18.9618C22.2242 13.5478 28.7198 9.16643 36.3914 5.81778C44.0554 2.46913 52.7742 0.791016 62.5478 0.791016C71.6687 0.791016 79.8791 1.96034 87.1865 4.30667C94.4939 6.65301 100.724 10.0244 105.891 14.421C111.059 18.8251 114.989 24.1556 117.698 30.4125C120.4 36.6694 121.751 43.7615 121.751 51.6737C121.751 57.4902 120.658 63.003 118.48 68.212C116.302 73.421 113.275 78.2048 109.397 82.5709C105.52 86.9295 101.043 90.6882 95.9585 93.8394C90.8744 96.9906 85.4033 99.4357 79.5529 101.167C73.7024 102.913 67.7077 103.787 61.5765 103.787ZM56.0068 187.381C53.3433 187.381 50.8999 186.736 48.6842 185.445C46.4608 184.154 44.7079 182.4 43.4179 180.175C42.1279 177.958 41.483 175.513 41.483 172.848C41.483 170.183 42.1279 167.737 43.4179 165.52C44.7079 163.303 46.4608 161.519 48.6842 160.19C50.8999 158.861 53.3433 158.193 56.0068 158.193C58.6702 158.193 61.1136 158.861 63.3294 160.19C65.5451 161.526 67.3055 163.303 68.5955 165.52C69.8855 167.745 70.5305 170.183 70.5305 172.848C70.5305 175.513 69.8855 177.958 68.5955 180.175C67.3055 182.4 65.5451 184.154 63.3294 185.445C61.1136 186.736 58.6702 187.381 56.0068 187.381ZM53.2219 134.562C53.2219 128.829 52.5921 122.246 51.3476 114.812C50.0956 107.378 48.7221 99.5875 47.2272 91.4247C45.7323 83.2695 44.541 75.3497 43.6532 67.6804C43.5697 66.792 43.509 65.9871 43.4711 65.2582C43.4332 64.5292 43.4104 63.8003 43.4104 63.0789C43.4104 60.7402 43.8126 58.1508 44.6245 55.3261C45.4289 52.5014 46.8858 50.0564 48.9801 47.9986C51.0745 45.9408 54.0263 44.9081 57.8203 44.9081C61.6144 44.9081 64.5814 45.9408 66.7212 47.9986C68.8611 50.0564 70.356 52.5014 71.1983 55.3261C72.0482 58.1508 72.473 60.7402 72.473 63.0789C72.473 63.8078 72.473 64.5368 72.473 65.2582C72.473 65.9871 72.3896 66.792 72.2303 67.6804C71.5853 73.4969 70.4925 79.4349 68.9597 85.4943C67.4269 91.5538 65.8106 97.5297 64.1185 103.43C62.4263 109.33 60.9694 114.918 59.7629 120.211C58.5488 125.503 57.9493 130.287 57.9493 134.57H53.2219V134.562Z" fill="black"/>
</svg>
