<svg width="286" height="228" viewBox="0 0 286 228" fill="none" xmlns="http://www.w3.org/2000/svg">
<path d="M123.71 198.543C113.215 198.543 104.838 195.854 98.5855 190.486C92.3329 185.118 89.199 177.828 89.199 168.617C89.199 157.797 93.8429 149.292 103.123 143.112C112.404 136.931 125.645 133.84 142.84 133.84H170.324V137.956H142.84C135.737 137.956 130.008 139.452 125.645 142.436C121.289 145.427 118.095 149.141 116.084 153.583C114.065 158.025 113.056 162.467 113.056 166.909C113.056 170.949 113.678 174.829 114.93 178.542C116.182 182.255 118.14 185.33 120.804 187.752C123.467 190.175 126.935 191.39 131.215 191.39C135.654 191.39 140.009 189.917 144.289 186.97C148.569 184.024 152.097 179.62 154.882 173.766C157.667 167.911 159.063 160.584 159.063 151.775H161.848C161.848 160.986 160.376 169.103 157.432 176.127C154.487 183.151 150.185 188.648 144.539 192.605C138.879 196.561 131.943 198.543 123.71 198.543ZM180.128 198.543C176.334 198.543 172.843 197.874 169.656 196.546C166.469 195.209 163.904 192.992 161.969 189.879C160.034 186.773 159.063 182.589 159.063 177.342V122.336C159.063 116.52 158.577 110.946 157.606 105.616C156.635 100.285 154.601 95.9267 151.49 92.5325C148.379 89.1383 143.598 87.445 137.141 87.445C133.506 87.445 129.735 87.8474 125.819 88.6599C121.904 89.4724 118.269 90.7025 114.923 92.3578C111.569 94.0132 108.845 96.0938 106.75 98.5996C104.648 101.105 103.601 104.052 103.601 107.446H97.9102C97.9102 103.33 99.2608 100.073 101.962 97.696C104.664 95.3117 107.631 94.1195 110.863 94.1195C114.331 94.1195 117.503 95.2282 120.371 97.453C123.232 99.6778 124.666 102.844 124.666 106.967C124.666 111.812 123.194 115.328 120.25 117.507C117.305 119.686 114.179 120.78 110.863 120.78C107.153 120.78 104.026 119.648 101.477 117.385C98.9345 115.123 97.6597 111.812 97.6597 107.453C97.6597 103.657 98.889 100.247 101.355 97.2176C103.814 94.1878 107.122 91.6062 111.281 89.4648C115.439 87.3235 120.121 85.6682 125.326 84.4988C130.532 83.3294 135.881 82.7447 141.368 82.7447C152.507 82.7447 160.839 84.681 166.371 88.5612C171.895 92.4414 175.59 97.4074 177.449 103.467C179.308 109.526 180.234 115.829 180.234 122.367V181.974C180.234 184.639 180.697 186.902 181.623 188.762C182.549 190.623 184.506 191.549 187.496 191.549C189.59 191.549 191.912 190.684 194.454 188.945C196.996 187.206 198.954 185.004 200.328 182.338L202.627 186.697C200.525 190.091 197.581 192.916 193.787 195.179C190.015 197.404 185.455 198.543 180.128 198.543ZM159.549 62.8427C154.95 62.8427 150.853 61.8708 147.264 59.9345C143.667 57.9982 140.343 55.7733 137.278 53.2675C134.204 50.7618 131.161 48.5445 128.134 46.6007C125.106 44.6644 121.858 43.6924 118.391 43.6924C114.354 43.6924 110.802 44.9073 107.737 47.3296C104.671 49.7518 103.138 54.1104 103.138 60.4129H98.2972C98.2972 53.5485 99.5872 47.8308 102.175 43.2672C104.755 38.7036 108.002 35.2942 111.918 33.0314C115.833 30.7686 119.764 29.6372 123.725 29.6372C128.483 29.6372 132.626 30.6092 136.132 32.5455C139.645 34.4817 142.809 36.7066 145.64 39.2123C148.463 41.7181 151.209 43.9354 153.873 45.8793C156.536 47.8156 159.405 48.7875 162.47 48.7875C167.069 48.7875 170.779 47.5726 173.61 45.1503C176.432 42.728 177.844 38.3619 177.844 32.0671H182.564C182.564 39.7439 181.638 45.8185 179.779 50.2986C177.92 54.7786 175.279 57.9906 171.849 59.9345C168.404 61.8708 164.307 62.8427 159.549 62.8427Z" fill="black"/>
</svg>
