<svg width="114" height="170" viewBox="0 0 114 170" fill="none" xmlns="http://www.w3.org/2000/svg">
<path d="M34.7099 169.543C24.2155 169.543 15.8382 166.854 9.58553 161.486C3.33288 156.118 0.198975 148.828 0.198975 139.617C0.198975 128.797 4.84291 120.292 14.1232 114.112C23.4036 107.931 36.6449 104.84 53.8397 104.84H81.324V108.956H53.8397C46.7371 108.956 41.008 110.452 36.6449 113.436C32.2892 116.427 29.0947 120.141 27.0838 124.583C25.0653 129.025 24.0561 133.467 24.0561 137.909C24.0561 141.949 24.6783 145.829 25.9304 149.542C27.1824 153.255 29.1402 156.33 31.8036 158.752C34.467 161.175 37.9349 162.39 42.2146 162.39C46.6537 162.39 51.0093 160.917 55.289 157.97C59.5687 155.024 63.0972 150.62 65.8821 144.766C68.6669 138.911 70.0632 131.584 70.0632 122.775H72.848C72.848 131.986 71.3759 140.103 68.4317 147.127C65.4875 154.151 61.185 159.648 55.5394 163.605C49.8786 167.561 42.9431 169.543 34.7099 169.543ZM91.1279 169.543C87.3338 169.543 83.8432 168.874 80.6562 167.546C77.4692 166.209 74.9044 163.992 72.9694 160.879C71.0344 157.773 70.0632 153.589 70.0632 148.342V93.3362C70.0632 87.5197 69.5775 81.9463 68.6062 76.6158C67.6349 71.2853 65.6013 66.9267 62.4902 63.5325C59.379 60.1383 54.5985 58.445 48.1409 58.445C44.5062 58.445 40.7349 58.8474 36.8194 59.6599C32.9039 60.4724 29.2692 61.7025 25.9228 63.3578C22.5688 65.0132 19.8447 67.0938 17.7504 69.5996C15.6485 72.1054 14.6013 75.0515 14.6013 78.4457H8.91017C8.91017 74.3302 10.2608 71.0727 12.9622 68.696C15.6636 66.3117 18.6306 65.1195 21.8631 65.1195C25.3309 65.1195 28.5028 66.2282 31.3711 68.453C34.2319 70.6778 35.666 73.8442 35.666 77.9673C35.666 82.8119 34.1939 86.3276 31.2497 88.5068C28.3055 90.6861 25.1792 91.7796 21.8631 91.7796C18.1525 91.7796 15.0262 90.6482 12.4766 88.3854C9.93454 86.1226 8.6597 82.8119 8.6597 78.4533C8.6597 74.6567 9.88898 71.2473 12.3551 68.2176C14.8137 65.1878 18.1222 62.6062 22.2805 60.4648C26.4388 58.3235 31.1207 56.6682 36.3262 55.4988C41.5317 54.3294 46.8814 53.7447 52.3676 53.7447C63.507 53.7447 71.8388 55.681 77.3706 59.5612C82.8947 63.4414 86.5902 68.4074 88.4493 74.4668C90.3084 80.5263 91.2342 86.8287 91.2342 93.3666V152.974C91.2342 155.639 91.697 157.902 92.6227 159.762C93.5485 161.623 95.5062 162.549 98.496 162.549C100.59 162.549 102.912 161.684 105.454 159.945C107.996 158.206 109.954 156.004 111.328 153.338L113.627 157.697C111.525 161.091 108.581 163.916 104.787 166.179C101.015 168.404 96.4548 169.543 91.1279 169.543ZM70.5488 33.8427C65.9504 33.8427 61.8527 32.8708 58.2635 30.9345C54.6667 28.9982 51.3432 26.7733 48.2776 24.2675C45.2044 21.7618 42.1615 19.5445 39.1338 17.6007C36.1061 15.6644 32.8584 14.6924 29.3906 14.6924C25.3537 14.6924 21.8024 15.9073 18.7368 18.3296C15.6712 20.7518 14.1384 25.1104 14.1384 31.4129H9.29718C9.29718 24.5485 10.5872 18.8308 13.1747 14.2672C15.7547 9.70362 19.0024 6.29424 22.9179 4.03144C26.8334 1.76863 30.7641 0.637207 34.7251 0.637207C39.4829 0.637207 43.626 1.60916 47.1317 3.54545C50.6451 5.48174 53.8094 7.70656 56.6397 10.2123C59.4625 12.7181 62.2094 14.9354 64.8729 16.8793C67.5363 18.8156 70.4046 19.7875 73.4702 19.7875C78.0687 19.7875 81.7793 18.5726 84.6097 16.1503C87.4325 13.728 88.8439 9.36192 88.8439 3.06707H93.5637C93.5637 10.7439 92.638 16.8185 90.7789 21.2986C88.9198 25.7786 86.279 28.9906 82.8492 30.9345C79.4042 32.8708 75.3066 33.8427 70.5488 33.8427Z" fill="black"/>
</svg>
