<svg width="1095" height="375" viewBox="0 0 1095 375" fill="none" xmlns="http://www.w3.org/2000/svg">
<path d="M808.87 340.486L1065.48 372.42C1127.35 183.239 1065.48 2 1065.48 2L830.738 31.0979C830.738 31.0979 919.817 167.433 808.87 340.486Z" stroke="black" stroke-width="3" stroke-miterlimit="10"/>
<path d="M592.26 313.528L808.87 340.486C919.817 167.433 830.738 31.0978 830.738 31.0978L612.085 58.1973C612.085 58.1973 712.237 183.895 592.26 313.528Z" fill="white" stroke="black" stroke-width="3" stroke-miterlimit="10"/>
<path d="M389.111 288.255L592.261 313.527C712.238 183.894 612.086 58.1968 612.086 58.1968L412.734 82.9042C412.734 82.9042 491.552 183.117 389.111 288.255Z" stroke="black" stroke-width="3" stroke-miterlimit="10"/>
<path d="M201.709 264.93L389.111 288.255C491.552 183.117 412.734 82.9052 412.734 82.9052L201.709 109.056C201.709 109.056 262.329 163.941 201.709 264.93Z" fill="white" stroke="black" stroke-width="3" stroke-miterlimit="10"/>
<path d="M17.3679 241.989L201.709 264.93C262.329 163.941 201.709 109.056 201.709 109.056L17.3679 131.906C53.7547 193.15 17.3679 241.989 17.3679 241.989Z" stroke="black" stroke-width="3" stroke-miterlimit="10"/>
<path d="M17.3682 241.99C17.3682 241.99 53.7551 193.15 17.3682 131.906C17.3682 131.906 -17.2105 181.574 17.3682 241.99Z" stroke="black" stroke-width="3" stroke-miterlimit="10"/>
</svg>
