<svg width="537" height="762" viewBox="0 0 537 762" fill="none" xmlns="http://www.w3.org/2000/svg">
<path d="M57.3661 556.889C40.1686 556.889 26.2205 542.946 26.2205 525.744V71.5577C26.2205 54.355 40.1686 40.4121 57.3661 40.4121H479.373C496.576 40.4121 510.519 54.355 510.519 71.5577V525.744C510.519 542.946 496.576 556.889 479.373 556.889" stroke="black" stroke-width="5" stroke-miterlimit="10"/>
<path d="M155.682 84.6016V114.792" stroke="black" stroke-width="5" stroke-miterlimit="10"/>
<path d="M380.502 84.6016V114.792" stroke="black" stroke-width="5" stroke-miterlimit="10"/>
<path d="M476.613 40.4775H63.1318V84.6721H476.613V40.4775Z" stroke="black" stroke-width="5" stroke-miterlimit="10"/>
<path d="M496.701 15.251H40.7966C19.929 15.251 3.00659 32.1682 3.00659 53.041V544.259C3.00659 548.894 3.84233 553.333 5.36847 557.439C6.70254 561.031 8.57127 564.363 10.876 567.338C17.78 576.287 28.6187 582.049 40.7966 582.049H161.169C164.439 582.049 167.097 584.702 167.097 587.972V588.034V666.895H190.052V588.034C190.052 585.984 189.854 583.985 189.475 582.049C186.688 567.712 174.058 556.889 158.906 556.889H135.952H57.745C40.5422 556.889 26.5994 542.946 26.5994 525.743V71.557C26.5994 54.3543 40.5474 40.4114 57.745 40.4114H479.752C496.955 40.4114 510.898 54.3543 510.898 71.557V525.743C510.898 542.946 496.955 556.889 479.752 556.889H402.984H378.591C363.439 556.889 350.815 567.712 348.022 582.049C347.643 583.985 347.446 585.984 347.446 588.034V666.895H371.838V588.034C371.838 588.013 371.838 587.993 371.838 587.972C371.843 584.686 374.574 582.049 377.86 582.049H496.701C508.884 582.049 519.717 576.287 526.621 567.338C528.978 564.296 530.873 560.886 532.212 557.21C533.686 553.172 534.491 548.806 534.491 544.259V53.041C534.491 32.1682 517.573 15.251 496.701 15.251Z" stroke="black" stroke-width="5" stroke-miterlimit="10"/>
<path d="M476.613 114.635H63.1318V519.127H476.613V114.635Z" stroke="black" stroke-width="5" stroke-miterlimit="10"/>
<path d="M215.227 53.1451H96.1371C92.7111 53.1451 89.908 50.342 89.908 46.916V9.05334C89.908 5.62732 92.7111 2.82422 96.1371 2.82422H215.227C218.653 2.82422 221.457 5.62732 221.457 9.05334V46.916C221.457 50.342 218.653 53.1451 215.227 53.1451Z" fill="white" stroke="black" stroke-width="5" stroke-miterlimit="10"/>
<path d="M440.047 53.1451H320.957C317.53 53.1451 314.727 50.342 314.727 46.916V9.05334C314.727 5.62732 317.53 2.82422 320.957 2.82422H440.047C443.473 2.82422 446.276 5.62732 446.276 9.05334V46.916C446.276 50.342 443.473 53.1451 440.047 53.1451Z" fill="white" stroke="black" stroke-width="5" stroke-miterlimit="10"/>
<path d="M404.707 666.89H132.785V759.283H404.707V666.89Z" stroke="black" stroke-width="5" stroke-miterlimit="10"/>
</svg>
