<svg width="128" height="122" viewBox="0 0 128 122" fill="none" xmlns="http://www.w3.org/2000/svg">
<path d="M3.71422 122L0.128331 118.582L20.2236 99.3065C10.3244 88.9003 5.37479 76.1238 5.37479 61C5.37479 45.8761 10.3244 33.1073 20.2236 22.6934L0 3.54007L3.71422 0L23.8095 19.2756C28.8473 14.8027 34.7516 11.3085 41.5383 8.78528C48.3249 6.26209 55.8496 5.00048 64.1284 5.00048C72.4071 5.00048 79.9398 6.26209 86.7185 8.78528C93.5051 11.3085 99.3693 14.7645 104.319 19.1533L124.414 0.122316L128 3.54007L107.905 22.6934C117.716 33.0232 122.625 45.792 122.625 61C122.625 76.0474 117.764 88.8545 108.033 99.4289L128 118.46L124.286 122L104.319 102.847C99.3693 107.235 93.5051 110.714 86.7185 113.276C79.9318 115.837 72.3991 117.122 64.1284 117.122C55.8496 117.122 48.3008 115.86 41.4741 113.337C34.6473 110.814 28.7591 107.32 23.8095 102.847L3.71422 122ZM64.1284 111.754C75.0544 111.754 84.4162 109.399 92.2216 104.674C100.027 99.9565 106.028 93.7555 110.207 86.0713C114.387 78.387 116.48 70.0299 116.48 61C116.48 51.97 114.387 43.6129 110.207 35.9287C106.028 28.2444 100.035 22.0588 92.2216 17.3871C84.4162 12.7077 75.0464 10.3756 64.1284 10.3756C53.2023 10.3756 43.8165 12.7153 35.9709 17.3871C28.1173 22.0664 22.0847 28.2444 17.8571 35.9287C13.6295 43.6129 11.5197 51.97 11.5197 61C11.5197 70.0299 13.6295 78.387 17.8571 86.0713C22.0847 93.7555 28.1173 99.9641 35.9709 104.674C43.8165 109.392 53.2023 111.754 64.1284 111.754Z" fill="black"/>
<path d="M63.4212 28.3691L83.5143 84.1789H91V86.3691H67.5186V84.1789H75.0043L69.4885 68.3607H50.8926L46.2436 83.0433L52.9413 84.1789V86.3691H36V84.1789L43.8797 82.9621L61.2149 28.3691H63.4212ZM59.9542 39.4824L51.6017 66.1705H68.6218L59.9542 39.4824Z" fill="black"/>
</svg>
