<svg width="754" height="747" viewBox="0 0 754 747" fill="none" xmlns="http://www.w3.org/2000/svg">
<path d="M311.981 137.574C312.887 134.819 314.278 132.829 316.153 131.604C318.04 130.343 320.169 130.405 322.539 131.79C324.776 133.097 326.366 135.1 327.31 137.797C328.22 140.475 328.398 143.141 327.844 145.795L328.045 145.912C328.737 144.17 329.529 142.729 330.422 141.586C331.327 140.407 332.499 139.626 333.939 139.241C335.379 138.856 336.916 139.142 338.552 140.098C339.754 140.801 340.798 141.739 341.686 142.915C342.995 144.863 343.766 146.999 343.996 149.323C344.227 151.648 343.986 153.893 343.274 156.061C342.464 158.522 341.265 160.295 339.674 161.379C338.129 162.447 336.305 162.366 334.202 161.137C333.401 160.669 332.813 159.975 332.439 159.056C332.11 158.119 332.091 157.21 332.381 156.328C332.646 155.52 333.058 154.994 333.615 154.751C334.173 154.508 334.802 154.591 335.503 155C336.204 155.41 336.704 156.009 337.002 156.796C337.277 157.657 337.293 158.455 337.051 159.189C336.931 159.557 336.766 159.876 336.557 160.149C338.871 160.494 340.505 159.216 341.459 156.314C342.172 154.147 342.025 152.112 341.018 150.21C340.057 148.291 338.559 146.736 336.522 145.546C334.352 144.278 332.574 143.939 331.186 144.529C329.764 145.099 328.661 146.579 327.876 148.966L327.405 150.399L326.053 149.608L326.524 148.176C327.225 146.045 327.093 144.085 326.129 142.296C325.144 140.45 323.65 138.942 321.647 137.771C317.574 135.391 314.831 136.35 313.419 140.647C312.839 142.411 312.865 144.025 313.498 145.489C314.073 147.008 314.929 148.099 316.064 148.762L316.514 149.025C316.581 149.065 316.727 149.106 316.951 149.149C316.735 148.717 316.598 148.286 316.54 147.858C316.518 147.32 316.561 146.885 316.67 146.555C316.936 145.747 317.387 145.222 318.023 144.981C318.648 144.777 319.31 144.879 320.011 145.289C320.646 145.66 321.112 146.239 321.41 147.026C321.684 147.887 321.707 148.666 321.477 149.364C321.103 150.503 320.39 151.159 319.338 151.332C318.264 151.45 317.194 151.196 316.125 150.572C313.889 149.264 312.431 147.405 311.751 144.993C311.083 142.545 311.16 140.072 311.981 137.574Z" fill="black"/>
<path d="M260.308 249.109C262.1 250.98 263.054 253.626 263.172 257.047C263.317 260.441 262.747 263.396 261.462 265.912L268.039 259.613L265.527 252.462L266.658 251.379L273.51 260.798L258.095 275.561L257.132 274.556C259.25 271.457 260.38 267.912 260.521 263.922C260.69 259.906 259.544 256.613 257.083 254.044C255.612 252.508 254.059 251.64 252.422 251.441C250.787 251.187 249.215 251.782 247.707 253.226C246.423 254.456 245.736 255.836 245.649 257.366C245.589 258.868 246.161 260.248 247.364 261.505C247.926 262.091 248.409 262.485 248.815 262.685C248.645 261.724 248.908 260.909 249.607 260.241C250.221 259.652 250.911 259.366 251.676 259.383C252.386 259.453 253.008 259.767 253.543 260.326C254.051 260.856 254.297 261.504 254.28 262.27C254.264 263.035 253.976 263.685 253.418 264.22C252.943 264.675 252.39 264.964 251.758 265.087C249.97 265.568 248.14 264.831 246.268 262.876C244.342 260.865 243.516 258.605 243.789 256.095C244.09 253.558 245.246 251.327 247.256 249.401C249.323 247.422 251.547 246.39 253.928 246.305C256.282 246.191 258.409 247.126 260.308 249.109Z" fill="black"/>
<path d="M133.431 326.586L132.958 325.093L145.341 318.123L145.814 319.616L142.023 321.75L148.869 343.37L152.66 341.236L153.132 342.729L140.75 349.699L140.277 348.206L144.067 346.073L137.222 324.453L133.431 326.586Z" fill="black"/>
<path d="M728.577 49.8896H415.423V553.194H728.577V49.8896Z" stroke="black" stroke-width="5" stroke-miterlimit="10"/>
<path d="M749.542 3.49023H394.457V49.2993H749.542V3.49023Z" stroke="black" stroke-width="5" stroke-miterlimit="10"/>
<path d="M749.542 553.193H394.458V599.003H749.542V553.193Z" stroke="black" stroke-width="5" stroke-miterlimit="10"/>
<path d="M502.83 96.6408C502.83 96.6408 557.444 75.0149 650.017 96.6408" stroke="black" stroke-width="5" stroke-miterlimit="10"/>
<path d="M502.83 115.679C502.83 115.679 557.444 94.053 650.017 115.679" stroke="black" stroke-width="5" stroke-miterlimit="10"/>
<path d="M502.83 134.725C502.83 134.725 557.444 113.099 650.017 134.725" stroke="black" stroke-width="5" stroke-miterlimit="10"/>
<path d="M502.83 153.763C502.83 153.763 557.444 132.137 650.017 153.763" stroke="black" stroke-width="5" stroke-miterlimit="10"/>
<path d="M502.83 172.802C502.83 172.802 557.444 151.176 650.017 172.802" stroke="black" stroke-width="5" stroke-miterlimit="10"/>
<path d="M502.83 191.847C502.83 191.847 557.444 170.221 650.017 191.847" stroke="black" stroke-width="5" stroke-miterlimit="10"/>
<path d="M502.83 210.886C502.83 210.886 557.444 189.26 650.017 210.886" stroke="black" stroke-width="5" stroke-miterlimit="10"/>
<path d="M502.83 229.925C502.83 229.925 557.444 208.299 650.017 229.925" stroke="black" stroke-width="5" stroke-miterlimit="10"/>
<path d="M502.83 248.97C502.83 248.97 557.444 227.344 650.017 248.97" stroke="black" stroke-width="5" stroke-miterlimit="10"/>
<path d="M571.516 49.2988L572 87.031" stroke="black" stroke-width="5" stroke-miterlimit="10"/>
<line x1="555.66" y1="340.444" x2="589.083" y2="340.444" stroke="black" stroke-width="5"/>
<path d="M555.66 278.994H589.083" stroke="black" stroke-width="5"/>
<g clip-path="url(#clip0_228:26)">
<path d="M319.813 14.2378H244.995C245 14.7989 245 15.3649 245 15.926C245 48.5831 238.565 79.7357 226.896 108.187C215.357 136.321 198.703 161.813 178.087 183.501C155.534 207.236 128.245 226.417 97.7276 239.535L83.8147 206.963L68.8044 171.813C90.1306 162.627 109.198 149.186 124.928 132.562L100.886 109.523C112.365 97.3726 121.626 83.1121 128.036 67.3869C134.511 51.5077 138.081 34.1339 138.081 15.926C138.081 15.3649 138.076 14.7989 138.071 14.2378H1.70272V332.914H2.51704C177.759 332.914 319.818 190.85 319.818 15.6082C319.818 15.1514 319.818 14.6946 319.813 14.2378Z" fill="white" stroke="black" stroke-width="5" stroke-miterlimit="10"/>
<path d="M138.081 15.926C138.081 15.3649 138.076 14.7989 138.071 14.2378H1.70272V259.223C35.8047 259.223 68.2681 252.207 97.7275 239.535L83.8146 206.963L68.8044 171.813C90.1306 162.627 109.197 149.186 124.928 132.562L100.886 109.523C112.365 97.3726 121.626 83.1121 128.036 67.3869C134.511 51.5077 138.081 34.1339 138.081 15.926Z" fill="white" stroke="black" stroke-width="5" stroke-miterlimit="10"/>
<path d="M138.081 15.926C138.081 15.3649 138.076 14.7989 138.071 14.2378H1.70272V223.815C30.8642 223.815 58.6254 217.812 83.8146 206.963L68.8044 171.813C90.1306 162.627 109.197 149.186 124.928 132.562L100.886 109.523C112.365 97.3726 121.626 83.1121 128.036 67.3869C134.511 51.5077 138.081 34.1339 138.081 15.926Z" fill="white" stroke="black" stroke-width="5" stroke-miterlimit="10"/>
<path d="M152.521 159.003L124.928 132.563C109.198 149.187 90.1311 162.628 68.8049 171.814L83.8152 206.964L97.7281 239.536C128.245 226.418 155.535 207.237 178.087 183.502L152.521 159.003Z" stroke="black" stroke-width="5" stroke-miterlimit="10"/>
<path d="M138.081 15.926C138.081 15.3649 138.076 14.7989 138.071 14.2378H1.70272V185.602C25.5364 185.602 48.223 180.686 68.8044 171.813C90.1306 162.627 109.197 149.186 124.928 132.562L100.886 109.523C112.365 97.3726 121.626 83.1121 128.036 67.3869C134.511 51.5077 138.081 34.1339 138.081 15.926Z" fill="white" stroke="black" stroke-width="5" stroke-miterlimit="10"/>
<path d="M244.995 14.2385H209.582H171.369H138.071C138.076 14.7996 138.081 15.3657 138.081 15.9267C138.081 34.1347 134.511 51.5084 128.037 67.3876L158.827 80.0939L194.16 94.6771L226.897 108.188C238.565 79.7364 245 48.5838 245 15.9267C245 15.3657 245 14.7996 244.995 14.2385Z" stroke="black" stroke-width="5" stroke-miterlimit="10"/>
<path d="M138.071 14.2378H1.70272V152.304C40.785 152.304 76.029 135.864 100.886 109.523C112.365 97.3726 121.626 83.1121 128.036 67.3869C134.511 51.5077 138.081 34.1339 138.081 15.926C138.081 15.3649 138.076 14.7989 138.071 14.2378Z" fill="white" stroke="black" stroke-width="5" stroke-miterlimit="10"/>
<path d="M104.679 15.926C104.679 72.7991 58.5758 118.902 1.70272 118.902V14.2378H104.664C104.674 14.7989 104.679 15.36 104.679 15.926Z" fill="white" stroke="black" stroke-width="5" stroke-miterlimit="10"/>
<path d="M194.16 94.677L158.827 80.0938L128.037 67.3875C121.626 83.1127 112.366 97.3732 100.886 109.523L124.928 132.563L152.521 159.003L178.087 183.502C198.703 161.813 215.357 136.321 226.897 108.188L194.16 94.677Z" stroke="black" stroke-width="5" stroke-miterlimit="10"/>
<path d="M105.429 256.369L119.303 286.697" stroke="black" stroke-width="5" stroke-miterlimit="10"/>
<path d="M244.861 114.38L275.835 127.136" stroke="black" stroke-width="5" stroke-miterlimit="10"/>
<path d="M191.3 196.685L215.452 219.923" stroke="black" stroke-width="5" stroke-miterlimit="10"/>
</g>
<path d="M358.061 220.308C357.475 219.723 356.525 219.723 355.939 220.308L346.393 229.854C345.808 230.44 345.808 231.39 346.393 231.976C346.979 232.562 347.929 232.562 348.515 231.976L357 223.49L365.485 231.976C366.071 232.562 367.021 232.562 367.607 231.976C368.192 231.39 368.192 230.44 367.607 229.854L358.061 220.308ZM358.5 474.369L358.5 221.369L355.5 221.369L355.5 474.369L358.5 474.369Z" fill="black"/>
<path d="M131 643.369H751V744.369H131L208.466 698.829L131 643.369Z" fill="white" stroke="black" stroke-width="5"/>
<rect x="5.5" y="401.869" width="299" height="149" fill="white" stroke="black" stroke-width="5"/>
<rect x="5.5" y="402.869" width="94" height="56" fill="white" stroke="black" stroke-width="5"/>
<defs>
<clipPath id="clip0_228:26">
<rect width="320.598" height="321.159" fill="white" transform="translate(0.461914 12.9971)"/>
</clipPath>
</defs>
</svg>
