<svg width="326" height="476" viewBox="0 0 326 476" fill="none" xmlns="http://www.w3.org/2000/svg">
<path d="M228.322 476V200.108H0V187.895H283.266V476H228.322ZM0 476V463.787H326V476H0ZM51.8914 476V155.639C51.8914 135.19 55.0965 115.618 61.5066 96.9224C67.9167 78.2268 77.135 61.6295 89.1311 47.1303C101.127 32.6311 115.687 21.1382 132.781 12.6829C149.875 4.22763 169.105 0 190.472 0C209 0 225.514 3.13158 240.074 9.39474C254.634 15.6579 266.081 23.5495 274.414 33.0382C282.747 42.5268 286.929 52.2034 286.929 62.0053C286.929 74.7508 283.419 84.396 276.398 90.9724C269.377 97.5487 261.197 100.837 251.826 100.837C244.073 100.837 236.503 98.2689 229.085 93.1645C221.668 88.06 217.944 79.2289 217.944 66.7026C217.944 59.4061 219.714 53.1429 223.286 47.9132C226.857 42.6834 231.222 38.7376 236.411 36.0132C241.6 33.2887 246.728 31.9421 251.826 31.9421C259.976 31.9421 267.729 34.6039 275.177 39.9276C282.594 45.2513 286.318 52.6105 286.318 62.0053H274.719C274.719 54.0824 270.842 46.2847 263.12 38.675C255.397 31.0653 245.172 24.7395 232.443 19.7289C219.714 14.7184 205.734 12.2132 190.472 12.2132C172.157 12.2132 156.804 17.1611 144.38 27.0882C131.957 37.0153 122.616 51.2953 116.298 69.9908C109.979 88.6863 106.835 111.265 106.835 137.789V476H51.8914Z" fill="white"/>
</svg>
