<svg width="390" height="767" viewBox="0 0 390 767" fill="none" xmlns="http://www.w3.org/2000/svg">
<path d="M0 476.61V464.381H176.719V476.61H0ZM311.391 481C294.724 481 282.202 477.175 273.762 469.555C265.322 461.936 259.655 452.372 256.699 440.865C253.744 429.357 252.281 417.975 252.281 406.686V137.966C252.281 111.408 250.087 88.8 245.73 70.0805C241.373 51.361 233.787 37.0627 223.031 27.1229C212.276 17.1831 197.224 12.2288 177.938 12.2288C158.651 12.2288 143.599 17.1831 132.844 27.1229C122.088 37.0627 114.502 51.361 110.145 70.0805C105.787 88.8 103.594 111.408 103.594 137.966V476.61H48.75V155.839C48.75 128.465 53.3812 102.91 62.6133 79.1737C71.8453 55.4373 86.0133 36.3102 105.117 21.7924C124.221 7.27458 148.474 0 177.938 0C207.401 0 231.654 7.27458 250.758 21.7924C269.862 36.3102 284.03 55.4373 293.262 79.1737C302.494 102.91 307.125 128.465 307.125 155.839L306.82 420.797C306.82 436.475 308.709 447.042 312.457 452.466C316.205 457.891 322.573 460.619 331.5 460.619C337.594 460.619 343.687 458.581 349.781 454.504C355.875 450.428 361.512 445.16 366.691 438.67C371.871 432.179 376.289 425.186 379.945 417.661L390 424.246C381.865 441.178 371.566 454.881 359.074 465.322C346.582 475.764 330.677 481 311.391 481ZM215.109 200.364V188.136H372.023V200.364H215.109Z" fill="white"/>
<rect x="48.5" y="447" width="55" height="320" fill="white"/>
</svg>
