<svg width="1377" height="550" viewBox="0 0 1377 550" fill="none" xmlns="http://www.w3.org/2000/svg">
<path d="M390.07 113.403L379.46 120.647L379.337 103.498" stroke="white" stroke-width="3" stroke-miterlimit="10"/>
<path d="M237.157 118.268C242.023 92.8616 265.051 41.7241 318.242 40.4268C347.433 42.589 400.949 61.1845 381.488 118.268" stroke="white" stroke-width="3"/>
<path d="M487.434 146.24L482.122 160.469L474.386 146.768" stroke="white" stroke-width="3" stroke-miterlimit="10"/>
<path d="M346.243 3.16149C388.407 -2.78472 474.033 20.0271 479.222 158.844" stroke="white" stroke-width="3"/>
<path d="M982.677 276.951L994.173 281.23L985.545 293.924" stroke="white" stroke-width="3" stroke-miterlimit="10"/>
<path d="M941.505 437.066C928.531 397.605 920.423 311.547 991.777 283.005" stroke="white" stroke-width="3"/>
<path d="M1375.52 250.213L1367.05 261.426L1363.04 245.153" stroke="white" stroke-width="3" stroke-miterlimit="10"/>
<path d="M1295.5 122.322C1327.39 125.566 1386.31 157.675 1366.85 260.166" stroke="white" stroke-width="3"/>
<path d="M491.595 368.45C491.391 367.647 490.575 367.162 489.772 367.366L476.689 370.696C475.886 370.901 475.401 371.717 475.605 372.52C475.81 373.323 476.626 373.808 477.429 373.604L489.058 370.644L492.018 382.273C492.222 383.076 493.039 383.561 493.842 383.357C494.645 383.152 495.13 382.336 494.925 381.533L491.595 368.45ZM426.563 478.751L491.431 369.586L488.852 368.054L423.984 477.218L426.563 478.751Z" fill="white"/>
<path d="M13.0607 421.308C12.4749 420.723 11.5251 420.723 10.9393 421.308L1.3934 430.854C0.807611 431.44 0.807611 432.39 1.3934 432.976C1.97919 433.562 2.92893 433.562 3.51472 432.976L12 424.49L20.4853 432.976C21.0711 433.562 22.0208 433.562 22.6066 432.976C23.1924 432.39 23.1924 431.44 22.6066 430.854L13.0607 421.308ZM13.5 549.369L13.5 422.369H10.5L10.5 549.369H13.5Z" fill="white"/>
</svg>
