<svg width="335" height="482" viewBox="0 0 335 482" fill="none" xmlns="http://www.w3.org/2000/svg">
<path d="M0 206.258V194.052H188.99V206.258H0ZM0 482V469.793H335V482H0ZM51.8198 482V161.814C51.8198 134.491 56.6056 108.982 66.1465 85.289C75.6874 61.5958 89.6178 42.5036 107.907 28.0123C126.197 13.521 148.54 6.25974 174.968 6.25974C191.825 6.25974 205.816 9.38961 216.881 15.6494C227.946 21.9091 236.237 29.7964 241.724 39.2799C247.211 48.7634 249.954 58.4347 249.954 68.2312C249.954 80.9697 246.449 90.6097 239.438 97.1825C232.427 103.755 224.258 107.042 214.9 107.042C207.371 107.042 199.872 104.475 192.343 99.3734C184.814 94.2717 181.065 85.4454 181.065 72.926C181.065 61.8775 184.814 53.3017 192.343 47.261C199.872 41.2204 207.371 38.1844 214.9 38.1844C223.222 38.1844 231.055 40.8448 238.371 46.1656C245.687 51.4864 249.345 58.8416 249.345 68.2312H237.762C237.762 59.8744 235.262 51.9558 230.293 44.4442C225.325 36.9325 218.161 30.7353 208.803 25.8214C199.445 20.9075 188.167 18.4662 174.968 18.4662C158.721 18.4662 145.553 23.4114 135.494 33.3331C125.434 43.2548 118.119 57.527 113.546 76.2123C108.974 94.8977 106.688 117.464 106.688 143.974V482H51.8198ZM228.617 482V25.039L283.485 0V482H228.617Z" fill="white"/>
</svg>
