<svg width="1440" height="600" viewBox="0 0 1440 600" fill="none" xmlns="http://www.w3.org/2000/svg">
<path d="M1325.26 284.276C1355.84 276.372 1387.01 284.439 1418.75 308.476C1450.5 332.513 1470.51 360.532 1478.78 392.533C1487.16 424.978 1483.46 452.724 1467.66 475.772C1451.87 498.82 1427.35 514.639 1394.1 523.231C1340.47 537.092 1288.55 531.069 1238.36 505.162C1188.16 479.256 1156.22 439.858 1142.56 386.967C1137.73 368.3 1137.3 350.158 1141.26 332.54C1145.22 314.922 1155.62 303.936 1172.46 299.583C1196.84 293.283 1219.44 299.297 1240.25 317.625C1261.06 335.953 1279.03 358.81 1294.14 386.197C1293.8 384.863 1293.18 383.365 1292.27 381.702C1291.37 380.038 1290.75 378.54 1290.4 377.207C1276.85 324.761 1288.47 293.784 1325.26 284.276ZM1338.8 465.69C1352.79 464.92 1369.98 461.9 1390.37 456.631C1410.76 451.362 1427.73 442.944 1441.3 431.379C1454.3 419.484 1458.45 404.425 1453.74 386.203C1448.68 366.647 1435.69 353.883 1414.76 347.913C1393.71 341.498 1372.55 341.04 1351.28 346.539C1318.48 355.016 1306.33 375.699 1314.83 408.589C1317.24 417.922 1320.55 427.973 1324.75 438.741C1330.41 451.502 1335.09 460.485 1338.8 465.69ZM1240.37 370.224C1223.2 362.334 1205.08 360.852 1186.02 365.778C1166.96 370.703 1159.84 382.5 1164.67 401.167C1170.18 422.501 1190.09 439.165 1224.4 451.161C1258.71 463.157 1289.85 468.384 1317.82 466.845C1308.17 442.313 1297.84 422.461 1286.83 407.29C1275.26 391.789 1259.77 379.434 1240.37 370.224Z" fill="black"/>
<path d="M827.69 376.651C808.51 371.694 788.965 376.753 769.056 391.827C749.147 406.901 736.6 424.473 731.413 444.541C726.155 464.888 728.478 482.289 738.384 496.742C748.29 511.196 763.666 521.117 784.515 526.505C818.15 535.198 850.708 531.42 882.188 515.174C913.669 498.927 933.695 474.22 942.267 441.051C945.292 429.344 945.564 417.967 943.082 406.918C940.599 395.869 934.076 388.98 923.513 386.25C908.225 382.299 894.054 386.071 881.001 397.564C867.948 409.058 856.682 423.393 847.202 440.568C847.418 439.731 847.809 438.792 848.375 437.749C848.941 436.706 849.332 435.766 849.549 434.93C858.049 402.04 850.762 382.613 827.69 376.651ZM819.195 490.42C810.423 489.937 799.644 488.043 786.857 484.739C774.07 481.434 763.424 476.155 754.92 468.903C746.765 461.443 744.165 451.999 747.118 440.571C750.287 428.307 758.435 420.303 771.561 416.559C784.759 412.536 798.029 412.249 811.372 415.697C831.942 421.013 839.562 433.984 834.232 454.61C832.719 460.464 830.645 466.767 828.011 473.519C824.46 481.522 821.521 487.156 819.195 490.42ZM880.928 430.551C891.696 425.603 903.056 424.673 915.009 427.762C926.962 430.851 931.426 438.249 928.401 449.956C924.943 463.335 912.456 473.786 890.94 481.308C869.424 488.831 849.895 492.11 832.352 491.144C838.404 475.759 844.883 463.31 851.79 453.796C859.047 444.075 868.759 436.326 880.928 430.551Z" fill="black"/>
<path d="M1148.63 159.802C1196.42 149.821 1243.94 164.536 1291.21 203.949C1338.47 243.362 1367.32 288.07 1377.77 338.072C1388.35 388.769 1380.62 431.334 1354.56 465.767C1328.5 500.2 1289.5 522.841 1237.56 533.69C1153.75 551.194 1074.05 538.126 998.432 494.487C922.819 450.849 876.382 387.708 859.121 305.066C853.029 275.898 853.679 247.859 861.069 220.948C868.459 194.038 885.313 177.834 911.632 172.337C949.725 164.381 984.172 175.306 1014.97 205.111C1045.77 234.917 1071.85 271.507 1093.19 314.884C1092.76 312.8 1091.91 310.442 1090.63 307.809C1089.36 305.175 1088.51 302.817 1088.07 300.734C1070.96 218.786 1091.14 171.808 1148.63 159.802ZM1156.37 440.845C1178.01 440.673 1204.77 437.259 1236.63 430.605C1268.49 423.951 1295.31 412.189 1317.08 395.32C1338.02 377.901 1345.51 354.955 1339.57 326.482C1333.18 295.925 1314.05 275.278 1282.18 264.542C1250.15 253.111 1217.52 250.867 1184.28 257.81C1133.02 268.515 1112.76 299.563 1123.5 350.954C1126.54 365.538 1130.92 381.294 1136.62 398.222C1144.44 418.333 1151.02 432.541 1156.37 440.845ZM1011.33 286.321C985.399 272.893 957.541 269.29 927.76 275.51C897.978 281.73 886.133 299.424 892.225 328.592C899.187 361.927 928.715 389.099 980.809 410.109C1032.9 431.118 1080.6 441.45 1123.89 441.105C1110.78 402.532 1096.27 371.136 1080.37 346.916C1063.63 322.146 1040.62 301.947 1011.33 286.321Z" fill="black"/>
<line x1="900" y1="32" x2="900" y2="183" stroke="black" stroke-width="5"/>
<path d="M854 32L900 32L900 3L854 3L873.618 18.5116L854 32Z" stroke="black" stroke-width="5"/>
<path d="M555.375 284.276C585.96 276.372 617.125 284.439 648.872 308.476C680.618 332.513 700.627 360.532 708.897 392.533C717.282 424.978 713.577 452.724 697.782 475.772C681.986 498.82 657.467 514.639 624.223 523.231C570.589 537.092 518.673 531.069 468.474 505.162C418.276 479.256 386.343 439.858 372.674 386.967C367.85 368.3 367.417 350.158 371.375 332.54C375.333 314.922 385.734 303.936 402.578 299.583C426.957 293.283 449.554 299.297 470.367 317.625C491.181 335.953 509.146 358.81 524.263 386.197C523.918 384.863 523.294 383.365 522.392 381.702C521.489 380.038 520.865 378.54 520.521 377.207C506.967 324.761 518.585 293.784 555.375 284.276ZM568.922 465.69C582.909 464.92 600.098 461.9 620.487 456.631C640.877 451.362 657.853 442.944 671.414 431.379C684.417 419.484 688.564 404.425 683.855 386.203C678.801 366.647 665.808 353.883 644.878 347.913C623.833 341.498 602.673 341.04 581.396 346.539C548.595 355.016 536.445 375.699 544.945 408.589C547.357 417.922 550.664 427.973 554.865 438.741C560.527 451.502 565.213 460.485 568.922 465.69ZM470.485 370.224C453.314 362.334 435.199 360.852 416.139 365.778C397.079 370.703 389.961 382.5 394.785 401.167C400.298 422.501 420.21 439.165 454.518 451.161C488.827 463.157 519.969 468.384 547.942 466.845C538.292 442.313 527.96 422.461 516.947 407.29C505.375 391.789 489.888 379.434 470.485 370.224Z" fill="black"/>
<path d="M57.8089 376.651C38.6285 371.694 19.0838 376.753 -0.825197 391.827C-20.7342 406.901 -33.2819 424.473 -38.4683 444.541C-43.7268 464.888 -41.4032 482.289 -31.4976 496.742C-21.5921 511.196 -6.21517 521.117 14.6331 526.505C48.2682 535.198 80.826 531.42 112.307 515.174C143.787 498.927 163.813 474.22 172.385 441.051C175.411 429.344 175.682 417.967 173.2 406.918C170.718 395.869 164.195 388.98 153.632 386.25C138.343 382.299 124.172 386.071 111.119 397.564C98.0665 409.058 86.8001 423.393 77.3203 440.568C77.5364 439.731 77.9275 438.792 78.4937 437.749C79.0598 436.706 79.4509 435.766 79.667 434.93C88.1669 402.04 80.8809 382.613 57.8089 376.651ZM49.3131 490.42C40.5416 489.937 29.7624 488.043 16.9755 484.739C4.1886 481.434 -6.45715 476.155 -14.9618 468.903C-23.1163 461.443 -25.717 451.999 -22.7636 440.571C-19.5941 428.307 -11.4464 420.303 1.6794 416.559C14.8773 412.536 28.1476 412.249 41.4905 415.697C62.0607 421.013 69.6806 433.984 64.3501 454.61C62.8374 460.464 60.7637 466.767 58.1289 473.519C54.578 481.522 51.6394 487.156 49.3131 490.42ZM111.046 430.551C121.814 425.603 133.175 424.673 145.128 427.762C157.081 430.851 161.544 438.249 158.519 449.956C155.061 463.335 142.575 473.786 121.059 481.308C99.5428 488.831 80.0133 492.11 62.4703 491.144C68.5221 475.759 75.0014 463.31 81.9083 453.796C89.1653 444.075 98.8778 436.326 111.046 430.551Z" fill="black"/>
<path d="M378.745 159.802C426.534 149.821 474.061 164.536 521.324 203.949C568.588 243.362 597.441 288.07 607.885 338.072C618.473 388.769 610.739 431.334 584.681 465.767C558.623 500.2 519.622 522.841 467.677 533.69C383.872 551.194 304.164 538.126 228.55 494.487C152.937 450.849 106.501 387.708 89.2399 305.066C83.1479 275.898 83.7969 247.859 91.1871 220.948C98.5772 194.038 115.432 177.834 141.75 172.337C179.843 164.381 214.29 175.306 245.091 205.111C275.892 234.917 301.966 271.507 323.313 314.884C322.878 312.8 322.024 310.442 320.751 307.809C319.479 305.175 318.625 302.817 318.189 300.734C301.074 218.786 321.259 171.808 378.745 159.802ZM386.485 440.845C408.133 440.673 434.887 437.259 466.747 430.605C498.606 423.951 525.424 412.189 547.199 395.32C568.136 377.901 575.632 354.955 569.685 326.482C563.303 295.925 544.173 275.278 512.295 264.542C480.272 253.111 447.638 250.867 414.394 257.81C363.141 268.515 342.882 299.563 353.615 350.954C356.661 365.538 361.036 381.294 366.74 398.222C374.555 418.333 381.136 432.541 386.485 440.845ZM241.452 286.321C215.518 272.893 187.66 269.29 157.878 275.51C128.096 281.73 116.251 299.424 122.343 328.592C129.305 361.927 158.833 389.099 210.927 410.109C263.021 431.118 310.716 441.45 354.013 441.105C340.897 402.532 326.388 371.136 310.487 346.916C293.749 322.146 270.737 301.947 241.452 286.321Z" fill="black"/>
<line x1="130.118" y1="32" x2="130.118" y2="183" stroke="black" stroke-width="5"/>
<path d="M84.1184 32L130.118 32L130.118 3L84.1184 3L103.736 18.5116L84.1184 32Z" stroke="black" stroke-width="5"/>
</svg>
