<svg width="669" height="713" viewBox="0 0 669 713" fill="none" xmlns="http://www.w3.org/2000/svg">
<rect x="2.5" y="3.86938" width="75" height="75" stroke="white" stroke-width="5"/>
<path d="M207.52 274.12H206.98V271.12H207.52L207.76 272.02C208.307 271.287 209.16 270.92 210.32 270.92C210.6 270.92 210.927 270.953 211.3 271.02C212.007 271.193 212.527 271.527 212.86 272.02C213.02 272.273 213.1 272.6 213.1 273C213.1 273.667 212.867 274.187 212.4 274.56C211.947 274.92 211.367 275.147 210.66 275.24V275.32C211.407 275.373 212.06 275.567 212.62 275.9C213.193 276.233 213.48 276.733 213.48 277.4C213.48 278.04 213.28 278.58 212.88 279.02C212.48 279.447 212.007 279.747 211.46 279.92C210.927 280.08 210.34 280.16 209.7 280.16C208.94 280.16 208.247 280 207.62 279.68C207.007 279.36 206.7 278.853 206.7 278.16C206.7 277.867 206.793 277.627 206.98 277.44C207.18 277.24 207.427 277.14 207.72 277.14C208.027 277.14 208.26 277.227 208.42 277.4C208.567 277.587 208.64 277.813 208.64 278.08C208.64 278.32 208.58 278.527 208.46 278.7C208.327 278.873 208.153 279 207.94 279.08C208.287 279.427 208.793 279.6 209.46 279.6C210.113 279.6 210.613 279.413 210.96 279.04C211.307 278.653 211.48 278.133 211.48 277.48C211.48 276.24 210.807 275.62 209.46 275.62H208.9V275.06H209.6C210.08 275.06 210.453 274.873 210.72 274.5C211 274.127 211.14 273.693 211.14 273.2C211.14 272.067 210.64 271.5 209.64 271.5C209.04 271.5 208.567 271.767 208.22 272.3C207.873 272.82 207.64 273.427 207.52 274.12ZM218.324 275.14C219.07 275.14 219.71 275.24 220.244 275.44V273.04C220.244 272.493 220.117 272.093 219.864 271.84C219.624 271.573 219.23 271.44 218.684 271.44C218.03 271.44 217.484 271.613 217.044 271.96C217.217 272.013 217.39 272.127 217.564 272.3C217.71 272.487 217.784 272.727 217.784 273.02C217.784 273.313 217.69 273.553 217.504 273.74C217.317 273.927 217.077 274.02 216.784 274.02C216.49 274.02 216.257 273.92 216.084 273.72C215.897 273.533 215.804 273.287 215.804 272.98C215.804 272.34 216.157 271.84 216.864 271.48C217.584 271.107 218.304 270.92 219.024 270.92C221.104 270.92 222.144 271.693 222.144 273.24V278.48C222.144 279.053 222.357 279.34 222.784 279.34C222.984 279.34 223.17 279.267 223.344 279.12C223.477 278.987 223.597 278.847 223.704 278.7L224.024 279.02C223.504 279.78 222.87 280.16 222.124 280.16C221.737 280.16 221.39 280.08 221.084 279.92C220.777 279.773 220.53 279.5 220.344 279.1C219.517 279.82 218.61 280.18 217.624 280.18C216.864 280.18 216.23 279.96 215.724 279.52C215.23 279.067 214.984 278.467 214.984 277.72C214.984 276.827 215.304 276.173 215.944 275.76C216.597 275.347 217.39 275.14 218.324 275.14ZM216.984 277.48C216.984 278.04 217.124 278.48 217.404 278.8C217.697 279.12 218.117 279.28 218.664 279.28C218.984 279.28 219.27 279.22 219.524 279.1C219.777 279.007 220.017 278.853 220.244 278.64V275.94C219.99 275.847 219.737 275.767 219.484 275.7C219.244 275.66 218.977 275.64 218.684 275.64C218.124 275.64 217.697 275.807 217.404 276.14C217.124 276.46 216.984 276.907 216.984 277.48ZM232.187 277.7L232.587 277.96C232.227 278.627 231.747 279.16 231.147 279.56C230.547 279.947 229.887 280.14 229.167 280.14C227.861 280.14 226.807 279.7 226.007 278.82C225.221 277.927 224.827 276.833 224.827 275.54C224.827 274.18 225.227 273.073 226.027 272.22C226.827 271.353 227.887 270.92 229.207 270.92C229.834 270.92 230.421 271.047 230.967 271.3C231.514 271.553 231.934 271.927 232.227 272.42C232.401 272.713 232.487 272.993 232.487 273.26C232.487 273.553 232.387 273.807 232.187 274.02C232.001 274.22 231.761 274.32 231.467 274.32C231.187 274.32 230.954 274.233 230.767 274.06C230.594 273.887 230.507 273.66 230.507 273.38C230.507 272.913 230.761 272.533 231.267 272.24C230.854 271.733 230.254 271.48 229.467 271.48C228.974 271.48 228.547 271.613 228.187 271.88C227.827 272.133 227.554 272.473 227.367 272.9C227.194 273.313 227.067 273.74 226.987 274.18C226.907 274.607 226.867 275.053 226.867 275.52C226.867 276.573 227.094 277.487 227.547 278.26C228.001 279.02 228.707 279.4 229.667 279.4C230.707 279.4 231.547 278.833 232.187 277.7ZM238.147 270.92C239.307 270.92 240.2 271.287 240.827 272.02C241.467 272.74 241.787 273.68 241.787 274.84H236.047C236.034 274.907 236.027 275.02 236.027 275.18V275.54C236.04 276.633 236.254 277.547 236.667 278.28C237.094 279.013 237.807 279.38 238.807 279.38C239.967 279.38 240.8 278.793 241.307 277.62L241.747 277.94C241.067 279.42 239.92 280.16 238.307 280.16C236.96 280.16 235.907 279.733 235.147 278.88C234.387 278.013 234.007 276.913 234.007 275.58C234.007 274.287 234.38 273.187 235.127 272.28C235.887 271.373 236.894 270.92 238.147 270.92ZM236.107 274.3H239.787C239.734 273.5 239.587 272.88 239.347 272.44C239.027 271.773 238.574 271.44 237.987 271.44C236.987 271.44 236.36 272.393 236.107 274.3ZM253.206 271.1V271.64H251.706V279.46H253.206V280H248.306V279.46H249.806V275.86C249.326 276.167 248.846 276.367 248.366 276.46C248.073 276.54 247.753 276.58 247.406 276.58C246.3 276.58 245.473 276.333 244.926 275.84C244.393 275.347 244.126 274.553 244.126 273.46V271.64H242.626V271.1H247.426V271.64H246.026V273.72C246.026 274.427 246.16 274.96 246.426 275.32C246.693 275.68 247.166 275.86 247.846 275.86C248.273 275.86 248.746 275.773 249.266 275.6C249.44 275.533 249.62 275.44 249.806 275.32V271.64H248.406V271.1H253.206ZM258.008 271.64V275.02H258.848C259.301 275.02 259.648 274.933 259.888 274.76C260.128 274.587 260.341 274.28 260.528 273.84C260.594 273.693 260.674 273.5 260.768 273.26C260.874 273.007 260.941 272.84 260.968 272.76C261.074 272.467 261.161 272.24 261.228 272.08C261.294 271.92 261.394 271.747 261.528 271.56C261.661 271.36 261.821 271.22 262.008 271.14C262.194 271.047 262.421 271 262.688 271C263.021 271 263.301 271.093 263.528 271.28C263.728 271.48 263.828 271.753 263.828 272.1C263.828 272.393 263.734 272.647 263.548 272.86C263.374 273.06 263.141 273.16 262.848 273.16C262.581 273.16 262.361 273.087 262.188 272.94C262.014 272.793 261.928 272.593 261.928 272.34C261.928 272.153 261.994 271.933 262.128 271.68C262.048 271.72 261.981 271.787 261.928 271.88C261.874 271.987 261.794 272.147 261.688 272.36L261.028 274C260.894 274.307 260.754 274.547 260.608 274.72C260.461 274.88 260.248 275.013 259.968 275.12V275.2C261.608 275.2 262.501 275.753 262.648 276.86C262.661 276.9 262.674 276.987 262.688 277.12C262.714 277.253 262.734 277.347 262.748 277.4C262.748 277.44 262.748 277.507 262.748 277.6C262.761 277.68 262.774 277.74 262.788 277.78L262.848 278.08L262.908 278.44C263.068 279.12 263.514 279.46 264.248 279.46H264.768V280H263.148C262.334 280 261.788 279.833 261.508 279.5C261.241 279.153 261.061 278.573 260.968 277.76C260.874 277.213 260.801 276.807 260.748 276.54C260.681 276.18 260.561 275.92 260.388 275.76C260.201 275.613 259.874 275.54 259.408 275.54H258.008V279.46H259.508V280H254.608V279.46H256.108V271.64H254.608V271.1H259.508V271.64H258.008ZM276.663 271.1V271.64H275.162V279.46H276.663V280H271.863V279.46H273.263V273.26L269.263 278.92V279.46H270.663V280H265.863V279.46H267.363V271.64H265.863V271.1H270.663V271.64H269.263V277.98L273.263 272.32V271.64H271.863V271.1H276.663ZM295.294 271.1V271.64H293.794V279.46H295.294V280H290.494V279.46H291.894V272.22L288.614 280.16H288.074L284.974 272.18V279.46H286.374V280H282.874V279.46H284.374V271.64H283.074V271.1H286.454L289.014 277.58L291.714 271.1H295.294ZM300.238 275.14C300.984 275.14 301.624 275.24 302.158 275.44V273.04C302.158 272.493 302.031 272.093 301.778 271.84C301.538 271.573 301.144 271.44 300.598 271.44C299.944 271.44 299.398 271.613 298.958 271.96C299.131 272.013 299.304 272.127 299.478 272.3C299.624 272.487 299.698 272.727 299.698 273.02C299.698 273.313 299.604 273.553 299.418 273.74C299.231 273.927 298.991 274.02 298.698 274.02C298.404 274.02 298.171 273.92 297.998 273.72C297.811 273.533 297.718 273.287 297.718 272.98C297.718 272.34 298.071 271.84 298.778 271.48C299.498 271.107 300.218 270.92 300.938 270.92C303.018 270.92 304.058 271.693 304.058 273.24V278.48C304.058 279.053 304.271 279.34 304.698 279.34C304.898 279.34 305.084 279.267 305.258 279.12C305.391 278.987 305.511 278.847 305.618 278.7L305.938 279.02C305.418 279.78 304.784 280.16 304.038 280.16C303.651 280.16 303.304 280.08 302.998 279.92C302.691 279.773 302.444 279.5 302.258 279.1C301.431 279.82 300.524 280.18 299.538 280.18C298.778 280.18 298.144 279.96 297.638 279.52C297.144 279.067 296.898 278.467 296.898 277.72C296.898 276.827 297.218 276.173 297.858 275.76C298.511 275.347 299.304 275.14 300.238 275.14ZM298.898 277.48C298.898 278.04 299.038 278.48 299.318 278.8C299.611 279.12 300.031 279.28 300.578 279.28C300.898 279.28 301.184 279.22 301.438 279.1C301.691 279.007 301.931 278.853 302.158 278.64V275.94C301.904 275.847 301.651 275.767 301.398 275.7C301.158 275.66 300.891 275.64 300.598 275.64C300.038 275.64 299.611 275.807 299.318 276.14C299.038 276.46 298.898 276.907 298.898 277.48ZM308.041 280.16C307.615 280.16 307.268 280.053 307.001 279.84C306.748 279.627 306.621 279.313 306.621 278.9C306.621 278.58 306.715 278.313 306.901 278.1C307.101 277.873 307.361 277.76 307.681 277.76C307.961 277.76 308.181 277.847 308.341 278.02C308.515 278.18 308.601 278.4 308.601 278.68C308.601 279.08 308.421 279.353 308.061 279.5C308.088 279.527 308.141 279.54 308.221 279.54C308.808 279.54 309.275 279.147 309.621 278.36C309.675 278.187 309.735 277.953 309.801 277.66C309.935 276.713 310.041 275.48 310.121 273.96C310.121 273.84 310.121 273.667 310.121 273.44C310.135 273.213 310.148 273.047 310.161 272.94C310.175 272.82 310.181 272.64 310.181 272.4C310.195 272.147 310.201 271.96 310.201 271.84L308.441 271.64V271.1H316.801V271.64H315.301V279.46H316.801V280H312.001V279.46H313.401V271.64H310.841C310.828 271.893 310.808 272.26 310.781 272.74C310.768 273.007 310.748 273.34 310.721 273.74C310.721 273.86 310.715 274.027 310.701 274.24C310.701 274.453 310.695 274.613 310.681 274.72C310.641 275.333 310.601 275.88 310.561 276.36C310.521 276.773 310.481 277.127 310.441 277.42C310.401 277.7 310.321 278.027 310.201 278.4C310.095 278.773 309.955 279.08 309.781 279.32C309.621 279.547 309.388 279.747 309.081 279.92C308.788 280.08 308.441 280.16 308.041 280.16ZM322.902 270.92C324.275 270.92 325.368 271.353 326.182 272.22C326.995 273.073 327.402 274.173 327.402 275.52C327.402 276.867 326.982 277.98 326.142 278.86C325.302 279.727 324.222 280.16 322.902 280.16C321.502 280.16 320.402 279.74 319.602 278.9C318.802 278.047 318.402 276.927 318.402 275.54C318.402 274.18 318.815 273.073 319.642 272.22C320.482 271.353 321.568 270.92 322.902 270.92ZM322.882 279.62C323.348 279.62 323.748 279.487 324.082 279.22C324.428 278.94 324.688 278.587 324.862 278.16C325.035 277.72 325.162 277.287 325.242 276.86C325.322 276.42 325.362 275.98 325.362 275.54C325.362 275.087 325.322 274.647 325.242 274.22C325.175 273.793 325.055 273.36 324.882 272.92C324.722 272.48 324.468 272.127 324.122 271.86C323.788 271.593 323.382 271.46 322.902 271.46C322.448 271.46 322.048 271.6 321.702 271.88C321.368 272.147 321.115 272.5 320.942 272.94C320.768 273.367 320.642 273.8 320.562 274.24C320.482 274.68 320.442 275.113 320.442 275.54C320.442 276.74 320.655 277.693 321.082 278.4C321.508 279.213 322.108 279.62 322.882 279.62ZM339.807 271.1V271.64H338.307V279.46H339.807V280H335.007V279.46H336.407V273.26L332.407 278.92V279.46H333.807V280H329.007V279.46H330.507V271.64H329.007V271.1H333.807V271.64H332.407V277.98L336.407 272.32V271.64H335.007V271.1H339.807ZM334.447 269.72C333.18 269.72 332.32 269.4 331.867 268.76C331.694 268.547 331.607 268.287 331.607 267.98C331.607 267.7 331.687 267.467 331.847 267.28C332.02 267.08 332.247 266.98 332.527 266.98C332.794 266.98 333.014 267.06 333.187 267.22C333.347 267.38 333.427 267.593 333.427 267.86C333.427 268.087 333.347 268.28 333.187 268.44C333.027 268.587 332.827 268.673 332.587 268.7C332.96 269.073 333.56 269.26 334.387 269.26C335.214 269.26 335.814 269.073 336.187 268.7C335.934 268.673 335.727 268.587 335.567 268.44C335.42 268.28 335.347 268.073 335.347 267.82C335.347 267.58 335.434 267.38 335.607 267.22C335.794 267.06 336.007 266.98 336.247 266.98C336.54 266.98 336.767 267.073 336.927 267.26C337.087 267.447 337.167 267.687 337.167 267.98C337.167 268.58 336.88 269.02 336.307 269.3C335.734 269.58 335.114 269.72 334.447 269.72ZM349.299 279.46V271.72H346.999L346.359 274.58H345.819V271.1H354.679V274.58H354.139L353.499 271.72H351.199V279.46H352.699V280H347.799V279.46H349.299ZM360.577 270.92C361.951 270.92 363.044 271.353 363.857 272.22C364.671 273.073 365.077 274.173 365.077 275.52C365.077 276.867 364.657 277.98 363.817 278.86C362.977 279.727 361.897 280.16 360.577 280.16C359.177 280.16 358.077 279.74 357.277 278.9C356.477 278.047 356.077 276.927 356.077 275.54C356.077 274.18 356.491 273.073 357.317 272.22C358.157 271.353 359.244 270.92 360.577 270.92ZM360.557 279.62C361.024 279.62 361.424 279.487 361.757 279.22C362.104 278.94 362.364 278.587 362.537 278.16C362.711 277.72 362.837 277.287 362.917 276.86C362.997 276.42 363.037 275.98 363.037 275.54C363.037 275.087 362.997 274.647 362.917 274.22C362.851 273.793 362.731 273.36 362.557 272.92C362.397 272.48 362.144 272.127 361.797 271.86C361.464 271.593 361.057 271.46 360.577 271.46C360.124 271.46 359.724 271.6 359.377 271.88C359.044 272.147 358.791 272.5 358.617 272.94C358.444 273.367 358.317 273.8 358.237 274.24C358.157 274.68 358.117 275.113 358.117 275.54C358.117 276.74 358.331 277.693 358.757 278.4C359.184 279.213 359.784 279.62 360.557 279.62ZM367.475 280.16C367.048 280.16 366.702 280.053 366.435 279.84C366.182 279.627 366.055 279.313 366.055 278.9C366.055 278.58 366.148 278.313 366.335 278.1C366.535 277.873 366.795 277.76 367.115 277.76C367.395 277.76 367.615 277.847 367.775 278.02C367.948 278.18 368.035 278.4 368.035 278.68C368.035 279.08 367.855 279.353 367.495 279.5C367.522 279.527 367.575 279.54 367.655 279.54C368.242 279.54 368.708 279.147 369.055 278.36C369.108 278.187 369.168 277.953 369.235 277.66C369.368 276.713 369.475 275.48 369.555 273.96C369.555 273.84 369.555 273.667 369.555 273.44C369.568 273.213 369.582 273.047 369.595 272.94C369.608 272.82 369.615 272.64 369.615 272.4C369.628 272.147 369.635 271.96 369.635 271.84L367.875 271.64V271.1H376.235V271.64H374.735V279.46H376.235V280H371.435V279.46H372.835V271.64H370.275C370.262 271.893 370.242 272.26 370.215 272.74C370.202 273.007 370.182 273.34 370.155 273.74C370.155 273.86 370.148 274.027 370.135 274.24C370.135 274.453 370.128 274.613 370.115 274.72C370.075 275.333 370.035 275.88 369.995 276.36C369.955 276.773 369.915 277.127 369.875 277.42C369.835 277.7 369.755 278.027 369.635 278.4C369.528 278.773 369.388 279.08 369.215 279.32C369.055 279.547 368.822 279.747 368.515 279.92C368.222 280.08 367.875 280.16 367.475 280.16ZM393.575 282.92H393.035L392.295 280H377.835V279.46H379.335V271.64H377.835V271.1H382.635V271.64H381.235V279.46H384.735V271.64H383.335V271.1H388.035V271.64H386.635V279.46H390.135V271.64H388.735V271.1H393.535V271.64H392.035V279.46H393.575V282.92ZM405.979 271.1V271.64H404.479V279.46H405.979V280H401.179V279.46H402.579V273.26L398.579 278.92V279.46H399.979V280H395.179V279.46H396.679V271.64H395.179V271.1H399.979V271.64H398.579V277.98L402.579 272.32V271.64H401.179V271.1H405.979ZM418.381 271.1V271.64H416.881V279.46H418.381V280H413.581V279.46H414.981V275.86H410.981V279.46H412.381V280H407.581V279.46H409.081V271.64H407.581V271.1H412.381V271.64H410.981V275.32H414.981V271.64H413.581V271.1H418.381ZM432.124 271.64V279.46H433.524V280H428.724V279.46H430.224V271.64H428.724V271.1H433.524V271.64H432.124ZM424.884 271.1V271.64H423.384V275.08C423.877 274.973 424.45 274.92 425.104 274.92C427.357 274.92 428.484 275.707 428.484 277.28C428.484 278.147 428.17 278.82 427.544 279.3C426.917 279.767 426.164 280 425.284 280H419.984V279.46H421.484V271.64H419.984V271.1H424.884ZM423.384 275.62V279.46H424.664C425.877 279.46 426.484 278.753 426.484 277.34C426.484 276.753 426.33 276.287 426.024 275.94C425.704 275.62 425.25 275.46 424.664 275.46C424.264 275.46 423.837 275.513 423.384 275.62Z" fill="white"/>
<path d="M151.5 135.13L153.005 129.325H205.68L204.175 135.13H188.05L158.38 219.195H174.505L173 225H120.325L121.83 219.195H137.955L167.625 135.13H151.5ZM386.164 150.825C386.164 157.275 384.444 163.582 381.004 169.745C377.707 175.908 373.264 181.427 367.674 186.3C362.084 191.03 356.351 195.187 350.474 198.77C344.597 202.21 338.506 205.22 332.199 207.8H365.954L384.444 182.215H390.249L373.049 225H293.929L295.219 219.84C296.509 219.553 299.877 218.622 305.324 217.045C311.774 214.752 318.296 211.67 324.889 207.8C331.626 203.787 338.076 199.2 344.239 194.04C350.402 188.737 355.419 182.645 359.289 175.765C363.159 168.885 365.094 162.005 365.094 155.125C365.094 149.248 363.446 144.662 360.149 141.365C356.996 138.068 352.481 136.42 346.604 136.42C339.007 136.42 332.199 139.573 326.179 145.88C320.302 152.187 317.364 159.138 317.364 166.735C319.944 162.578 323.241 160.5 327.254 160.5C332.987 160.5 335.854 163.367 335.854 169.1C335.854 172.683 334.636 175.837 332.199 178.56C329.762 181.283 326.752 182.645 323.169 182.645C319.442 182.645 316.504 181.355 314.354 178.775C312.204 176.052 311.129 172.755 311.129 168.885C311.129 157.132 315.931 147.242 325.534 139.215C335.281 131.188 346.102 127.175 357.999 127.175C366.456 127.175 373.264 129.11 378.424 132.98C383.584 136.707 386.164 142.655 386.164 150.825ZM553.752 127.175C562.638 127.175 570.092 129.038 576.112 132.765C582.132 136.492 585.142 142.512 585.142 150.825C585.142 162.722 580.627 172.468 571.597 180.065C562.567 187.518 551.817 192.177 539.347 194.04L539.132 194.9C543.432 195.187 547.23 195.688 550.527 196.405C553.823 196.978 557.192 198.053 560.632 199.63C564.072 201.207 566.723 203.5 568.587 206.51C570.45 209.52 571.382 213.247 571.382 217.69C571.382 229.73 566.15 240.05 555.687 248.65C545.223 257.393 533.757 261.765 521.287 261.765C512.687 261.765 505.305 259.973 499.142 256.39C492.978 252.95 489.897 247.288 489.897 239.405C489.897 233.958 491.115 229.515 493.552 226.075C495.988 222.635 499.787 220.915 504.947 220.915C511.253 220.915 514.407 224.14 514.407 230.59C514.407 234.03 513.26 236.968 510.967 239.405C508.817 241.842 506.022 243.06 502.582 243.06C501.148 243.06 499.93 242.845 498.927 242.415C497.78 241.698 496.92 240.982 496.347 240.265C496.06 244.995 497.923 248.722 501.937 251.445C505.95 254.168 510.752 255.53 516.342 255.53C525.945 255.53 533.9 251.373 540.207 243.06C546.657 234.747 549.882 225.645 549.882 215.755C549.882 209.018 548.018 204.36 544.292 201.78C540.565 199.2 535.118 197.91 527.952 197.91H522.362L523.867 192.105H529.457C538.773 192.105 546.8 188.307 553.537 180.71C560.273 172.97 563.642 164.37 563.642 154.91C563.642 148.747 561.85 143.873 558.267 140.29C555.257 137.71 550.957 136.42 545.367 136.42C538.63 136.42 532.467 138.427 526.877 142.44C520.427 147.743 517.202 152.473 517.202 156.63V157.705C518.348 156.415 519.638 155.34 521.072 154.48C522.505 153.763 524.01 153.405 525.587 153.405C528.31 153.405 530.46 154.193 532.037 155.77C533.47 157.347 534.187 159.497 534.187 162.22C534.187 165.947 532.897 169.1 530.317 171.68C527.88 174.26 524.798 175.55 521.072 175.55C517.775 175.55 515.123 174.403 513.117 172.11C511.253 169.817 510.322 166.95 510.322 163.51C510.322 153.333 514.908 144.733 524.082 137.71C533.255 130.687 543.145 127.175 553.752 127.175Z" fill="white"/>
<path d="M671 430.369V442.808H636.619V622.931H671V635.369H558.688V622.931H593.069V542.313H565.105C554.715 542.313 547.227 544.77 542.643 549.684C538.059 554.291 534.697 561.969 532.558 572.718L525.682 609.111C522.32 626.617 509.637 635.369 487.633 635.369H445V622.931H459.211C466.546 622.931 472.199 621.396 476.172 618.324C479.84 615.253 482.285 610.954 483.507 605.426L489.467 575.942C492.828 561.508 498.176 551.527 505.511 545.999C513.151 540.471 524.459 536.939 539.434 535.403V533.56C523.237 532.332 509.026 528.032 496.801 520.662C484.882 512.984 478.923 501.62 478.923 486.572C478.923 466.916 486.716 452.635 502.302 443.729C517.888 434.823 536.225 430.369 557.312 430.369H671ZM593.069 442.808H569.69C552.881 442.808 541.115 447.107 534.391 455.706C527.668 463.384 524.306 473.673 524.306 486.572C524.306 515.441 539.128 529.875 568.773 529.875H593.069V442.808Z" fill="white"/>
<path d="M383.079 417.464C382.701 417.464 382.297 417.437 381.865 417.383C381.56 417.366 381.137 417.303 380.598 417.195V425.177H383.429V425.905H375.34V425.177H377.901V407.73H375.34V407.002H383.402C385.218 407.002 386.71 407.379 387.879 408.134C389.047 408.871 389.632 410.076 389.632 411.748C389.632 413.563 388.993 414.975 387.717 415.981C386.459 416.97 384.913 417.464 383.079 417.464ZM382.755 416.736C384.068 416.736 385.056 416.26 385.722 415.307C386.405 414.354 386.746 413.204 386.746 411.855C386.746 410.453 386.414 409.419 385.749 408.754C385.083 408.071 384.05 407.73 382.647 407.73H380.598V416.413C381.227 416.628 381.946 416.736 382.755 416.736Z" fill="white"/>
<path d="M402.241 416.871C403.086 417.392 403.653 418.076 403.94 418.921C404.084 419.406 404.156 419.963 404.156 420.592C404.156 422.156 403.599 423.469 402.484 424.53C401.369 425.59 400.03 426.121 398.466 426.121C396.201 426.121 394.52 425.285 393.423 423.613L393.235 426.121H392.399V419.433H393.154C393.28 421.141 393.774 422.561 394.637 423.694C395.518 424.808 396.776 425.365 398.412 425.365C398.915 425.365 399.392 425.285 399.841 425.123C400.578 424.907 401.154 424.503 401.567 423.909C401.981 423.298 402.187 422.597 402.187 421.806C402.187 420.979 401.999 420.332 401.621 419.864C401.262 419.397 400.677 418.957 399.868 418.543C399.635 418.417 399.284 418.246 398.817 418.031C398.223 417.761 397.864 417.59 397.738 417.518C397.396 417.321 397.019 417.132 396.605 416.952C395.904 416.628 395.329 416.341 394.88 416.089C394.448 415.819 393.999 415.487 393.531 415.091C393.064 414.696 392.713 414.228 392.48 413.689C392.264 413.15 392.156 412.539 392.156 411.855C392.156 410.327 392.65 409.105 393.639 408.188C394.646 407.253 395.904 406.786 397.414 406.786C399.392 406.786 400.821 407.514 401.702 408.97L402.053 406.57H402.754V413.285H402.026C402.026 411.721 401.648 410.363 400.893 409.213C400.138 408.062 399.023 407.487 397.549 407.487C396.56 407.487 395.751 407.757 395.122 408.296C394.511 408.835 394.205 409.581 394.205 410.534C394.205 411.361 394.43 412.026 394.88 412.53C395.329 413.087 395.922 413.563 396.659 413.959C397.271 414.282 397.684 414.498 397.9 414.606C398.691 415.037 399.365 415.37 399.922 415.604C400.965 416.143 401.738 416.566 402.241 416.871Z" fill="white"/>
<path d="M411.295 408.78V407.714H420.748V408.78H417.854V424.22H420.748V425.286H411.295V424.22H414.189V408.78H411.295Z" fill="white"/>
<path d="M429.871 407.319C431.801 407.319 433.447 407.806 434.811 408.78C436.2 409.754 436.894 411.176 436.894 413.045C436.894 414.808 436.264 416.296 435.003 417.507C433.743 418.691 432.238 419.389 430.489 419.6V419.758C431.749 419.837 432.868 420.047 433.846 420.389C434.849 420.732 435.711 421.337 436.431 422.206C437.151 423.074 437.512 424.154 437.512 425.444C437.512 426.391 437.319 427.286 436.933 428.129C436.238 429.419 435.248 430.393 433.962 431.051C432.675 431.709 431.273 432.038 429.756 432.038C428.032 432.038 426.579 431.63 425.395 430.814C424.238 430.024 423.659 428.8 423.659 427.142C423.659 426.51 423.865 425.97 424.276 425.523C424.714 425.101 425.241 424.891 425.858 424.891C426.424 424.891 426.875 425.049 427.209 425.365C427.543 425.681 427.711 426.115 427.711 426.668C427.711 427.221 427.53 427.681 427.17 428.05C426.759 428.418 426.296 428.603 425.781 428.603C425.524 428.603 425.28 428.563 425.048 428.484C425.64 430.09 426.952 430.893 428.984 430.893C430.502 430.893 431.646 430.353 432.418 429.274C433.216 428.221 433.614 426.892 433.614 425.286C433.614 423.575 433.203 422.324 432.38 421.534C431.556 420.718 430.309 420.31 428.637 420.31H427.633V419.244H428.637C430.129 419.244 431.235 418.731 431.955 417.704C432.701 416.651 433.074 415.335 433.074 413.755C433.074 410.544 431.569 408.938 428.559 408.938C427.325 408.938 426.386 409.307 425.743 410.044C425.048 410.754 424.701 411.557 424.701 412.452V412.808C424.701 412.86 424.727 412.966 424.778 413.124C424.958 412.887 425.164 412.703 425.395 412.571C425.704 412.439 425.974 412.373 426.206 412.373C426.772 412.373 427.235 412.558 427.595 412.926C427.929 413.295 428.096 413.755 428.096 414.308C428.096 414.808 427.916 415.243 427.556 415.611C427.145 415.98 426.694 416.164 426.206 416.164C425.408 416.164 424.778 415.835 424.315 415.177C423.878 414.493 423.659 413.729 423.659 412.887C423.659 411.123 424.251 409.754 425.434 408.78C426.643 407.806 428.122 407.319 429.871 407.319Z" fill="white"/>
<path d="M18.7393 38.8943C18.3618 38.8943 17.9573 38.8674 17.5258 38.8134C17.2202 38.7954 16.7977 38.7325 16.2584 38.6247V46.6066H19.0898V47.3347H11V46.6066H13.5618V29.1595H11V28.4315H19.0629C20.8786 28.4315 22.3707 28.809 23.5393 29.564C24.7078 30.3011 25.2921 31.5056 25.2921 33.1775C25.2921 34.9932 24.6539 36.4044 23.3775 37.4112C22.119 38.3999 20.573 38.8943 18.7393 38.8943ZM18.4157 38.1662C19.728 38.1662 20.7168 37.6898 21.382 36.737C22.0651 35.7842 22.4067 34.6337 22.4067 33.2854C22.4067 31.8831 22.0741 30.8494 21.4089 30.1843C20.7438 29.5011 19.7101 29.1595 18.3078 29.1595H16.2584V37.8426C16.8876 38.0584 17.6067 38.1662 18.4157 38.1662Z" fill="white"/>
<path d="M37.9017 38.3011C38.7466 38.8224 39.3129 39.5056 39.6005 40.3505C39.7444 40.8359 39.8163 41.3932 39.8163 42.0224C39.8163 43.5864 39.259 44.8988 38.1444 45.9595C37.0298 47.0201 35.6905 47.5505 34.1264 47.5505C31.8613 47.5505 30.1804 46.7145 29.0838 45.0426L28.895 47.5505H28.059V40.8629H28.8141C28.9399 42.5707 29.4343 43.9909 30.2972 45.1235C31.1781 46.2381 32.4365 46.7954 34.0725 46.7954C34.5759 46.7954 35.0523 46.7145 35.5017 46.5527C36.2388 46.337 36.814 45.9325 37.2275 45.3392C37.641 44.728 37.8477 44.0269 37.8477 43.2359C37.8477 42.4089 37.659 41.7617 37.2815 41.2943C36.9219 40.8269 36.3376 40.3864 35.5287 39.973C35.295 39.8471 34.9444 39.6763 34.477 39.4606C33.8837 39.1909 33.5242 39.0202 33.3983 38.9483C33.0568 38.7505 32.6792 38.5617 32.2658 38.382C31.5646 38.0584 30.9894 37.7707 30.5399 37.519C30.1085 37.2494 29.659 36.9168 29.1916 36.5213C28.7242 36.1258 28.3736 35.6584 28.1399 35.1191C27.9242 34.5797 27.8163 33.9685 27.8163 33.2854C27.8163 31.7573 28.3107 30.5348 29.2995 29.618C30.3062 28.6831 31.5646 28.2157 33.0747 28.2157C35.0523 28.2157 36.4815 28.9438 37.3624 30.4L37.7129 28H38.414V34.7146H37.686C37.686 33.1505 37.3084 31.7932 36.5534 30.6427C35.7983 29.4921 34.6837 28.9168 33.2096 28.9168C32.2208 28.9168 31.4118 29.1865 30.7826 29.7258C30.1714 30.2652 29.8658 31.0112 29.8658 31.964C29.8658 32.791 30.0905 33.4561 30.5399 33.9595C30.9894 34.5168 31.5826 34.9932 32.3197 35.3887C32.9309 35.7123 33.3444 35.928 33.5601 36.0359C34.3511 36.4674 35.0253 36.8 35.5826 37.0337C36.6253 37.573 37.3983 37.9955 37.9017 38.3011Z" fill="white"/>
<path d="M62.2114 32.5537C62.2114 34.4656 61.3536 36.3632 59.6381 38.2466C57.9516 40.1299 56.1052 41.414 54.0988 42.0989H60.9466L63.3018 37.0053H64.4795L63.3018 45.5232H47.2511V44.4959C50.0135 43.9252 52.4705 42.6125 54.6222 40.558C56.803 38.5034 57.8934 36.1635 57.8934 33.5382C57.8934 31.9687 57.5009 30.7132 56.7158 29.7715C55.9598 28.8013 54.7967 28.3162 53.2265 28.3162C51.8889 28.3162 50.7985 28.7014 49.9553 29.4719C49.1411 30.2423 48.734 31.2696 48.734 32.5537C48.734 33.153 48.7922 33.6095 48.9085 33.9234C49.3156 33.3242 49.8826 33.0246 50.6095 33.0246C51.2492 33.0246 51.7726 33.2243 52.1797 33.6238C52.5287 34.0233 52.7031 34.5084 52.7031 35.0791C52.7031 35.6213 52.4996 36.0921 52.0925 36.4916C51.6854 36.8911 51.1911 37.0909 50.6095 37.0909C50.1152 37.0909 49.6645 36.9625 49.2574 36.7057C48.0362 36.0493 47.4256 34.7224 47.4256 32.7249C47.4256 30.6704 48.1525 29.0438 49.6064 27.8453C51.0893 26.6469 52.8776 26.0476 54.9712 26.0476C57.1229 26.0476 58.8675 26.6326 60.2051 27.8025C61.5426 28.944 62.2114 30.5277 62.2114 32.5537Z" fill="white"/>
<path d="M151.304 591.369L147.348 585.587C165.609 574.224 174.739 560.935 174.739 545.717C174.739 543.891 174.536 542.369 174.13 541.152C170.681 547.239 165.812 550.282 159.522 550.282C154.652 550.282 150.899 548.862 148.261 546.022C145.42 543.181 144 539.63 144 535.369C144 529.08 146.13 524.007 150.391 520.152C154.652 516.297 159.928 514.369 166.217 514.369C172.913 514.369 177.884 516.5 181.13 520.761C184.377 525.022 186 530.601 186 537.5C186 552.717 179 567.326 165 581.326C160.739 584.978 156.174 588.326 151.304 591.369Z" fill="white"/>
<rect x="2.5" y="2.86938" width="667" height="330" stroke="white" stroke-width="5"/>
<rect x="371.5" y="384.869" width="298" height="320" stroke="white" stroke-width="5"/>
<circle cx="458.427" cy="629.091" r="46.5662" transform="rotate(-78.8329 458.427 629.091)" stroke="white" stroke-width="3" stroke-dasharray="10 10"/>
<path d="M450.887 576.618L458.617 582.01L450.983 589.354" stroke="white" stroke-width="3" stroke-miterlimit="10"/>
<circle r="29.0365" transform="matrix(0.916695 -0.399588 -0.399588 -0.916695 127.146 226.478)" stroke="white" stroke-width="3" stroke-dasharray="10 10"/>
<path d="M115.609 203.932L124.451 197.929L114 193.5" stroke="white" stroke-width="3" stroke-miterlimit="10"/>
<path d="M650.2 224.764C650.592 224.374 650.594 223.741 650.205 223.349L643.863 216.963C643.474 216.572 642.841 216.569 642.449 216.959C642.057 217.348 642.055 217.981 642.444 218.373L648.081 224.049L642.405 229.686C642.013 230.076 642.011 230.709 642.4 231.101C642.789 231.492 643.422 231.495 643.814 231.106L650.2 224.764ZM0.0573308 222.807L5.13104 222.824L5.13796 220.824L0.0642512 220.807L0.0573308 222.807ZM15.2785 222.86L25.4259 222.895L25.4328 220.895L15.2854 220.86L15.2785 222.86ZM35.5733 222.93L45.7207 222.965L45.7276 220.965L35.5802 220.93L35.5733 222.93ZM55.8681 223L66.0156 223.035L66.0225 221.035L55.8751 221L55.8681 223ZM76.163 223.07L86.3104 223.105L86.3173 221.105L76.1699 221.07L76.163 223.07ZM96.4578 223.14L106.605 223.176L106.612 221.176L96.4647 221.14L96.4578 223.14ZM116.753 223.211L126.9 223.246L126.907 221.246L116.76 221.211L116.753 223.211ZM137.047 223.281L147.195 223.316L147.202 221.316L137.054 221.281L137.047 223.281ZM157.342 223.351L167.49 223.386L167.497 221.386L157.349 221.351L157.342 223.351ZM177.637 223.421L187.785 223.456L187.791 221.456L177.644 221.421L177.637 223.421ZM197.932 223.492L208.079 223.527L208.086 221.527L197.939 221.492L197.932 223.492ZM218.227 223.562L228.374 223.597L228.381 221.597L218.234 221.562L218.227 223.562ZM238.522 223.632L248.669 223.667L248.676 221.667L238.529 221.632L238.522 223.632ZM258.816 223.702L268.964 223.737L268.971 221.737L258.823 221.702L258.816 223.702ZM279.111 223.772L289.259 223.808L289.266 221.808L279.118 221.772L279.111 223.772ZM299.406 223.843L309.554 223.878L309.561 221.878L299.413 221.843L299.406 223.843ZM319.701 223.913L329.848 223.948L329.855 221.948L319.708 221.913L319.701 223.913ZM339.996 223.983L350.143 224.018L350.15 222.018L340.003 221.983L339.996 223.983ZM360.291 224.053L370.438 224.088L370.445 222.088L360.298 222.053L360.291 224.053ZM380.586 224.124L390.733 224.159L390.74 222.159L380.593 222.124L380.586 224.124ZM400.881 224.194L411.028 224.229L411.035 222.229L400.887 222.194L400.881 224.194ZM421.175 224.264L431.323 224.299L431.33 222.299L421.182 222.264L421.175 224.264ZM441.47 224.334L451.618 224.369L451.625 222.369L441.477 222.334L441.47 224.334ZM461.765 224.404L471.913 224.44L471.919 222.44L461.772 222.404L461.765 224.404ZM482.06 224.475L492.207 224.51L492.214 222.51L482.067 222.475L482.06 224.475ZM502.355 224.545L512.502 224.58L512.509 222.58L502.362 222.545L502.355 224.545ZM522.65 224.615L532.797 224.65L532.804 222.65L522.657 222.615L522.65 224.615ZM542.944 224.685L553.092 224.72L553.099 222.721L542.951 222.685L542.944 224.685ZM563.239 224.756L573.387 224.791L573.394 222.791L563.246 222.756L563.239 224.756ZM583.534 224.826L593.681 224.861L593.688 222.861L583.541 222.826L583.534 224.826ZM603.829 224.896L613.976 224.931L613.983 222.931L603.836 222.896L603.829 224.896ZM624.124 224.966L634.271 225.001L634.278 223.001L624.131 222.966L624.124 224.966ZM644.418 225.037L649.492 225.054L649.499 223.054L644.425 223.037L644.418 225.037ZM650.905 225.473C651.689 224.695 651.693 223.428 650.915 222.645L638.231 209.873C637.453 209.089 636.186 209.085 635.402 209.863C634.619 210.641 634.614 211.908 635.393 212.691L646.667 224.044L635.314 235.319C634.531 236.097 634.526 237.363 635.305 238.147C636.083 238.931 637.349 238.935 638.133 238.157L650.905 225.473ZM0.0538706 223.807L5.12758 223.824L5.14142 219.824L0.0677114 219.807L0.0538706 223.807ZM15.275 223.86L25.4224 223.895L25.4363 219.895L15.2888 219.86L15.275 223.86ZM35.5698 223.93L45.7173 223.965L45.7311 219.965L35.5837 219.93L35.5698 223.93ZM55.8647 224L66.0121 224.035L66.0259 220.035L55.8785 220L55.8647 224ZM76.1595 224.07L86.3069 224.105L86.3208 220.105L76.1734 220.07L76.1595 224.07ZM96.4544 224.14L106.602 224.176L106.616 220.176L96.4682 220.14L96.4544 224.14ZM116.749 224.211L126.897 224.246L126.91 220.246L116.763 220.211L116.749 224.211ZM137.044 224.281L147.191 224.316L147.205 220.316L137.058 220.281L137.044 224.281ZM157.339 224.351L167.486 224.386L167.5 220.386L157.353 220.351L157.339 224.351ZM177.634 224.421L187.781 224.456L187.795 220.456L177.648 220.421L177.634 224.421ZM197.928 224.492L208.076 224.527L208.09 220.527L197.942 220.492L197.928 224.492ZM218.223 224.562L228.371 224.597L228.385 220.597L218.237 220.562L218.223 224.562ZM238.518 224.632L248.666 224.667L248.679 220.667L238.532 220.632L238.518 224.632ZM258.813 224.702L268.96 224.737L268.974 220.737L258.827 220.702L258.813 224.702ZM279.108 224.772L289.255 224.808L289.269 220.808L279.122 220.772L279.108 224.772ZM299.403 224.843L309.55 224.878L309.564 220.878L299.417 220.843L299.403 224.843ZM319.698 224.913L329.845 224.948L329.859 220.948L319.711 220.913L319.698 224.913ZM339.992 224.983L350.14 225.018L350.154 221.018L340.006 220.983L339.992 224.983ZM360.287 225.053L370.435 225.088L370.449 221.088L360.301 221.053L360.287 225.053ZM380.582 225.124L390.73 225.159L390.743 221.159L380.596 221.124L380.582 225.124ZM400.877 225.194L411.024 225.229L411.038 221.229L400.891 221.194L400.877 225.194ZM421.172 225.264L431.319 225.299L431.333 221.299L421.186 221.264L421.172 225.264ZM441.467 225.334L451.614 225.369L451.628 221.369L441.481 221.334L441.467 225.334ZM461.762 225.404L471.909 225.44L471.923 221.44L461.776 221.405L461.762 225.404ZM482.056 225.475L492.204 225.51L492.218 221.51L482.07 221.475L482.056 225.475ZM502.351 225.545L512.499 225.58L512.513 221.58L502.365 221.545L502.351 225.545ZM522.646 225.615L532.794 225.65L532.807 221.65L522.66 221.615L522.646 225.615ZM542.941 225.685L553.088 225.72L553.102 221.721L542.955 221.685L542.941 225.685ZM563.236 225.756L573.383 225.791L573.397 221.791L563.25 221.756L563.236 225.756ZM583.531 225.826L593.678 225.861L593.692 221.861L583.544 221.826L583.531 225.826ZM603.825 225.896L613.973 225.931L613.987 221.931L603.839 221.896L603.825 225.896ZM624.12 225.966L634.268 226.001L634.281 222.001L624.134 221.966L624.12 225.966ZM644.415 226.036L649.489 226.054L649.503 222.054L644.429 222.037L644.415 226.036Z" fill="white"/>
<path d="M845.705 135.378C846.097 134.989 846.099 134.356 845.71 133.964L839.368 127.578C838.979 127.186 838.346 127.184 837.954 127.573C837.562 127.962 837.56 128.596 837.949 128.988L843.586 134.664L837.91 140.301C837.518 140.69 837.516 141.323 837.905 141.715C838.294 142.107 838.927 142.109 839.319 141.72L845.705 135.378ZM195.562 133.422L200.636 133.439L200.643 131.439L195.569 131.422L195.562 133.422ZM210.783 133.474L220.931 133.509L220.937 131.509L210.79 131.474L210.783 133.474ZM231.078 133.545L241.225 133.58L241.232 131.58L231.085 131.545L231.078 133.545ZM251.373 133.615L261.52 133.65L261.527 131.65L251.38 131.615L251.373 133.615ZM271.668 133.685L281.815 133.72L281.822 131.72L271.675 131.685L271.668 133.685ZM291.962 133.755L302.11 133.79L302.117 131.79L291.969 131.755L291.962 133.755ZM312.257 133.825L322.405 133.861L322.412 131.861L312.264 131.825L312.257 133.825ZM332.552 133.896L342.7 133.931L342.706 131.931L332.559 131.896L332.552 133.896ZM352.847 133.966L362.994 134.001L363.001 132.001L352.854 131.966L352.847 133.966ZM373.142 134.036L383.289 134.071L383.296 132.071L373.149 132.036L373.142 134.036ZM393.437 134.106L403.584 134.141L403.591 132.141L393.444 132.106L393.437 134.106ZM413.731 134.177L423.879 134.212L423.886 132.212L413.738 132.177L413.731 134.177ZM434.026 134.247L444.174 134.282L444.181 132.282L434.033 132.247L434.026 134.247ZM454.321 134.317L464.469 134.352L464.475 132.352L454.328 132.317L454.321 134.317ZM474.616 134.387L484.763 134.422L484.77 132.422L474.623 132.387L474.616 134.387ZM494.911 134.457L505.058 134.493L505.065 132.493L494.918 132.457L494.911 134.457ZM515.206 134.528L525.353 134.563L525.36 132.563L515.213 132.528L515.206 134.528ZM535.501 134.598L545.648 134.633L545.655 132.633L535.507 132.598L535.501 134.598ZM555.795 134.668L565.943 134.703L565.95 132.703L555.802 132.668L555.795 134.668ZM576.09 134.738L586.238 134.773L586.245 132.773L576.097 132.738L576.09 134.738ZM596.385 134.809L606.533 134.844L606.539 132.844L596.392 132.809L596.385 134.809ZM616.68 134.879L626.827 134.914L626.834 132.914L616.687 132.879L616.68 134.879ZM636.975 134.949L647.122 134.984L647.129 132.984L636.982 132.949L636.975 134.949ZM657.27 135.019L667.417 135.054L667.424 133.054L657.277 133.019L657.27 135.019ZM677.565 135.089L687.712 135.125L687.719 133.125L677.572 133.089L677.565 135.089ZM697.859 135.16L708.007 135.195L708.014 133.195L697.866 133.16L697.859 135.16ZM718.154 135.23L728.302 135.265L728.309 133.265L718.161 133.23L718.154 135.23ZM738.449 135.3L748.596 135.335L748.603 133.335L738.456 133.3L738.449 135.3ZM758.744 135.37L768.891 135.405L768.898 133.405L758.751 133.37L758.744 135.37ZM779.039 135.441L789.186 135.476L789.193 133.476L779.046 133.441L779.039 135.441ZM799.333 135.511L809.481 135.546L809.488 133.546L799.34 133.511L799.333 135.511ZM819.628 135.581L829.776 135.616L829.783 133.616L819.635 133.581L819.628 135.581ZM839.923 135.651L844.997 135.669L845.004 133.669L839.93 133.651L839.923 135.651ZM846.41 136.088C847.193 135.31 847.198 134.043 846.419 133.259L833.735 120.488C832.957 119.704 831.691 119.699 830.907 120.478C830.123 121.256 830.119 122.522 830.897 123.306L842.172 134.659L830.819 145.934C830.035 146.712 830.031 147.978 830.809 148.762C831.588 149.546 832.854 149.55 833.638 148.772L846.41 136.088ZM195.559 134.422L200.632 134.439L200.646 130.439L195.572 130.422L195.559 134.422ZM210.78 134.474L220.927 134.509L220.941 130.509L210.793 130.474L210.78 134.474ZM231.074 134.545L241.222 134.58L241.236 130.58L231.088 130.545L231.074 134.545ZM251.369 134.615L261.517 134.65L261.531 130.65L251.383 130.615L251.369 134.615ZM271.664 134.685L281.812 134.72L281.825 130.72L271.678 130.685L271.664 134.685ZM291.959 134.755L302.106 134.79L302.12 130.79L291.973 130.755L291.959 134.755ZM312.254 134.825L322.401 134.861L322.415 130.861L312.268 130.825L312.254 134.825ZM332.549 134.896L342.696 134.931L342.71 130.931L332.562 130.896L332.549 134.896ZM352.843 134.966L362.991 135.001L363.005 131.001L352.857 130.966L352.843 134.966ZM373.138 135.036L383.286 135.071L383.3 131.071L373.152 131.036L373.138 135.036ZM393.433 135.106L403.581 135.141L403.594 131.141L393.447 131.106L393.433 135.106ZM413.728 135.177L423.875 135.212L423.889 131.212L413.742 131.177L413.728 135.177ZM434.023 135.247L444.17 135.282L444.184 131.282L434.037 131.247L434.023 135.247ZM454.318 135.317L464.465 135.352L464.479 131.352L454.331 131.317L454.318 135.317ZM474.613 135.387L484.76 135.422L484.774 131.422L474.626 131.387L474.613 135.387ZM494.907 135.457L505.055 135.493L505.069 131.493L494.921 131.457L494.907 135.457ZM515.202 135.528L525.35 135.563L525.364 131.563L515.216 131.528L515.202 135.528ZM535.497 135.598L545.645 135.633L545.658 131.633L535.511 131.598L535.497 135.598ZM555.792 135.668L565.939 135.703L565.953 131.703L555.806 131.668L555.792 135.668ZM576.087 135.738L586.234 135.773L586.248 131.773L576.101 131.738L576.087 135.738ZM596.382 135.809L606.529 135.844L606.543 131.844L596.396 131.809L596.382 135.809ZM616.677 135.879L626.824 135.914L626.838 131.914L616.69 131.879L616.677 135.879ZM636.971 135.949L647.119 135.984L647.133 131.984L636.985 131.949L636.971 135.949ZM657.266 136.019L667.414 136.054L667.428 132.054L657.28 132.019L657.266 136.019ZM677.561 136.089L687.709 136.125L687.722 132.125L677.575 132.089L677.561 136.089ZM697.856 136.16L708.003 136.195L708.017 132.195L697.87 132.16L697.856 136.16ZM718.151 136.23L728.298 136.265L728.312 132.265L718.165 132.23L718.151 136.23ZM738.446 136.3L748.593 136.335L748.607 132.335L738.459 132.3L738.446 136.3ZM758.74 136.37L768.888 136.405L768.902 132.405L758.754 132.37L758.74 136.37ZM779.035 136.441L789.183 136.476L789.196 132.476L779.049 132.441L779.035 136.441ZM799.33 136.511L809.477 136.546L809.491 132.546L799.344 132.511L799.33 136.511ZM819.625 136.581L829.772 136.616L829.786 132.616L819.639 132.581L819.625 136.581ZM839.92 136.651L844.993 136.669L845.007 132.669L839.933 132.651L839.92 136.651Z" fill="white"/>
<rect x="371.5" y="384.869" width="74" height="73" stroke="white" stroke-width="5"/>
<path d="M243.5 551.369C243.5 596.395 207.221 632.869 162.5 632.869C117.779 632.869 81.5 596.395 81.5 551.369C81.5 506.344 117.779 469.869 162.5 469.869C207.221 469.869 243.5 506.344 243.5 551.369Z" stroke="white" stroke-width="5"/>
<path d="M129.52 701.12H128.98V698.12H129.52L129.76 699.02C130.307 698.287 131.16 697.92 132.32 697.92C132.6 697.92 132.927 697.953 133.3 698.02C134.007 698.193 134.527 698.527 134.86 699.02C135.02 699.273 135.1 699.6 135.1 700C135.1 700.667 134.867 701.187 134.4 701.56C133.947 701.92 133.367 702.147 132.66 702.24V702.32C133.407 702.373 134.06 702.567 134.62 702.9C135.193 703.233 135.48 703.733 135.48 704.4C135.48 705.04 135.28 705.58 134.88 706.02C134.48 706.447 134.007 706.747 133.46 706.92C132.927 707.08 132.34 707.16 131.7 707.16C130.94 707.16 130.247 707 129.62 706.68C129.007 706.36 128.7 705.853 128.7 705.16C128.7 704.867 128.793 704.627 128.98 704.44C129.18 704.24 129.427 704.14 129.72 704.14C130.027 704.14 130.26 704.227 130.42 704.4C130.567 704.587 130.64 704.813 130.64 705.08C130.64 705.32 130.58 705.527 130.46 705.7C130.327 705.873 130.153 706 129.94 706.08C130.287 706.427 130.793 706.6 131.46 706.6C132.113 706.6 132.613 706.413 132.96 706.04C133.307 705.653 133.48 705.133 133.48 704.48C133.48 703.24 132.807 702.62 131.46 702.62H130.9V702.06H131.6C132.08 702.06 132.453 701.873 132.72 701.5C133 701.127 133.14 700.693 133.14 700.2C133.14 699.067 132.64 698.5 131.64 698.5C131.04 698.5 130.567 698.767 130.22 699.3C129.873 699.82 129.64 700.427 129.52 701.12ZM140.324 702.14C141.07 702.14 141.71 702.24 142.244 702.44V700.04C142.244 699.493 142.117 699.093 141.864 698.84C141.624 698.573 141.23 698.44 140.684 698.44C140.03 698.44 139.484 698.613 139.044 698.96C139.217 699.013 139.39 699.127 139.564 699.3C139.71 699.487 139.784 699.727 139.784 700.02C139.784 700.313 139.69 700.553 139.504 700.74C139.317 700.927 139.077 701.02 138.784 701.02C138.49 701.02 138.257 700.92 138.084 700.72C137.897 700.533 137.804 700.287 137.804 699.98C137.804 699.34 138.157 698.84 138.864 698.48C139.584 698.107 140.304 697.92 141.024 697.92C143.104 697.92 144.144 698.693 144.144 700.24V705.48C144.144 706.053 144.357 706.34 144.784 706.34C144.984 706.34 145.17 706.267 145.344 706.12C145.477 705.987 145.597 705.847 145.704 705.7L146.024 706.02C145.504 706.78 144.87 707.16 144.124 707.16C143.737 707.16 143.39 707.08 143.084 706.92C142.777 706.773 142.53 706.5 142.344 706.1C141.517 706.82 140.61 707.18 139.624 707.18C138.864 707.18 138.23 706.96 137.724 706.52C137.23 706.067 136.984 705.467 136.984 704.72C136.984 703.827 137.304 703.173 137.944 702.76C138.597 702.347 139.39 702.14 140.324 702.14ZM138.984 704.48C138.984 705.04 139.124 705.48 139.404 705.8C139.697 706.12 140.117 706.28 140.664 706.28C140.984 706.28 141.27 706.22 141.524 706.1C141.777 706.007 142.017 705.853 142.244 705.64V702.94C141.99 702.847 141.737 702.767 141.484 702.7C141.244 702.66 140.977 702.64 140.684 702.64C140.124 702.64 139.697 702.807 139.404 703.14C139.124 703.46 138.984 703.907 138.984 704.48ZM157.687 698.1V698.64H156.187V706.46H157.687V707H152.887V706.46H154.287V698.64H150.227V706.46H151.627V707H146.827V706.46H148.327V698.64H146.827V698.1H157.687ZM168.668 698.1V698.64H167.168V706.46H168.668V707H163.768V706.46H165.268V702.96H164.048C163.595 702.96 163.268 703.067 163.068 703.28C162.868 703.48 162.722 703.813 162.628 704.28L162.328 705.86C162.182 706.62 161.628 707 160.668 707H158.808V706.46H159.428C159.748 706.46 159.995 706.393 160.168 706.26C160.328 706.127 160.435 705.94 160.488 705.7L160.748 704.42C160.895 703.793 161.128 703.36 161.448 703.12C161.782 702.88 162.275 702.727 162.928 702.66V702.58C162.222 702.527 161.602 702.34 161.068 702.02C160.548 701.687 160.288 701.193 160.288 700.54C160.288 699.687 160.628 699.067 161.308 698.68C161.988 698.293 162.788 698.1 163.708 698.1H168.668ZM165.268 698.64H164.248C163.515 698.64 163.002 698.827 162.708 699.2C162.415 699.533 162.268 699.98 162.268 700.54C162.268 701.793 162.915 702.42 164.208 702.42H165.268V698.64ZM173.545 706.46V698.72H171.245L170.605 701.58H170.065V698.1H178.925V701.58H178.385L177.745 698.72H175.445V706.46H176.945V707H172.045V706.46H173.545ZM183.663 702.14C184.41 702.14 185.05 702.24 185.583 702.44V700.04C185.583 699.493 185.457 699.093 185.203 698.84C184.963 698.573 184.57 698.44 184.023 698.44C183.37 698.44 182.823 698.613 182.383 698.96C182.557 699.013 182.73 699.127 182.903 699.3C183.05 699.487 183.123 699.727 183.123 700.02C183.123 700.313 183.03 700.553 182.843 700.74C182.657 700.927 182.417 701.02 182.123 701.02C181.83 701.02 181.597 700.92 181.423 700.72C181.237 700.533 181.143 700.287 181.143 699.98C181.143 699.34 181.497 698.84 182.203 698.48C182.923 698.107 183.643 697.92 184.363 697.92C186.443 697.92 187.483 698.693 187.483 700.24V705.48C187.483 706.053 187.697 706.34 188.123 706.34C188.323 706.34 188.51 706.267 188.683 706.12C188.817 705.987 188.937 705.847 189.043 705.7L189.363 706.02C188.843 706.78 188.21 707.16 187.463 707.16C187.077 707.16 186.73 707.08 186.423 706.92C186.117 706.773 185.87 706.5 185.683 706.1C184.857 706.82 183.95 707.18 182.963 707.18C182.203 707.18 181.57 706.96 181.063 706.52C180.57 706.067 180.323 705.467 180.323 704.72C180.323 703.827 180.643 703.173 181.283 702.76C181.937 702.347 182.73 702.14 183.663 702.14ZM182.323 704.48C182.323 705.04 182.463 705.48 182.743 705.8C183.037 706.12 183.457 706.28 184.003 706.28C184.323 706.28 184.61 706.22 184.863 706.1C185.117 706.007 185.357 705.853 185.583 705.64V702.94C185.33 702.847 185.077 702.767 184.823 702.7C184.583 702.66 184.317 702.64 184.023 702.64C183.463 702.64 183.037 702.807 182.743 703.14C182.463 703.46 182.323 703.907 182.323 704.48ZM199.547 698.1V698.64H198.047V706.46H199.547V707H194.647V706.46H196.147V702.96H194.927C194.474 702.96 194.147 703.067 193.947 703.28C193.747 703.48 193.601 703.813 193.507 704.28L193.207 705.86C193.061 706.62 192.507 707 191.547 707H189.687V706.46H190.307C190.627 706.46 190.874 706.393 191.047 706.26C191.207 706.127 191.314 705.94 191.367 705.7L191.627 704.42C191.774 703.793 192.007 703.36 192.327 703.12C192.661 702.88 193.154 702.727 193.807 702.66V702.58C193.101 702.527 192.481 702.34 191.947 702.02C191.427 701.687 191.167 701.193 191.167 700.54C191.167 699.687 191.507 699.067 192.187 698.68C192.867 698.293 193.667 698.1 194.587 698.1H199.547ZM196.147 698.64H195.127C194.394 698.64 193.881 698.827 193.587 699.2C193.294 699.533 193.147 699.98 193.147 700.54C193.147 701.793 193.794 702.42 195.087 702.42H196.147V698.64Z" fill="white"/>
</svg>
