<svg width="669" height="708" viewBox="0 0 669 708" fill="none" xmlns="http://www.w3.org/2000/svg">
<rect x="2.5" y="2.86938" width="667" height="330" stroke="white" stroke-width="5"/>
<rect x="371.5" y="384.869" width="298" height="320" stroke="white" stroke-width="5"/>
<circle cx="458.427" cy="629.091" r="46.5662" transform="rotate(-78.8329 458.427 629.091)" stroke="white" stroke-width="3" stroke-dasharray="10 10"/>
<path d="M450.887 576.618L458.617 582.01L450.983 589.354" stroke="white" stroke-width="3" stroke-miterlimit="10"/>
<circle r="29.0365" transform="matrix(0.916695 -0.399588 -0.399588 -0.916695 127.146 226.478)" stroke="white" stroke-width="3" stroke-dasharray="10 10"/>
<path d="M115.609 203.932L124.451 197.929L114 193.5" stroke="white" stroke-width="3" stroke-miterlimit="10"/>
<path d="M650.2 224.764C650.592 224.374 650.594 223.741 650.205 223.349L643.863 216.963C643.474 216.572 642.841 216.569 642.449 216.959C642.057 217.348 642.055 217.981 642.444 218.373L648.081 224.049L642.405 229.686C642.013 230.076 642.011 230.709 642.4 231.101C642.789 231.492 643.422 231.495 643.814 231.106L650.2 224.764ZM0.0573308 222.807L5.13104 222.824L5.13796 220.824L0.0642512 220.807L0.0573308 222.807ZM15.2785 222.86L25.4259 222.895L25.4328 220.895L15.2854 220.86L15.2785 222.86ZM35.5733 222.93L45.7207 222.965L45.7276 220.965L35.5802 220.93L35.5733 222.93ZM55.8681 223L66.0156 223.035L66.0225 221.035L55.8751 221L55.8681 223ZM76.163 223.07L86.3104 223.105L86.3173 221.105L76.1699 221.07L76.163 223.07ZM96.4578 223.14L106.605 223.176L106.612 221.176L96.4647 221.14L96.4578 223.14ZM116.753 223.211L126.9 223.246L126.907 221.246L116.76 221.211L116.753 223.211ZM137.047 223.281L147.195 223.316L147.202 221.316L137.054 221.281L137.047 223.281ZM157.342 223.351L167.49 223.386L167.497 221.386L157.349 221.351L157.342 223.351ZM177.637 223.421L187.785 223.456L187.791 221.456L177.644 221.421L177.637 223.421ZM197.932 223.492L208.079 223.527L208.086 221.527L197.939 221.492L197.932 223.492ZM218.227 223.562L228.374 223.597L228.381 221.597L218.234 221.562L218.227 223.562ZM238.522 223.632L248.669 223.667L248.676 221.667L238.529 221.632L238.522 223.632ZM258.816 223.702L268.964 223.737L268.971 221.737L258.823 221.702L258.816 223.702ZM279.111 223.772L289.259 223.808L289.266 221.808L279.118 221.772L279.111 223.772ZM299.406 223.843L309.554 223.878L309.561 221.878L299.413 221.843L299.406 223.843ZM319.701 223.913L329.848 223.948L329.855 221.948L319.708 221.913L319.701 223.913ZM339.996 223.983L350.143 224.018L350.15 222.018L340.003 221.983L339.996 223.983ZM360.291 224.053L370.438 224.088L370.445 222.088L360.298 222.053L360.291 224.053ZM380.586 224.124L390.733 224.159L390.74 222.159L380.593 222.124L380.586 224.124ZM400.881 224.194L411.028 224.229L411.035 222.229L400.887 222.194L400.881 224.194ZM421.175 224.264L431.323 224.299L431.33 222.299L421.182 222.264L421.175 224.264ZM441.47 224.334L451.618 224.369L451.625 222.369L441.477 222.334L441.47 224.334ZM461.765 224.404L471.913 224.44L471.919 222.44L461.772 222.404L461.765 224.404ZM482.06 224.475L492.207 224.51L492.214 222.51L482.067 222.475L482.06 224.475ZM502.355 224.545L512.502 224.58L512.509 222.58L502.362 222.545L502.355 224.545ZM522.65 224.615L532.797 224.65L532.804 222.65L522.657 222.615L522.65 224.615ZM542.944 224.685L553.092 224.72L553.099 222.721L542.951 222.685L542.944 224.685ZM563.239 224.756L573.387 224.791L573.394 222.791L563.246 222.756L563.239 224.756ZM583.534 224.826L593.681 224.861L593.688 222.861L583.541 222.826L583.534 224.826ZM603.829 224.896L613.976 224.931L613.983 222.931L603.836 222.896L603.829 224.896ZM624.124 224.966L634.271 225.001L634.278 223.001L624.131 222.966L624.124 224.966ZM644.418 225.037L649.492 225.054L649.499 223.054L644.425 223.037L644.418 225.037ZM650.905 225.473C651.689 224.695 651.693 223.428 650.915 222.645L638.231 209.873C637.453 209.089 636.186 209.085 635.402 209.863C634.619 210.641 634.614 211.908 635.393 212.691L646.667 224.044L635.314 235.319C634.531 236.097 634.526 237.363 635.305 238.147C636.083 238.931 637.349 238.935 638.133 238.157L650.905 225.473ZM0.0538706 223.807L5.12758 223.824L5.14142 219.824L0.0677114 219.807L0.0538706 223.807ZM15.275 223.86L25.4224 223.895L25.4363 219.895L15.2888 219.86L15.275 223.86ZM35.5698 223.93L45.7173 223.965L45.7311 219.965L35.5837 219.93L35.5698 223.93ZM55.8647 224L66.0121 224.035L66.0259 220.035L55.8785 220L55.8647 224ZM76.1595 224.07L86.3069 224.105L86.3208 220.105L76.1734 220.07L76.1595 224.07ZM96.4544 224.14L106.602 224.176L106.616 220.176L96.4682 220.14L96.4544 224.14ZM116.749 224.211L126.897 224.246L126.91 220.246L116.763 220.211L116.749 224.211ZM137.044 224.281L147.191 224.316L147.205 220.316L137.058 220.281L137.044 224.281ZM157.339 224.351L167.486 224.386L167.5 220.386L157.353 220.351L157.339 224.351ZM177.634 224.421L187.781 224.456L187.795 220.456L177.648 220.421L177.634 224.421ZM197.928 224.492L208.076 224.527L208.09 220.527L197.942 220.492L197.928 224.492ZM218.223 224.562L228.371 224.597L228.385 220.597L218.237 220.562L218.223 224.562ZM238.518 224.632L248.666 224.667L248.679 220.667L238.532 220.632L238.518 224.632ZM258.813 224.702L268.96 224.737L268.974 220.737L258.827 220.702L258.813 224.702ZM279.108 224.772L289.255 224.808L289.269 220.808L279.122 220.772L279.108 224.772ZM299.403 224.843L309.55 224.878L309.564 220.878L299.417 220.843L299.403 224.843ZM319.698 224.913L329.845 224.948L329.859 220.948L319.711 220.913L319.698 224.913ZM339.992 224.983L350.14 225.018L350.154 221.018L340.006 220.983L339.992 224.983ZM360.287 225.053L370.435 225.088L370.449 221.088L360.301 221.053L360.287 225.053ZM380.582 225.124L390.73 225.159L390.743 221.159L380.596 221.124L380.582 225.124ZM400.877 225.194L411.024 225.229L411.038 221.229L400.891 221.194L400.877 225.194ZM421.172 225.264L431.319 225.299L431.333 221.299L421.186 221.264L421.172 225.264ZM441.467 225.334L451.614 225.369L451.628 221.369L441.481 221.334L441.467 225.334ZM461.762 225.404L471.909 225.44L471.923 221.44L461.776 221.405L461.762 225.404ZM482.056 225.475L492.204 225.51L492.218 221.51L482.07 221.475L482.056 225.475ZM502.351 225.545L512.499 225.58L512.513 221.58L502.365 221.545L502.351 225.545ZM522.646 225.615L532.794 225.65L532.807 221.65L522.66 221.615L522.646 225.615ZM542.941 225.685L553.088 225.72L553.102 221.721L542.955 221.685L542.941 225.685ZM563.236 225.756L573.383 225.791L573.397 221.791L563.25 221.756L563.236 225.756ZM583.531 225.826L593.678 225.861L593.692 221.861L583.544 221.826L583.531 225.826ZM603.825 225.896L613.973 225.931L613.987 221.931L603.839 221.896L603.825 225.896ZM624.12 225.966L634.268 226.001L634.281 222.001L624.134 221.966L624.12 225.966ZM644.415 226.036L649.489 226.054L649.503 222.054L644.429 222.037L644.415 226.036Z" fill="white"/>
<path d="M845.705 135.378C846.097 134.989 846.099 134.356 845.71 133.964L839.368 127.578C838.979 127.186 838.346 127.184 837.954 127.573C837.562 127.962 837.56 128.596 837.949 128.988L843.586 134.664L837.91 140.301C837.518 140.69 837.516 141.323 837.905 141.715C838.294 142.107 838.927 142.109 839.319 141.72L845.705 135.378ZM195.562 133.422L200.636 133.439L200.643 131.439L195.569 131.422L195.562 133.422ZM210.783 133.474L220.931 133.509L220.937 131.509L210.79 131.474L210.783 133.474ZM231.078 133.545L241.225 133.58L241.232 131.58L231.085 131.545L231.078 133.545ZM251.373 133.615L261.52 133.65L261.527 131.65L251.38 131.615L251.373 133.615ZM271.668 133.685L281.815 133.72L281.822 131.72L271.675 131.685L271.668 133.685ZM291.962 133.755L302.11 133.79L302.117 131.79L291.969 131.755L291.962 133.755ZM312.257 133.825L322.405 133.861L322.412 131.861L312.264 131.825L312.257 133.825ZM332.552 133.896L342.7 133.931L342.706 131.931L332.559 131.896L332.552 133.896ZM352.847 133.966L362.994 134.001L363.001 132.001L352.854 131.966L352.847 133.966ZM373.142 134.036L383.289 134.071L383.296 132.071L373.149 132.036L373.142 134.036ZM393.437 134.106L403.584 134.141L403.591 132.141L393.444 132.106L393.437 134.106ZM413.731 134.177L423.879 134.212L423.886 132.212L413.738 132.177L413.731 134.177ZM434.026 134.247L444.174 134.282L444.181 132.282L434.033 132.247L434.026 134.247ZM454.321 134.317L464.469 134.352L464.475 132.352L454.328 132.317L454.321 134.317ZM474.616 134.387L484.763 134.422L484.77 132.422L474.623 132.387L474.616 134.387ZM494.911 134.457L505.058 134.493L505.065 132.493L494.918 132.457L494.911 134.457ZM515.206 134.528L525.353 134.563L525.36 132.563L515.213 132.528L515.206 134.528ZM535.501 134.598L545.648 134.633L545.655 132.633L535.507 132.598L535.501 134.598ZM555.795 134.668L565.943 134.703L565.95 132.703L555.802 132.668L555.795 134.668ZM576.09 134.738L586.238 134.773L586.245 132.773L576.097 132.738L576.09 134.738ZM596.385 134.809L606.533 134.844L606.539 132.844L596.392 132.809L596.385 134.809ZM616.68 134.879L626.827 134.914L626.834 132.914L616.687 132.879L616.68 134.879ZM636.975 134.949L647.122 134.984L647.129 132.984L636.982 132.949L636.975 134.949ZM657.27 135.019L667.417 135.054L667.424 133.054L657.277 133.019L657.27 135.019ZM677.565 135.089L687.712 135.125L687.719 133.125L677.572 133.089L677.565 135.089ZM697.859 135.16L708.007 135.195L708.014 133.195L697.866 133.16L697.859 135.16ZM718.154 135.23L728.302 135.265L728.309 133.265L718.161 133.23L718.154 135.23ZM738.449 135.3L748.596 135.335L748.603 133.335L738.456 133.3L738.449 135.3ZM758.744 135.37L768.891 135.405L768.898 133.405L758.751 133.37L758.744 135.37ZM779.039 135.441L789.186 135.476L789.193 133.476L779.046 133.441L779.039 135.441ZM799.333 135.511L809.481 135.546L809.488 133.546L799.34 133.511L799.333 135.511ZM819.628 135.581L829.776 135.616L829.783 133.616L819.635 133.581L819.628 135.581ZM839.923 135.651L844.997 135.669L845.004 133.669L839.93 133.651L839.923 135.651ZM846.41 136.088C847.193 135.31 847.198 134.043 846.419 133.259L833.735 120.488C832.957 119.704 831.691 119.699 830.907 120.478C830.123 121.256 830.119 122.522 830.897 123.306L842.172 134.659L830.819 145.934C830.035 146.712 830.031 147.978 830.809 148.762C831.588 149.546 832.854 149.55 833.638 148.772L846.41 136.088ZM195.559 134.422L200.632 134.439L200.646 130.439L195.572 130.422L195.559 134.422ZM210.78 134.474L220.927 134.509L220.941 130.509L210.793 130.474L210.78 134.474ZM231.074 134.545L241.222 134.58L241.236 130.58L231.088 130.545L231.074 134.545ZM251.369 134.615L261.517 134.65L261.531 130.65L251.383 130.615L251.369 134.615ZM271.664 134.685L281.812 134.72L281.825 130.72L271.678 130.685L271.664 134.685ZM291.959 134.755L302.106 134.79L302.12 130.79L291.973 130.755L291.959 134.755ZM312.254 134.825L322.401 134.861L322.415 130.861L312.268 130.825L312.254 134.825ZM332.549 134.896L342.696 134.931L342.71 130.931L332.562 130.896L332.549 134.896ZM352.843 134.966L362.991 135.001L363.005 131.001L352.857 130.966L352.843 134.966ZM373.138 135.036L383.286 135.071L383.3 131.071L373.152 131.036L373.138 135.036ZM393.433 135.106L403.581 135.141L403.594 131.141L393.447 131.106L393.433 135.106ZM413.728 135.177L423.875 135.212L423.889 131.212L413.742 131.177L413.728 135.177ZM434.023 135.247L444.17 135.282L444.184 131.282L434.037 131.247L434.023 135.247ZM454.318 135.317L464.465 135.352L464.479 131.352L454.331 131.317L454.318 135.317ZM474.613 135.387L484.76 135.422L484.774 131.422L474.626 131.387L474.613 135.387ZM494.907 135.457L505.055 135.493L505.069 131.493L494.921 131.457L494.907 135.457ZM515.202 135.528L525.35 135.563L525.364 131.563L515.216 131.528L515.202 135.528ZM535.497 135.598L545.645 135.633L545.658 131.633L535.511 131.598L535.497 135.598ZM555.792 135.668L565.939 135.703L565.953 131.703L555.806 131.668L555.792 135.668ZM576.087 135.738L586.234 135.773L586.248 131.773L576.101 131.738L576.087 135.738ZM596.382 135.809L606.529 135.844L606.543 131.844L596.396 131.809L596.382 135.809ZM616.677 135.879L626.824 135.914L626.838 131.914L616.69 131.879L616.677 135.879ZM636.971 135.949L647.119 135.984L647.133 131.984L636.985 131.949L636.971 135.949ZM657.266 136.019L667.414 136.054L667.428 132.054L657.28 132.019L657.266 136.019ZM677.561 136.089L687.709 136.125L687.722 132.125L677.575 132.089L677.561 136.089ZM697.856 136.16L708.003 136.195L708.017 132.195L697.87 132.16L697.856 136.16ZM718.151 136.23L728.298 136.265L728.312 132.265L718.165 132.23L718.151 136.23ZM738.446 136.3L748.593 136.335L748.607 132.335L738.459 132.3L738.446 136.3ZM758.74 136.37L768.888 136.405L768.902 132.405L758.754 132.37L758.74 136.37ZM779.035 136.441L789.183 136.476L789.196 132.476L779.049 132.441L779.035 136.441ZM799.33 136.511L809.477 136.546L809.491 132.546L799.344 132.511L799.33 136.511ZM819.625 136.581L829.772 136.616L829.786 132.616L819.639 132.581L819.625 136.581ZM839.92 136.651L844.993 136.669L845.007 132.669L839.933 132.651L839.92 136.651Z" fill="white"/>
<rect x="2.5" y="3.86938" width="75" height="75" stroke="white" stroke-width="5"/>
<rect x="371.5" y="384.869" width="74" height="73" stroke="white" stroke-width="5"/>
<path d="M243.5 551.369C243.5 596.395 207.221 632.869 162.5 632.869C117.779 632.869 81.5 596.395 81.5 551.369C81.5 506.344 117.779 469.869 162.5 469.869C207.221 469.869 243.5 506.344 243.5 551.369Z" stroke="white" stroke-width="5"/>
</svg>
