<svg width="722" height="710" viewBox="0 0 722 710" fill="none" xmlns="http://www.w3.org/2000/svg">
<path d="M525 273.64V277.02H525.84C526.293 277.02 526.64 276.933 526.88 276.76C527.12 276.587 527.333 276.28 527.52 275.84C527.587 275.693 527.667 275.5 527.76 275.26C527.867 275.007 527.933 274.84 527.96 274.76C528.067 274.467 528.153 274.24 528.22 274.08C528.287 273.92 528.387 273.747 528.52 273.56C528.653 273.36 528.813 273.22 529 273.14C529.187 273.047 529.413 273 529.68 273C530.013 273 530.293 273.093 530.52 273.28C530.72 273.48 530.82 273.753 530.82 274.1C530.82 274.393 530.727 274.647 530.54 274.86C530.367 275.06 530.133 275.16 529.84 275.16C529.573 275.16 529.353 275.087 529.18 274.94C529.007 274.793 528.92 274.593 528.92 274.34C528.92 274.153 528.987 273.933 529.12 273.68C529.04 273.72 528.973 273.787 528.92 273.88C528.867 273.987 528.787 274.147 528.68 274.36L528.02 276C527.887 276.307 527.747 276.547 527.6 276.72C527.453 276.88 527.24 277.013 526.96 277.12V277.2C528.6 277.2 529.493 277.753 529.64 278.86C529.653 278.9 529.667 278.987 529.68 279.12C529.707 279.253 529.727 279.347 529.74 279.4C529.74 279.44 529.74 279.507 529.74 279.6C529.753 279.68 529.767 279.74 529.78 279.78L529.84 280.08L529.9 280.44C530.06 281.12 530.507 281.46 531.24 281.46H531.76V282H530.14C529.327 282 528.78 281.833 528.5 281.5C528.233 281.153 528.053 280.573 527.96 279.76C527.867 279.213 527.793 278.807 527.74 278.54C527.673 278.18 527.553 277.92 527.38 277.76C527.193 277.613 526.867 277.54 526.4 277.54H525V281.46H526.5V282H521.6V281.46H523.1V273.64H521.6V273.1H526.5V273.64H525ZM532.455 287.24V286.7H533.955V273.64H532.455V273.1H533.975L535.855 272.82V274.94C536.388 273.593 537.415 272.92 538.935 272.92C540.241 272.92 541.208 273.333 541.835 274.16C542.475 274.973 542.795 276.04 542.795 277.36C542.795 278.627 542.428 279.747 541.695 280.72C540.961 281.68 539.988 282.16 538.775 282.16C537.401 282.16 536.428 281.573 535.855 280.4V286.7H537.455V287.24H532.455ZM535.855 276.9V278.66C535.855 279.327 536.095 279.96 536.575 280.56C537.068 281.147 537.641 281.44 538.295 281.44C538.895 281.44 539.388 281.207 539.775 280.74C540.175 280.273 540.435 279.76 540.555 279.2C540.688 278.64 540.755 278.06 540.755 277.46C540.755 277.007 540.721 276.58 540.655 276.18C540.588 275.78 540.468 275.38 540.295 274.98C540.135 274.58 539.888 274.26 539.555 274.02C539.221 273.78 538.815 273.66 538.335 273.66C537.615 273.66 537.021 274.013 536.555 274.72C536.088 275.413 535.855 276.14 535.855 276.9ZM545.625 287.44C545.158 287.44 544.778 287.307 544.485 287.04C544.191 286.787 544.045 286.433 544.045 285.98C544.045 285.607 544.151 285.313 544.365 285.1C544.565 284.86 544.818 284.74 545.125 284.74C545.418 284.74 545.658 284.827 545.845 285C546.031 285.173 546.125 285.4 546.125 285.68C546.125 286.187 545.911 286.527 545.485 286.7C545.551 286.78 545.671 286.82 545.845 286.82C546.618 286.82 547.451 285.633 548.345 283.26L548.725 282.3L544.605 273.64H543.105V273.1H548.205V273.64H546.645L549.665 280.16L552.425 273.64H551.025V273.1H554.545V273.64H553.045L549.125 282.88C548.698 283.867 548.425 284.493 548.305 284.76C548.118 285.147 547.965 285.447 547.845 285.66C547.725 285.887 547.545 286.16 547.305 286.48C547.078 286.8 546.825 287.04 546.545 287.2C546.265 287.36 545.958 287.44 545.625 287.44ZM555.14 273.64V273.1H562.66V276.52H562.12L561.36 273.64H558.54V281.46H560.14V282H555.14V281.46H556.64V273.64H555.14ZM564.643 282.16C564.216 282.16 563.87 282.053 563.603 281.84C563.35 281.627 563.223 281.313 563.223 280.9C563.223 280.58 563.316 280.313 563.503 280.1C563.703 279.873 563.963 279.76 564.283 279.76C564.563 279.76 564.783 279.847 564.943 280.02C565.116 280.18 565.203 280.4 565.203 280.68C565.203 281.08 565.023 281.353 564.663 281.5C564.69 281.527 564.743 281.54 564.823 281.54C565.41 281.54 565.876 281.147 566.223 280.36C566.276 280.187 566.336 279.953 566.403 279.66C566.536 278.713 566.643 277.48 566.723 275.96C566.723 275.84 566.723 275.667 566.723 275.44C566.736 275.213 566.75 275.047 566.763 274.94C566.776 274.82 566.783 274.64 566.783 274.4C566.796 274.147 566.803 273.96 566.803 273.84L565.043 273.64V273.1H573.403V273.64H571.903V281.46H573.403V282H568.603V281.46H570.003V273.64H567.443C567.43 273.893 567.41 274.26 567.383 274.74C567.37 275.007 567.35 275.34 567.323 275.74C567.323 275.86 567.316 276.027 567.303 276.24C567.303 276.453 567.296 276.613 567.283 276.72C567.243 277.333 567.203 277.88 567.163 278.36C567.123 278.773 567.083 279.127 567.043 279.42C567.003 279.7 566.923 280.027 566.803 280.4C566.696 280.773 566.556 281.08 566.383 281.32C566.223 281.547 565.99 281.747 565.683 281.92C565.39 282.08 565.043 282.16 564.643 282.16ZM578.343 277.14C579.09 277.14 579.73 277.24 580.263 277.44V275.04C580.263 274.493 580.136 274.093 579.883 273.84C579.643 273.573 579.25 273.44 578.703 273.44C578.05 273.44 577.503 273.613 577.063 273.96C577.236 274.013 577.41 274.127 577.583 274.3C577.73 274.487 577.803 274.727 577.803 275.02C577.803 275.313 577.71 275.553 577.523 275.74C577.336 275.927 577.096 276.02 576.803 276.02C576.51 276.02 576.276 275.92 576.103 275.72C575.916 275.533 575.823 275.287 575.823 274.98C575.823 274.34 576.176 273.84 576.883 273.48C577.603 273.107 578.323 272.92 579.043 272.92C581.123 272.92 582.163 273.693 582.163 275.24V280.48C582.163 281.053 582.376 281.34 582.803 281.34C583.003 281.34 583.19 281.267 583.363 281.12C583.496 280.987 583.616 280.847 583.723 280.7L584.043 281.02C583.523 281.78 582.89 282.16 582.143 282.16C581.756 282.16 581.41 282.08 581.103 281.92C580.796 281.773 580.55 281.5 580.363 281.1C579.536 281.82 578.63 282.18 577.643 282.18C576.883 282.18 576.25 281.96 575.743 281.52C575.25 281.067 575.003 280.467 575.003 279.72C575.003 278.827 575.323 278.173 575.963 277.76C576.616 277.347 577.41 277.14 578.343 277.14ZM577.003 279.48C577.003 280.04 577.143 280.48 577.423 280.8C577.716 281.12 578.136 281.28 578.683 281.28C579.003 281.28 579.29 281.22 579.543 281.1C579.796 281.007 580.036 280.853 580.263 280.64V277.94C580.01 277.847 579.756 277.767 579.503 277.7C579.263 277.66 578.996 277.64 578.703 277.64C578.143 277.64 577.716 277.807 577.423 278.14C577.143 278.46 577.003 278.907 577.003 279.48ZM594.227 273.1V273.64H592.727V281.46H594.227V282H589.327V281.46H590.827V277.96H589.607C589.154 277.96 588.827 278.067 588.627 278.28C588.427 278.48 588.28 278.813 588.187 279.28L587.887 280.86C587.74 281.62 587.187 282 586.227 282H584.367V281.46H584.987C585.307 281.46 585.554 281.393 585.727 281.26C585.887 281.127 585.994 280.94 586.047 280.7L586.307 279.42C586.454 278.793 586.687 278.36 587.007 278.12C587.34 277.88 587.834 277.727 588.487 277.66V277.58C587.78 277.527 587.16 277.34 586.627 277.02C586.107 276.687 585.847 276.193 585.847 275.54C585.847 274.687 586.187 274.067 586.867 273.68C587.547 273.293 588.347 273.1 589.267 273.1H594.227ZM590.827 273.64H589.807C589.074 273.64 588.56 273.827 588.267 274.2C587.974 274.533 587.827 274.98 587.827 275.54C587.827 276.793 588.474 277.42 589.767 277.42H590.827V273.64ZM603.633 273.64V277.02H604.473C604.926 277.02 605.273 276.933 605.513 276.76C605.753 276.587 605.966 276.28 606.153 275.84C606.219 275.693 606.299 275.5 606.393 275.26C606.499 275.007 606.566 274.84 606.593 274.76C606.699 274.467 606.786 274.24 606.853 274.08C606.919 273.92 607.019 273.747 607.153 273.56C607.286 273.36 607.446 273.22 607.633 273.14C607.819 273.047 608.046 273 608.313 273C608.646 273 608.926 273.093 609.153 273.28C609.353 273.48 609.453 273.753 609.453 274.1C609.453 274.393 609.359 274.647 609.173 274.86C608.999 275.06 608.766 275.16 608.473 275.16C608.206 275.16 607.986 275.087 607.813 274.94C607.639 274.793 607.553 274.593 607.553 274.34C607.553 274.153 607.619 273.933 607.753 273.68C607.673 273.72 607.606 273.787 607.553 273.88C607.499 273.987 607.419 274.147 607.313 274.36L606.653 276C606.519 276.307 606.379 276.547 606.233 276.72C606.086 276.88 605.873 277.013 605.593 277.12V277.2C607.233 277.2 608.126 277.753 608.273 278.86C608.286 278.9 608.299 278.987 608.313 279.12C608.339 279.253 608.359 279.347 608.373 279.4C608.373 279.44 608.373 279.507 608.373 279.6C608.386 279.68 608.399 279.74 608.413 279.78L608.473 280.08L608.533 280.44C608.693 281.12 609.139 281.46 609.873 281.46H610.393V282H608.773C607.959 282 607.413 281.833 607.133 281.5C606.866 281.153 606.686 280.573 606.593 279.76C606.499 279.213 606.426 278.807 606.373 278.54C606.306 278.18 606.186 277.92 606.013 277.76C605.826 277.613 605.499 277.54 605.033 277.54H603.633V281.46H605.133V282H600.233V281.46H601.733V273.64H600.233V273.1H605.133V273.64H603.633ZM614.632 277.14C615.379 277.14 616.019 277.24 616.552 277.44V275.04C616.552 274.493 616.426 274.093 616.172 273.84C615.932 273.573 615.539 273.44 614.992 273.44C614.339 273.44 613.792 273.613 613.352 273.96C613.526 274.013 613.699 274.127 613.872 274.3C614.019 274.487 614.092 274.727 614.092 275.02C614.092 275.313 613.999 275.553 613.812 275.74C613.626 275.927 613.386 276.02 613.092 276.02C612.799 276.02 612.566 275.92 612.392 275.72C612.206 275.533 612.112 275.287 612.112 274.98C612.112 274.34 612.466 273.84 613.172 273.48C613.892 273.107 614.612 272.92 615.332 272.92C617.412 272.92 618.452 273.693 618.452 275.24V280.48C618.452 281.053 618.666 281.34 619.092 281.34C619.292 281.34 619.479 281.267 619.652 281.12C619.786 280.987 619.906 280.847 620.012 280.7L620.332 281.02C619.812 281.78 619.179 282.16 618.432 282.16C618.046 282.16 617.699 282.08 617.392 281.92C617.086 281.773 616.839 281.5 616.652 281.1C615.826 281.82 614.919 282.18 613.932 282.18C613.172 282.18 612.539 281.96 612.032 281.52C611.539 281.067 611.292 280.467 611.292 279.72C611.292 278.827 611.612 278.173 612.252 277.76C612.906 277.347 613.699 277.14 614.632 277.14ZM613.292 279.48C613.292 280.04 613.432 280.48 613.712 280.8C614.006 281.12 614.426 281.28 614.972 281.28C615.292 281.28 615.579 281.22 615.832 281.1C616.086 281.007 616.326 280.853 616.552 280.64V277.94C616.299 277.847 616.046 277.767 615.792 277.7C615.552 277.66 615.286 277.64 614.992 277.64C614.432 277.64 614.006 277.807 613.712 278.14C613.432 278.46 613.292 278.907 613.292 279.48ZM631.996 273.1V273.64H630.496V281.46H631.996V282H627.196V281.46H628.596V273.64H624.536V281.46H625.936V282H621.136V281.46H622.636V273.64H621.136V273.1H631.996ZM634.702 282.16C634.275 282.16 633.928 282.053 633.662 281.84C633.408 281.627 633.282 281.313 633.282 280.9C633.282 280.58 633.375 280.313 633.562 280.1C633.762 279.873 634.022 279.76 634.342 279.76C634.622 279.76 634.842 279.847 635.002 280.02C635.175 280.18 635.262 280.4 635.262 280.68C635.262 281.08 635.082 281.353 634.722 281.5C634.748 281.527 634.802 281.54 634.882 281.54C635.468 281.54 635.935 281.147 636.282 280.36C636.335 280.187 636.395 279.953 636.462 279.66C636.595 278.713 636.702 277.48 636.782 275.96C636.782 275.84 636.782 275.667 636.782 275.44C636.795 275.213 636.808 275.047 636.822 274.94C636.835 274.82 636.842 274.64 636.842 274.4C636.855 274.147 636.862 273.96 636.862 273.84L635.102 273.64V273.1H643.462V273.64H641.962V281.46H643.462V282H638.662V281.46H640.062V273.64H637.502C637.488 273.893 637.468 274.26 637.442 274.74C637.428 275.007 637.408 275.34 637.382 275.74C637.382 275.86 637.375 276.027 637.362 276.24C637.362 276.453 637.355 276.613 637.342 276.72C637.302 277.333 637.262 277.88 637.222 278.36C637.182 278.773 637.142 279.127 637.102 279.42C637.062 279.7 636.982 280.027 636.862 280.4C636.755 280.773 636.615 281.08 636.442 281.32C636.282 281.547 636.048 281.747 635.742 281.92C635.448 282.08 635.102 282.16 634.702 282.16ZM654.442 273.1V273.64H652.942V281.46H654.442V282H649.542V281.46H651.042V277.96H649.822C649.368 277.96 649.042 278.067 648.842 278.28C648.642 278.48 648.495 278.813 648.402 279.28L648.102 280.86C647.955 281.62 647.402 282 646.442 282H644.582V281.46H645.202C645.522 281.46 645.768 281.393 645.942 281.26C646.102 281.127 646.208 280.94 646.262 280.7L646.522 279.42C646.668 278.793 646.902 278.36 647.222 278.12C647.555 277.88 648.048 277.727 648.702 277.66V277.58C647.995 277.527 647.375 277.34 646.842 277.02C646.322 276.687 646.062 276.193 646.062 275.54C646.062 274.687 646.402 274.067 647.082 273.68C647.762 273.293 648.562 273.1 649.482 273.1H654.442ZM651.042 273.64H650.022C649.288 273.64 648.775 273.827 648.482 274.2C648.188 274.533 648.042 274.98 648.042 275.54C648.042 276.793 648.688 277.42 649.982 277.42H651.042V273.64Z" fill="white"/>
<path d="M177.111 650.369C159.061 650.369 144.364 645.216 133.018 634.909C121.673 624.601 116 610.687 116 593.164C116 581.311 119.61 570.746 126.83 561.47C134.05 552.193 143.59 547.555 155.451 547.555C165.25 547.555 173.501 550.905 180.205 557.605C187.425 564.82 191.035 573.581 191.035 583.888C191.035 603.987 179.947 617.386 157.772 624.086C161.382 627.694 167.57 629.497 176.337 629.497C193.356 629.497 211.405 618.417 230.486 596.257C238.738 586.98 249.825 571.777 263.749 550.647C280.252 524.364 293.918 501.688 304.748 482.62L323.313 450.152L304.748 174.95C303.716 142.482 293.144 126.248 273.032 126.248C240.027 126.248 215.015 164.127 197.997 239.885L180.205 227.517C187.941 189.38 201.091 156.655 219.657 129.34C238.222 102.026 264.007 88.3694 297.012 88.3694C326.923 88.3694 347.551 95.8421 358.897 110.788C370.242 125.733 376.431 148.666 377.462 179.588L383.65 344.246L487.307 154.851C511.545 110.53 540.167 88.3694 573.172 88.3694C581.423 88.3694 588.901 89.9155 595.605 93.0076C602.825 97.6458 608.24 102.026 611.85 106.149C620.617 119.033 625 131.402 625 143.255C625 155.624 621.39 166.446 614.17 175.723C606.95 184.484 597.152 188.865 584.775 188.865C574.461 188.865 566.21 185.257 560.021 178.042C553.317 171.342 549.965 162.839 549.965 152.532C549.965 132.948 561.053 119.549 583.228 112.334C580.649 109.757 576.524 108.468 570.851 108.468C548.16 108.468 526.758 126.764 506.646 163.354L333.369 474.116C310.678 514.314 296.239 539.567 290.05 549.874C249.31 616.871 211.663 650.369 177.111 650.369Z" fill="white"/>
<rect x="-10.5" y="2.86938" width="730" height="704" stroke="white" stroke-width="5"/>
<circle cx="185.824" cy="229.956" r="59.1738" transform="rotate(-157.048 185.824 229.956)" stroke="white" stroke-width="3" stroke-dasharray="10 10"/>
<path d="M121.595 230.652L128.585 219.307L133.424 233.777" stroke="white" stroke-width="3" stroke-miterlimit="10"/>
<circle cx="579.644" cy="130.361" r="78.761" transform="rotate(-23.5524 579.644 130.361)" stroke="white" stroke-width="3" stroke-dasharray="10 10"/>
<path d="M644.916 68.968L646.717 88.2416L631.897 81.2577" stroke="white" stroke-width="3" stroke-miterlimit="10"/>
<rect x="-3.5" y="2.86938" width="74" height="75" stroke="white" stroke-width="5"/>
<path d="M16.0027 38.9419C15.6252 38.9419 15.2207 38.915 14.7892 38.861C14.4836 38.8431 14.0611 38.7801 13.5218 38.6723V46.6542H16.3533V47.3823H8.26343V46.6542H10.8252V29.2072H8.26343V28.4791H16.3263C18.142 28.4791 19.6342 28.8566 20.8027 29.6116C21.9712 30.3487 22.5555 31.5532 22.5555 33.2251C22.5555 35.0408 21.9173 36.4521 20.6409 37.4588C19.3825 38.4475 17.8364 38.9419 16.0027 38.9419ZM15.6791 38.2138C16.9915 38.2138 17.9802 37.7374 18.6454 36.7846C19.3285 35.8318 19.6701 34.6813 19.6701 33.333C19.6701 31.9307 19.3375 30.897 18.6724 30.2319C18.0072 29.5487 16.9735 29.2072 15.5713 29.2072H13.5218V37.8902C14.151 38.106 14.8701 38.2138 15.6791 38.2138Z" fill="white"/>
<path d="M35.1651 38.3487C36.01 38.87 36.5763 39.5532 36.864 40.3981C37.0078 40.8835 37.0797 41.4408 37.0797 42.07C37.0797 43.634 36.5224 44.9464 35.4078 46.0071C34.2932 47.0677 32.9539 47.5981 31.3898 47.5981C29.1247 47.5981 27.4438 46.7621 26.3472 45.0902L26.1584 47.5981H25.3225V40.9105H26.0775C26.2034 42.6183 26.6977 44.0385 27.5607 45.1711C28.4415 46.2857 29.7 46.843 31.3359 46.843C31.8393 46.843 32.3157 46.7621 32.7651 46.6003C33.5022 46.3846 34.0775 45.9801 34.491 45.3868C34.9044 44.7756 35.1112 44.0745 35.1112 43.2835C35.1112 42.4565 34.9224 41.8093 34.5449 41.3419C34.1853 40.8745 33.6011 40.4341 32.7921 40.0206C32.5584 39.8947 32.2078 39.7239 31.7404 39.5082C31.1472 39.2386 30.7876 39.0678 30.6618 38.9959C30.3202 38.7981 29.9427 38.6093 29.5292 38.4296C28.8281 38.106 28.2528 37.8183 27.8034 37.5667C27.3719 37.297 26.9225 36.9644 26.455 36.5689C25.9876 36.1734 25.6371 35.706 25.4034 35.1667C25.1876 34.6273 25.0798 34.0161 25.0798 33.333C25.0798 31.8049 25.5741 30.5824 26.5629 29.6656C27.5696 28.7307 28.8281 28.2633 30.3382 28.2633C32.3157 28.2633 33.7449 28.9914 34.6258 30.4476L34.9763 28.0476H35.6775V34.7622H34.9494C34.9494 33.1981 34.5719 31.8408 33.8168 30.6903C33.0617 29.5397 31.9471 28.9645 30.473 28.9645C29.4842 28.9645 28.6753 29.2341 28.046 29.7734C27.4348 30.3128 27.1292 31.0588 27.1292 32.0116C27.1292 32.8386 27.3539 33.5038 27.8034 34.0071C28.2528 34.5644 28.846 35.0408 29.5831 35.4363C30.1943 35.7599 30.6078 35.9757 30.8236 36.0835C31.6146 36.515 32.2887 36.8476 32.846 37.0813C33.8887 37.6206 34.6617 38.0431 35.1651 38.3487Z" fill="white"/>
<path d="M50.847 40.4718C49.1004 40.4718 47.6787 39.8949 46.582 38.741C45.5056 37.5658 44.9674 36.0701 44.9674 34.2538C44.9674 32.288 45.5665 30.6426 46.7648 29.3178C47.9834 27.9717 49.5066 27.2986 51.3344 27.2986C53.4263 27.2986 55.0104 28.0358 56.0868 29.5101C57.1632 30.9845 57.7014 32.8328 57.7014 35.0551C57.7014 38.5167 56.7672 41.3052 54.8987 43.4206C53.0506 45.536 50.5017 46.9035 47.2522 47.5232L47.1913 46.6578C48.9988 46.4014 50.6236 45.4505 52.0656 43.8052C53.5075 42.1812 54.4113 40.3864 54.7769 38.4205L54.655 38.3885C54.3097 39.0509 53.7817 39.5637 53.0709 39.9269C52.36 40.2902 51.6187 40.4718 50.847 40.4718ZM51.3649 28.164C50.4916 28.164 49.7807 28.5165 49.2324 29.2217C48.684 29.9055 48.3286 30.6533 48.1661 31.4653C48.0037 32.2559 47.9224 33.1106 47.9224 34.0294C47.9224 34.8628 48.024 35.6854 48.2271 36.4974C48.4505 37.288 48.8364 38.0038 49.3847 38.6449C49.9331 39.2645 50.6134 39.5744 51.4258 39.5744C52.1569 39.5744 52.7764 39.2539 53.2841 38.6128C53.8122 37.9504 54.1777 37.2239 54.3808 36.4333C54.5839 35.6213 54.6855 34.8307 54.6855 34.0615C54.6855 33.4632 54.6245 32.8542 54.5027 32.2345C54.4011 31.6149 54.2387 30.9845 54.0153 30.3435C53.7919 29.7025 53.4466 29.1789 52.9795 28.773C52.5124 28.367 51.9742 28.164 51.3649 28.164Z" fill="white"/>
<path d="M429.16 542.7L429.56 542.96C429.2 543.627 428.72 544.16 428.12 544.56C427.52 544.947 426.86 545.14 426.14 545.14C424.833 545.14 423.78 544.7 422.98 543.82C422.193 542.927 421.8 541.833 421.8 540.54C421.8 539.18 422.2 538.073 423 537.22C423.8 536.353 424.86 535.92 426.18 535.92C426.807 535.92 427.393 536.047 427.94 536.3C428.487 536.553 428.907 536.927 429.2 537.42C429.373 537.713 429.46 537.993 429.46 538.26C429.46 538.553 429.36 538.807 429.16 539.02C428.973 539.22 428.733 539.32 428.44 539.32C428.16 539.32 427.927 539.233 427.74 539.06C427.567 538.887 427.48 538.66 427.48 538.38C427.48 537.913 427.733 537.533 428.24 537.24C427.827 536.733 427.227 536.48 426.44 536.48C425.947 536.48 425.52 536.613 425.16 536.88C424.8 537.133 424.527 537.473 424.34 537.9C424.167 538.313 424.04 538.74 423.96 539.18C423.88 539.607 423.84 540.053 423.84 540.52C423.84 541.573 424.067 542.487 424.52 543.26C424.973 544.02 425.68 544.4 426.64 544.4C427.68 544.4 428.52 543.833 429.16 542.7ZM441.78 536.1V536.64H440.28V544.46H441.78V545H436.98V544.46H438.38V538.26L434.38 543.92V544.46H435.78V545H430.98V544.46H432.48V536.64H430.98V536.1H435.78V536.64H434.38V542.98L438.38 537.32V536.64H436.98V536.1H441.78ZM444.682 545.16C444.255 545.16 443.909 545.053 443.642 544.84C443.389 544.627 443.262 544.313 443.262 543.9C443.262 543.58 443.355 543.313 443.542 543.1C443.742 542.873 444.002 542.76 444.322 542.76C444.602 542.76 444.822 542.847 444.982 543.02C445.155 543.18 445.242 543.4 445.242 543.68C445.242 544.08 445.062 544.353 444.702 544.5C444.729 544.527 444.782 544.54 444.862 544.54C445.449 544.54 445.915 544.147 446.262 543.36C446.315 543.187 446.375 542.953 446.442 542.66C446.575 541.713 446.682 540.48 446.762 538.96C446.762 538.84 446.762 538.667 446.762 538.44C446.775 538.213 446.789 538.047 446.802 537.94C446.815 537.82 446.822 537.64 446.822 537.4C446.835 537.147 446.842 536.96 446.842 536.84L445.082 536.64V536.1H453.442V536.64H451.942V544.46H453.442V545H448.642V544.46H450.042V536.64H447.482C447.469 536.893 447.449 537.26 447.422 537.74C447.409 538.007 447.389 538.34 447.362 538.74C447.362 538.86 447.355 539.027 447.342 539.24C447.342 539.453 447.335 539.613 447.322 539.72C447.282 540.333 447.242 540.88 447.202 541.36C447.162 541.773 447.122 542.127 447.082 542.42C447.042 542.7 446.962 543.027 446.842 543.4C446.735 543.773 446.595 544.08 446.422 544.32C446.262 544.547 446.029 544.747 445.722 544.92C445.429 545.08 445.082 545.16 444.682 545.16ZM459.942 536.1V536.64H458.442V540.08C458.869 539.973 459.456 539.92 460.202 539.92C460.642 539.92 461.049 539.953 461.422 540.02C461.809 540.087 462.182 540.2 462.542 540.36C462.916 540.52 463.209 540.767 463.422 541.1C463.636 541.42 463.742 541.813 463.742 542.28C463.742 543.2 463.416 543.887 462.762 544.34C462.122 544.78 461.316 545 460.342 545H455.042V544.46H456.542V536.64H455.042V536.1H459.942ZM458.442 540.64V544.46H459.722C460.376 544.46 460.876 544.273 461.222 543.9C461.569 543.513 461.742 542.993 461.742 542.34C461.742 541.087 461.109 540.46 459.842 540.46C459.482 540.46 459.016 540.52 458.442 540.64ZM475.842 536.1V536.64H474.342V544.46H475.842V545H471.042V544.46H472.442V540.86H468.442V544.46H469.842V545H465.042V544.46H466.542V536.64H465.042V536.1H469.842V536.64H468.442V540.32H472.442V536.64H471.042V536.1H475.842ZM489.585 536.64V544.46H490.985V545H486.185V544.46H487.685V536.64H486.185V536.1H490.985V536.64H489.585ZM482.345 536.1V536.64H480.845V540.08C481.338 539.973 481.911 539.92 482.565 539.92C484.818 539.92 485.945 540.707 485.945 542.28C485.945 543.147 485.631 543.82 485.005 544.3C484.378 544.767 483.625 545 482.745 545H477.445V544.46H478.945V536.64H477.445V536.1H482.345ZM480.845 540.62V544.46H482.125C483.338 544.46 483.945 543.753 483.945 542.34C483.945 541.753 483.791 541.287 483.485 540.94C483.165 540.62 482.711 540.46 482.125 540.46C481.725 540.46 481.298 540.513 480.845 540.62ZM503.381 536.1V536.64H501.881V544.46H503.381V545H498.581V544.46H499.981V538.26L495.981 543.92V544.46H497.381V545H492.581V544.46H494.081V536.64H492.581V536.1H497.381V536.64H495.981V542.98L499.981 537.32V536.64H498.581V536.1H503.381ZM498.021 534.72C496.755 534.72 495.895 534.4 495.441 533.76C495.268 533.547 495.181 533.287 495.181 532.98C495.181 532.7 495.261 532.467 495.421 532.28C495.595 532.08 495.821 531.98 496.101 531.98C496.368 531.98 496.588 532.06 496.761 532.22C496.921 532.38 497.001 532.593 497.001 532.86C497.001 533.087 496.921 533.28 496.761 533.44C496.601 533.587 496.401 533.673 496.161 533.7C496.535 534.073 497.135 534.26 497.961 534.26C498.788 534.26 499.388 534.073 499.761 533.7C499.508 533.673 499.301 533.587 499.141 533.44C498.995 533.28 498.921 533.073 498.921 532.82C498.921 532.58 499.008 532.38 499.181 532.22C499.368 532.06 499.581 531.98 499.821 531.98C500.115 531.98 500.341 532.073 500.501 532.26C500.661 532.447 500.741 532.687 500.741 532.98C500.741 533.58 500.455 534.02 499.881 534.3C499.308 534.58 498.688 534.72 498.021 534.72ZM520.393 536.1V536.64H518.893V544.46H520.393V545H515.593V544.46H516.993V540.86H512.993V544.46H514.393V545H509.593V544.46H511.093V536.64H509.593V536.1H514.393V536.64H512.993V540.32H516.993V536.64H515.593V536.1H520.393ZM525.335 540.14C526.082 540.14 526.722 540.24 527.255 540.44V538.04C527.255 537.493 527.129 537.093 526.875 536.84C526.635 536.573 526.242 536.44 525.695 536.44C525.042 536.44 524.495 536.613 524.055 536.96C524.229 537.013 524.402 537.127 524.575 537.3C524.722 537.487 524.795 537.727 524.795 538.02C524.795 538.313 524.702 538.553 524.515 538.74C524.329 538.927 524.089 539.02 523.795 539.02C523.502 539.02 523.269 538.92 523.095 538.72C522.909 538.533 522.815 538.287 522.815 537.98C522.815 537.34 523.169 536.84 523.875 536.48C524.595 536.107 525.315 535.92 526.035 535.92C528.115 535.92 529.155 536.693 529.155 538.24V543.48C529.155 544.053 529.369 544.34 529.795 544.34C529.995 544.34 530.182 544.267 530.355 544.12C530.489 543.987 530.609 543.847 530.715 543.7L531.035 544.02C530.515 544.78 529.882 545.16 529.135 545.16C528.749 545.16 528.402 545.08 528.095 544.92C527.789 544.773 527.542 544.5 527.355 544.1C526.529 544.82 525.622 545.18 524.635 545.18C523.875 545.18 523.242 544.96 522.735 544.52C522.242 544.067 521.995 543.467 521.995 542.72C521.995 541.827 522.315 541.173 522.955 540.76C523.609 540.347 524.402 540.14 525.335 540.14ZM523.995 542.48C523.995 543.04 524.135 543.48 524.415 543.8C524.709 544.12 525.129 544.28 525.675 544.28C525.995 544.28 526.282 544.22 526.535 544.1C526.789 544.007 527.029 543.853 527.255 543.64V540.94C527.002 540.847 526.749 540.767 526.495 540.7C526.255 540.66 525.989 540.64 525.695 540.64C525.135 540.64 524.709 540.807 524.415 541.14C524.135 541.46 523.995 541.907 523.995 542.48ZM535.039 536.64V540.02H535.879C536.332 540.02 536.679 539.933 536.919 539.76C537.159 539.587 537.372 539.28 537.559 538.84C537.626 538.693 537.706 538.5 537.799 538.26C537.906 538.007 537.972 537.84 537.999 537.76C538.106 537.467 538.192 537.24 538.259 537.08C538.326 536.92 538.426 536.747 538.559 536.56C538.692 536.36 538.852 536.22 539.039 536.14C539.226 536.047 539.452 536 539.719 536C540.052 536 540.332 536.093 540.559 536.28C540.759 536.48 540.859 536.753 540.859 537.1C540.859 537.393 540.766 537.647 540.579 537.86C540.406 538.06 540.172 538.16 539.879 538.16C539.612 538.16 539.392 538.087 539.219 537.94C539.046 537.793 538.959 537.593 538.959 537.34C538.959 537.153 539.026 536.933 539.159 536.68C539.079 536.72 539.012 536.787 538.959 536.88C538.906 536.987 538.826 537.147 538.719 537.36L538.059 539C537.926 539.307 537.786 539.547 537.639 539.72C537.492 539.88 537.279 540.013 536.999 540.12V540.2C538.639 540.2 539.532 540.753 539.679 541.86C539.692 541.9 539.706 541.987 539.719 542.12C539.746 542.253 539.766 542.347 539.779 542.4C539.779 542.44 539.779 542.507 539.779 542.6C539.792 542.68 539.806 542.74 539.819 542.78L539.879 543.08L539.939 543.44C540.099 544.12 540.546 544.46 541.279 544.46H541.799V545H540.179C539.366 545 538.819 544.833 538.539 544.5C538.272 544.153 538.092 543.573 537.999 542.76C537.906 542.213 537.832 541.807 537.779 541.54C537.712 541.18 537.592 540.92 537.419 540.76C537.232 540.613 536.906 540.54 536.439 540.54H535.039V544.46H536.539V545H531.639V544.46H533.139V536.64H531.639V536.1H536.539V536.64H535.039ZM543.803 545.16C543.376 545.16 543.03 545.053 542.763 544.84C542.51 544.627 542.383 544.313 542.383 543.9C542.383 543.58 542.476 543.313 542.663 543.1C542.863 542.873 543.123 542.76 543.443 542.76C543.723 542.76 543.943 542.847 544.103 543.02C544.276 543.18 544.363 543.4 544.363 543.68C544.363 544.08 544.183 544.353 543.823 544.5C543.85 544.527 543.903 544.54 543.983 544.54C544.57 544.54 545.036 544.147 545.383 543.36C545.436 543.187 545.496 542.953 545.563 542.66C545.696 541.713 545.803 540.48 545.883 538.96C545.883 538.84 545.883 538.667 545.883 538.44C545.896 538.213 545.91 538.047 545.923 537.94C545.936 537.82 545.943 537.64 545.943 537.4C545.956 537.147 545.963 536.96 545.963 536.84L544.203 536.64V536.1H552.563V536.64H551.063V544.46H552.563V545H547.763V544.46H549.163V536.64H546.603C546.59 536.893 546.57 537.26 546.543 537.74C546.53 538.007 546.51 538.34 546.483 538.74C546.483 538.86 546.476 539.027 546.463 539.24C546.463 539.453 546.456 539.613 546.443 539.72C546.403 540.333 546.363 540.88 546.323 541.36C546.283 541.773 546.243 542.127 546.203 542.42C546.163 542.7 546.083 543.027 545.963 543.4C545.856 543.773 545.716 544.08 545.543 544.32C545.383 544.547 545.15 544.747 544.843 544.92C544.55 545.08 544.203 545.16 543.803 545.16ZM558.663 535.92C560.037 535.92 561.13 536.353 561.943 537.22C562.757 538.073 563.163 539.173 563.163 540.52C563.163 541.867 562.743 542.98 561.903 543.86C561.063 544.727 559.983 545.16 558.663 545.16C557.263 545.16 556.163 544.74 555.363 543.9C554.563 543.047 554.163 541.927 554.163 540.54C554.163 539.18 554.577 538.073 555.403 537.22C556.243 536.353 557.33 535.92 558.663 535.92ZM558.643 544.62C559.11 544.62 559.51 544.487 559.843 544.22C560.19 543.94 560.45 543.587 560.623 543.16C560.797 542.72 560.923 542.287 561.003 541.86C561.083 541.42 561.123 540.98 561.123 540.54C561.123 540.087 561.083 539.647 561.003 539.22C560.937 538.793 560.817 538.36 560.643 537.92C560.483 537.48 560.23 537.127 559.883 536.86C559.55 536.593 559.143 536.46 558.663 536.46C558.21 536.46 557.81 536.6 557.463 536.88C557.13 537.147 556.877 537.5 556.703 537.94C556.53 538.367 556.403 538.8 556.323 539.24C556.243 539.68 556.203 540.113 556.203 540.54C556.203 541.74 556.417 542.693 556.843 543.4C557.27 544.213 557.87 544.62 558.643 544.62ZM575.569 536.1V536.64H574.069V544.46H575.569V545H570.769V544.46H572.169V540.86H568.169V544.46H569.569V545H564.769V544.46H566.269V536.64H564.769V536.1H569.569V536.64H568.169V540.32H572.169V536.64H570.769V536.1H575.569ZM584.98 536.64V540.02H585.82C586.274 540.02 586.62 539.933 586.86 539.76C587.1 539.587 587.314 539.28 587.5 538.84C587.567 538.693 587.647 538.5 587.74 538.26C587.847 538.007 587.914 537.84 587.94 537.76C588.047 537.467 588.134 537.24 588.2 537.08C588.267 536.92 588.367 536.747 588.5 536.56C588.634 536.36 588.794 536.22 588.98 536.14C589.167 536.047 589.394 536 589.66 536C589.994 536 590.274 536.093 590.5 536.28C590.7 536.48 590.8 536.753 590.8 537.1C590.8 537.393 590.707 537.647 590.52 537.86C590.347 538.06 590.114 538.16 589.82 538.16C589.554 538.16 589.334 538.087 589.16 537.94C588.987 537.793 588.9 537.593 588.9 537.34C588.9 537.153 588.967 536.933 589.1 536.68C589.02 536.72 588.954 536.787 588.9 536.88C588.847 536.987 588.767 537.147 588.66 537.36L588 539C587.867 539.307 587.727 539.547 587.58 539.72C587.434 539.88 587.22 540.013 586.94 540.12V540.2C588.58 540.2 589.474 540.753 589.62 541.86C589.634 541.9 589.647 541.987 589.66 542.12C589.687 542.253 589.707 542.347 589.72 542.4C589.72 542.44 589.72 542.507 589.72 542.6C589.734 542.68 589.747 542.74 589.76 542.78L589.82 543.08L589.88 543.44C590.04 544.12 590.487 544.46 591.22 544.46H591.74V545H590.12C589.307 545 588.76 544.833 588.48 544.5C588.214 544.153 588.034 543.573 587.94 542.76C587.847 542.213 587.774 541.807 587.72 541.54C587.654 541.18 587.534 540.92 587.36 540.76C587.174 540.613 586.847 540.54 586.38 540.54H584.98V544.46H586.48V545H581.58V544.46H583.08V536.64H581.58V536.1H586.48V536.64H584.98ZM594.355 550.44C593.888 550.44 593.508 550.307 593.215 550.04C592.922 549.787 592.775 549.433 592.775 548.98C592.775 548.607 592.882 548.313 593.095 548.1C593.295 547.86 593.548 547.74 593.855 547.74C594.148 547.74 594.388 547.827 594.575 548C594.762 548.173 594.855 548.4 594.855 548.68C594.855 549.187 594.642 549.527 594.215 549.7C594.282 549.78 594.402 549.82 594.575 549.82C595.348 549.82 596.182 548.633 597.075 546.26L597.455 545.3L593.335 536.64H591.835V536.1H596.935V536.64H595.375L598.395 543.16L601.155 536.64H599.755V536.1H603.275V536.64H601.775L597.855 545.88C597.428 546.867 597.155 547.493 597.035 547.76C596.848 548.147 596.695 548.447 596.575 548.66C596.455 548.887 596.275 549.16 596.035 549.48C595.808 549.8 595.555 550.04 595.275 550.2C594.995 550.36 594.688 550.44 594.355 550.44ZM603.47 550.24V549.7H604.97V536.64H603.47V536.1H604.99L606.87 535.82V537.94C607.404 536.593 608.43 535.92 609.95 535.92C611.257 535.92 612.224 536.333 612.85 537.16C613.49 537.973 613.81 539.04 613.81 540.36C613.81 541.627 613.444 542.747 612.71 543.72C611.977 544.68 611.004 545.16 609.79 545.16C608.417 545.16 607.444 544.573 606.87 543.4V549.7H608.47V550.24H603.47ZM606.87 539.9V541.66C606.87 542.327 607.11 542.96 607.59 543.56C608.084 544.147 608.657 544.44 609.31 544.44C609.91 544.44 610.404 544.207 610.79 543.74C611.19 543.273 611.45 542.76 611.57 542.2C611.704 541.64 611.77 541.06 611.77 540.46C611.77 540.007 611.737 539.58 611.67 539.18C611.604 538.78 611.484 538.38 611.31 537.98C611.15 537.58 610.904 537.26 610.57 537.02C610.237 536.78 609.83 536.66 609.35 536.66C608.63 536.66 608.037 537.013 607.57 537.72C607.104 538.413 606.87 539.14 606.87 539.9ZM622.773 542.7L623.173 542.96C622.813 543.627 622.333 544.16 621.733 544.56C621.133 544.947 620.473 545.14 619.753 545.14C618.447 545.14 617.393 544.7 616.593 543.82C615.807 542.927 615.413 541.833 615.413 540.54C615.413 539.18 615.813 538.073 616.613 537.22C617.413 536.353 618.473 535.92 619.793 535.92C620.42 535.92 621.007 536.047 621.553 536.3C622.1 536.553 622.52 536.927 622.813 537.42C622.987 537.713 623.073 537.993 623.073 538.26C623.073 538.553 622.973 538.807 622.773 539.02C622.587 539.22 622.347 539.32 622.053 539.32C621.773 539.32 621.54 539.233 621.353 539.06C621.18 538.887 621.093 538.66 621.093 538.38C621.093 537.913 621.347 537.533 621.853 537.24C621.44 536.733 620.84 536.48 620.053 536.48C619.56 536.48 619.133 536.613 618.773 536.88C618.413 537.133 618.14 537.473 617.953 537.9C617.78 538.313 617.653 538.74 617.573 539.18C617.493 539.607 617.453 540.053 617.453 540.52C617.453 541.573 617.68 542.487 618.133 543.26C618.587 544.02 619.293 544.4 620.253 544.4C621.293 544.4 622.133 543.833 622.773 542.7ZM635.393 536.1V536.64H633.893V544.46H635.393V545H630.593V544.46H631.993V538.26L627.993 543.92V544.46H629.393V545H624.593V544.46H626.093V536.64H624.593V536.1H629.393V536.64H627.993V542.98L631.993 537.32V536.64H630.593V536.1H635.393ZM643.075 540.34V540.42C643.822 540.527 644.409 540.72 644.835 541C645.369 541.387 645.635 541.873 645.635 542.46C645.635 542.967 645.509 543.4 645.255 543.76C645.015 544.107 644.682 544.367 644.255 544.54C643.842 544.7 643.429 544.82 643.015 544.9C642.602 544.967 642.155 545 641.675 545H636.895V544.46H638.395V536.64H636.895V536.1H641.695C644.149 536.1 645.375 536.793 645.375 538.18C645.375 538.78 645.149 539.273 644.695 539.66C644.242 540.033 643.702 540.26 643.075 540.34ZM641.595 536.64H640.295V540.12H641.675C642.822 540.12 643.395 539.507 643.395 538.28C643.395 537.187 642.795 536.64 641.595 536.64ZM640.295 540.66V544.46H641.555C641.955 544.46 642.289 544.4 642.555 544.28C643.275 544.013 643.635 543.407 643.635 542.46C643.635 541.26 642.989 540.66 641.695 540.66H640.295ZM650.472 540.14C651.219 540.14 651.859 540.24 652.392 540.44V538.04C652.392 537.493 652.265 537.093 652.012 536.84C651.772 536.573 651.379 536.44 650.832 536.44C650.179 536.44 649.632 536.613 649.192 536.96C649.365 537.013 649.539 537.127 649.712 537.3C649.859 537.487 649.932 537.727 649.932 538.02C649.932 538.313 649.839 538.553 649.652 538.74C649.465 538.927 649.225 539.02 648.932 539.02C648.639 539.02 648.405 538.92 648.232 538.72C648.045 538.533 647.952 538.287 647.952 537.98C647.952 537.34 648.305 536.84 649.012 536.48C649.732 536.107 650.452 535.92 651.172 535.92C653.252 535.92 654.292 536.693 654.292 538.24V543.48C654.292 544.053 654.505 544.34 654.932 544.34C655.132 544.34 655.319 544.267 655.492 544.12C655.625 543.987 655.745 543.847 655.852 543.7L656.172 544.02C655.652 544.78 655.019 545.16 654.272 545.16C653.885 545.16 653.539 545.08 653.232 544.92C652.925 544.773 652.679 544.5 652.492 544.1C651.665 544.82 650.759 545.18 649.772 545.18C649.012 545.18 648.379 544.96 647.872 544.52C647.379 544.067 647.132 543.467 647.132 542.72C647.132 541.827 647.452 541.173 648.092 540.76C648.745 540.347 649.539 540.14 650.472 540.14ZM649.132 542.48C649.132 543.04 649.272 543.48 649.552 543.8C649.845 544.12 650.265 544.28 650.812 544.28C651.132 544.28 651.419 544.22 651.672 544.1C651.925 544.007 652.165 543.853 652.392 543.64V540.94C652.139 540.847 651.885 540.767 651.632 540.7C651.392 540.66 651.125 540.64 650.832 540.64C650.272 540.64 649.845 540.807 649.552 541.14C649.272 541.46 649.132 541.907 649.132 542.48Z" fill="white"/>
</svg>
