<svg width="1440" height="919" viewBox="0 0 1440 919" fill="none" xmlns="http://www.w3.org/2000/svg">
<g clip-path="url(#clip0_201:143)">
<path d="M96.5447 115.78C90.4514 115.78 85.4508 114.884 81.5429 113.092C77.635 111.3 74.7288 108.984 72.8317 106.151C70.9271 103.319 69.9786 100.32 69.9786 97.161C69.9786 94.5109 70.7146 92.4607 72.1867 91.0256C73.6588 89.5905 75.5028 88.8767 77.7261 88.8767C79.6611 88.8767 81.2925 89.5069 82.6205 90.7598C83.9484 92.0127 84.6085 93.7896 84.6085 96.0903C84.6085 98.1709 83.8725 99.8186 82.4004 101.041C80.9283 102.264 79.2285 102.871 77.2936 102.871C75.4269 102.871 73.7651 102.332 72.293 101.254C70.8209 100.176 70.0848 98.8163 70.0848 97.161H72.5586C72.5586 100.031 73.416 102.666 75.1385 105.073C76.861 107.48 79.312 109.417 82.5066 110.882C85.6937 112.355 89.5181 113.092 93.9572 113.092C101.629 113.092 107.183 110.654 110.628 105.772C114.073 100.897 115.788 95.1867 115.788 88.6565C115.788 85.1408 115.181 81.4277 113.96 77.5171C112.738 73.6066 110.317 70.2731 106.698 67.5091C103.078 64.7452 97.645 63.3632 90.4059 63.3632V61.7458C100.733 61.7458 108.671 62.9987 114.233 65.5121C119.787 68.0255 123.604 71.321 125.683 75.4138C127.762 79.5066 128.802 83.9183 128.802 88.6489C128.802 94.2452 127.383 99.0745 124.553 103.122C121.722 107.177 117.867 110.297 112.988 112.484C108.124 114.686 102.638 115.78 96.5447 115.78ZM90.4135 62.3988V60.8878C97.2277 60.8878 102.137 59.6652 105.15 57.2278C108.162 54.7903 110.044 51.829 110.795 48.3512C111.547 44.8735 111.926 41.4793 111.926 38.1838C111.926 34.4555 111.296 31.1524 110.044 28.2821C108.792 25.4118 106.978 23.1718 104.611 21.5545C102.243 19.9371 99.3372 19.1322 95.8997 19.1322C93.4639 19.1322 91.0737 19.4891 88.7517 20.2104C86.4221 20.9318 84.3202 21.9721 82.4611 23.3313C80.5944 24.6981 79.1299 26.2927 78.0524 28.1227C76.9749 29.9526 76.4361 31.9421 76.4361 34.0986H73.9624C73.9624 32.1623 74.7667 30.674 76.383 29.6337C77.9993 28.5934 79.6231 28.0695 81.2773 28.0695C83.2123 28.0695 84.9121 28.6466 86.3842 29.7932C87.8563 30.9398 88.5923 32.6635 88.5923 34.9566C88.5923 37.5384 87.788 39.3683 86.1717 40.4466C84.5554 41.5248 82.924 42.064 81.2773 42.064C79.3424 42.064 77.6047 41.4034 76.0643 40.0745C74.5239 38.7457 73.7499 36.7562 73.7499 34.0986C73.7499 30.9398 74.8426 28.0391 77.028 25.3815C79.2134 22.7314 82.1348 20.5749 85.7923 18.9272C89.4498 17.2794 93.4639 16.4518 97.8347 16.4518C102.638 16.4518 107.1 17.2794 111.228 18.9272C115.348 20.5825 118.664 23.02 121.176 26.2471C123.688 29.4743 124.94 33.4608 124.94 38.1914C124.94 42.4968 124.135 46.4985 122.519 50.1888C120.903 53.8867 117.625 56.8481 112.677 59.0654C107.73 61.2826 100.308 62.3988 90.4135 62.3988ZM86.3311 212.207L188.399 50.7735H192.596L90.5273 212.207H86.3311ZM173.443 212.853V210.271H185.706V123.745L145.587 183.801H212.166V186.382H140.86L187.648 115.992H197.976V210.271H207.658V212.853H173.443Z" fill="black"/>
<path d="M141.034 410.256C137.483 410.256 134.577 408.965 132.315 406.376C130.054 403.794 128.923 400.157 128.923 395.472C128.923 394.743 128.939 394.021 128.984 393.292C129.022 392.563 129.083 391.796 129.166 390.991C129.728 386.709 130.517 383.14 131.526 380.27C132.535 377.407 133.567 374.635 134.614 371.97C135.662 369.305 136.549 366.177 137.278 362.577C138.006 358.986 138.447 354.361 138.613 348.704C133.772 351.613 129.978 354.301 127.231 356.761C124.484 359.229 122.208 361.567 120.394 363.785C118.581 366.01 116.684 368.265 114.703 370.573C112.723 372.874 110.044 375.357 106.652 378.022C106.007 378.592 105.377 379.032 104.778 379.359C104.171 379.685 103.549 380.042 102.904 380.452C98.7832 382.798 95.0954 383.626 91.8249 382.935C88.5544 382.252 85.9896 380.368 84.1381 377.301C82.3624 374.233 81.9982 371.082 83.0454 367.847C84.0925 364.62 86.6801 361.833 90.7929 359.487C91.4379 359.084 92.0677 358.72 92.6672 358.393C93.2742 358.075 93.9799 357.748 94.7842 357.421C98.7377 355.804 102.213 354.695 105.195 354.088C108.177 353.481 111.106 352.979 113.975 352.577C116.843 352.174 120.007 351.408 123.483 350.276C126.95 349.145 131.192 347.208 136.193 344.46C131.185 341.711 126.95 339.775 123.483 338.643C120.015 337.512 116.843 336.745 113.975 336.342C111.106 335.94 108.185 335.431 105.195 334.831C102.205 334.224 98.7377 333.115 94.7842 331.498C93.9799 331.179 93.2742 330.83 92.6672 330.465C92.0601 330.101 91.4379 329.759 90.7929 329.433C86.6725 327.094 84.0925 324.307 83.0454 321.072C81.9982 317.845 82.3548 314.694 84.1381 311.619C85.9896 308.551 88.5544 306.675 91.8249 305.984C95.0954 305.301 98.7832 306.129 102.904 308.467C103.549 308.794 104.178 309.136 104.778 309.5C105.385 309.865 106.007 310.328 106.652 310.89C110.044 313.555 112.723 316.038 114.703 318.339C116.684 320.64 118.581 322.902 120.394 325.127C122.208 327.352 124.492 329.691 127.231 332.151C129.978 334.619 133.772 337.299 138.613 340.207C138.447 334.558 138.006 329.934 137.278 326.334C136.549 322.743 135.662 319.607 134.614 316.942C133.567 314.276 132.535 311.512 131.526 308.642C130.517 305.779 129.728 302.203 129.166 297.92C129.083 297.032 129.022 296.242 128.984 295.559C128.946 294.875 128.923 294.162 128.923 293.44C128.923 288.672 130.054 285.019 132.315 282.476C134.577 279.932 137.483 278.656 141.034 278.656C144.585 278.656 147.492 279.932 149.753 282.476C152.014 285.019 153.145 288.679 153.145 293.44C153.145 294.169 153.145 294.875 153.145 295.559C153.145 296.242 153.061 297.032 152.902 297.92C152.34 302.203 151.551 305.779 150.542 308.642C149.533 311.512 148.501 314.276 147.454 316.942C146.406 319.607 145.519 322.735 144.79 326.334C144.062 329.926 143.622 334.55 143.462 340.207C148.304 337.299 152.098 334.619 154.845 332.151C157.591 329.691 159.868 327.344 161.689 325.127C163.503 322.91 165.4 320.647 167.38 318.339C169.361 316.038 172.039 313.555 175.431 310.89C176.076 310.328 176.721 309.857 177.366 309.5C178.011 309.136 178.618 308.794 179.18 308.467C183.293 306.129 187.011 305.301 190.319 305.984C193.628 306.675 196.17 308.551 197.945 311.619C199.797 314.686 200.184 317.838 199.099 321.072C198.006 324.307 195.403 327.094 191.29 329.433C190.721 329.759 190.122 330.101 189.477 330.465C188.832 330.83 188.103 331.171 187.299 331.498C183.346 333.115 179.87 334.224 176.888 334.831C173.898 335.439 170.977 335.94 168.109 336.342C165.24 336.745 162.076 337.512 158.608 338.643C155.14 339.775 150.899 341.711 145.898 344.46C150.899 347.208 155.14 349.145 158.608 350.276C162.076 351.408 165.248 352.174 168.109 352.577C170.977 352.979 173.898 353.488 176.888 354.088C179.87 354.695 183.346 355.804 187.299 357.421C188.103 357.748 188.832 358.067 189.477 358.393C190.122 358.72 190.729 359.084 191.29 359.487C195.403 361.833 198.014 364.62 199.099 367.847C200.191 371.082 199.804 374.225 197.945 377.301C196.17 380.368 193.628 382.252 190.319 382.935C187.011 383.626 183.293 382.798 179.18 380.452C178.611 380.05 178.011 379.685 177.366 379.359C176.721 379.04 176.076 378.592 175.431 378.022C172.039 375.357 169.361 372.874 167.38 370.573C165.4 368.272 163.503 366.01 161.689 363.785C159.875 361.567 157.591 359.221 154.845 356.761C152.098 354.301 148.304 351.613 143.462 348.704C143.622 354.361 144.069 358.986 144.79 362.577C145.519 366.169 146.406 369.305 147.454 371.97C148.501 374.635 149.533 377.407 150.542 380.27C151.551 383.14 152.34 386.709 152.902 390.991C153.061 391.796 153.145 392.563 153.145 393.292C153.145 394.021 153.145 394.743 153.145 395.472C153.145 400.157 152.014 403.794 149.753 406.376C147.492 408.957 144.585 410.256 141.034 410.256Z" fill="black"/>
<path d="M428.125 154.87C428.125 145.743 427.639 136.92 426.675 128.4C425.704 119.88 424.535 111.277 423.162 102.59C421.788 93.9111 420.453 84.8978 419.163 75.5732C417.873 66.2411 416.902 56.2483 416.257 45.5873C416.257 44.6989 416.257 43.9092 416.257 43.2258C416.257 42.5424 416.257 41.8362 416.257 41.1072C416.257 35.5337 417.205 30.8866 419.102 27.1735C420.999 23.4604 424.808 21.6 430.545 21.6C436.198 21.6 440.03 23.4604 442.049 27.1735C444.067 30.8866 445.076 35.5337 445.076 41.1072C445.076 41.8362 445.038 42.5424 444.955 43.2258C444.872 43.9168 444.834 44.6989 444.834 45.5873C444.189 56.2483 443.195 66.2411 441.867 75.5732C440.531 84.9054 439.18 93.9111 437.807 102.59C436.434 111.277 435.265 119.873 434.294 128.4C433.322 136.92 432.837 145.743 432.837 154.87H428.125ZM430.788 207.697C428.125 207.697 425.681 207.051 423.465 205.76C421.242 204.47 419.489 202.715 418.199 200.491C416.909 198.273 416.264 195.828 416.264 193.163C416.264 190.498 416.909 188.053 418.199 185.836C419.489 183.618 421.242 181.834 423.465 180.505C425.681 179.176 428.125 178.508 430.788 178.508C433.451 178.508 435.872 179.176 438.05 180.505C440.228 181.842 441.988 183.618 443.316 185.836C444.644 188.06 445.312 190.498 445.312 193.163C445.312 195.828 444.644 198.273 443.316 200.491C441.98 202.715 440.228 204.47 438.05 205.76C435.872 207.051 433.451 207.697 430.788 207.697Z" fill="black"/>
<path d="M1010.58 813.787V809.55C1016.15 808.904 1021.25 807.006 1025.89 803.855C1030.53 800.703 1034.55 796.724 1037.94 791.918C1041.33 787.111 1043.95 781.88 1045.81 776.23C1047.67 770.581 1048.59 764.924 1048.59 759.267C1048.59 751.673 1046.86 744.65 1043.39 738.188C1039.92 731.726 1035 726.517 1028.61 722.561C1022.24 718.605 1014.65 716.623 1005.85 716.623C999.392 716.623 993.359 717.792 987.751 720.138C982.144 722.485 977.135 725.575 972.742 729.41C968.341 733.244 964.706 737.489 961.845 742.129C958.977 746.776 957.019 751.4 955.972 756.002C956.617 754.627 957.687 753.617 959.182 752.972C960.677 752.326 962.065 752 963.363 752C965.784 752 968.045 752.524 970.139 753.572C972.233 754.62 973.933 756.138 975.223 758.112C976.513 760.094 977.158 762.494 977.158 765.319C977.158 768.553 976.43 771.158 974.98 773.132C973.523 775.114 971.733 776.564 969.593 777.491C967.453 778.417 965.374 778.888 963.355 778.888C959.645 778.888 956.435 777.612 953.726 775.068C951.017 772.525 949.666 768.789 949.666 763.861C949.666 758.287 951.04 752.433 953.787 746.29C956.534 740.154 960.563 734.376 965.897 728.962C971.224 723.548 977.72 719.166 985.391 715.818C993.055 712.469 1001.77 710.791 1011.55 710.791C1020.67 710.791 1028.88 711.96 1036.19 714.307C1043.49 716.653 1049.72 720.024 1054.89 724.421C1060.06 728.825 1063.99 734.156 1066.7 740.412C1069.4 746.669 1070.75 753.762 1070.75 761.674C1070.75 767.49 1069.66 773.003 1067.48 778.212C1065.3 783.421 1062.27 788.205 1058.4 792.571C1054.52 796.929 1050.04 800.688 1044.96 803.839C1039.87 806.991 1034.4 809.436 1028.55 811.167C1022.7 812.913 1016.71 813.787 1010.58 813.787ZM1005.01 897.381C1002.34 897.381 999.9 896.736 997.684 895.445C995.461 894.154 993.708 892.4 992.418 890.175C991.128 887.958 990.483 885.513 990.483 882.848C990.483 880.183 991.128 877.737 992.418 875.52C993.708 873.303 995.461 871.519 997.684 870.19C999.9 868.861 1002.34 868.193 1005.01 868.193C1007.67 868.193 1010.11 868.861 1012.33 870.19C1014.55 871.526 1016.31 873.303 1017.6 875.52C1018.89 877.745 1019.53 880.183 1019.53 882.848C1019.53 885.513 1018.89 887.958 1017.6 890.175C1016.31 892.4 1014.55 894.154 1012.33 895.445C1010.11 896.736 1007.67 897.381 1005.01 897.381ZM1002.22 844.562C1002.22 838.829 1001.59 832.246 1000.35 824.812C999.096 817.378 997.722 809.587 996.227 801.425C994.732 793.269 993.541 785.35 992.653 777.68C992.57 776.792 992.509 775.987 992.471 775.258C992.433 774.529 992.41 773.8 992.41 773.079C992.41 770.74 992.813 768.151 993.625 765.326C994.429 762.501 995.886 760.056 997.98 757.999C1000.07 755.941 1003.03 754.908 1006.82 754.908C1010.61 754.908 1013.58 755.941 1015.72 757.999C1017.86 760.056 1019.36 762.501 1020.2 765.326C1021.05 768.151 1021.47 770.74 1021.47 773.079C1021.47 773.808 1021.47 774.537 1021.47 775.258C1021.47 775.987 1021.39 776.792 1021.23 777.68C1020.59 783.497 1019.49 789.435 1017.96 795.494C1016.43 801.554 1014.81 807.53 1013.12 813.43C1011.43 819.33 1009.97 824.918 1008.76 830.211C1007.55 835.503 1006.95 840.287 1006.95 844.57H1002.22V844.562Z" fill="black"/>
<path d="M940.227 146.631V141.908H1072.93V146.631H940.227ZM947.375 83.5082V78.6637H1080.2V83.5082H947.375ZM970.981 206.611L995.195 22.4505H999.915L975.701 206.611H970.981ZM1017.96 206.854L1042.17 22.6935L1046.89 22.4505L1022.68 206.611L1017.96 206.854Z" fill="black"/>
<path d="M143.485 649.597C132.793 649.597 123.786 647.903 116.479 644.517C109.164 641.13 103.64 637.037 99.9062 632.238C96.1729 627.439 94.2986 622.944 94.2986 618.753C94.2986 614.303 95.4747 610.552 97.8271 607.492C100.179 604.432 103.48 602.898 107.73 602.898C109.725 602.898 111.66 603.368 113.527 604.302C115.394 605.236 116.957 606.656 118.216 608.555C119.476 610.453 120.098 612.822 120.098 615.662C120.098 618.244 119.469 620.484 118.216 622.382C116.957 624.288 115.333 625.754 113.337 626.779C111.342 627.811 109.247 628.328 107.054 628.328C104.99 628.328 102.995 628.009 101.067 627.363C99.1322 626.718 97.5539 625.685 96.3322 624.273C95.1105 622.853 94.4959 621.015 94.4959 618.76H98.1685C98.1685 622.564 99.8759 626.612 103.291 630.894C106.705 635.184 111.729 638.822 118.361 641.821C124.993 644.82 133.211 646.316 142.999 646.316C153.691 646.316 161.613 643.628 166.766 638.245C171.918 632.861 174.498 625.404 174.498 615.859C174.498 610.187 173.147 605.434 170.438 601.599C167.729 597.765 164.17 594.477 159.762 591.736C155.353 588.994 150.504 586.481 145.223 584.195C139.941 581.91 134.645 579.503 129.326 576.989C124.014 574.476 119.15 571.53 114.733 568.143C110.317 564.757 106.758 560.603 104.057 555.667C101.348 550.739 99.9973 544.695 99.9973 537.535C99.9973 531.733 101.173 526.509 103.526 521.87C105.878 517.23 109.095 513.266 113.186 509.978C117.276 506.691 121.942 504.177 127.193 502.438C132.444 500.699 137.999 499.826 143.864 499.826C150.823 499.826 157.356 501.307 163.48 504.276C169.596 507.245 174.559 511.095 178.36 515.833C182.162 520.571 184.059 525.552 184.059 530.769C184.059 534.702 182.868 538.165 180.485 541.164C178.102 544.164 174.786 545.659 170.529 545.659C168.594 545.659 166.682 545.196 164.777 544.255C162.88 543.321 161.317 541.901 160.088 540.002C158.866 538.104 158.252 535.735 158.252 532.895C158.252 529.03 159.557 525.947 162.167 523.662C164.777 521.376 167.722 520.229 171.007 520.229C173.132 520.229 175.181 520.746 177.146 521.778C179.111 522.811 180.72 524.117 181.98 525.697C183.239 527.276 183.862 528.969 183.862 530.777H180.189C180.189 526.069 178.497 521.642 175.112 517.481C171.728 513.32 167.304 509.941 161.826 507.328C156.347 504.716 150.459 503.41 144.145 503.41C136.997 503.41 131.162 504.473 126.654 506.599C122.147 508.726 118.831 511.74 116.699 515.643C114.574 519.546 113.512 524.102 113.512 529.326C113.512 534.421 114.847 538.704 117.518 542.189C120.189 545.667 123.733 548.651 128.149 551.134C132.558 553.617 137.422 555.971 142.741 558.196C148.053 560.421 153.35 562.79 158.639 565.303C163.92 567.817 168.769 570.831 173.177 574.347C177.586 577.863 181.13 582.176 183.809 587.301C186.48 592.427 187.815 598.729 187.815 606.201C187.815 615.161 186.009 622.898 182.405 629.406C178.793 635.921 173.678 640.91 167.039 644.395C160.429 647.858 152.568 649.597 143.485 649.597ZM130.54 662.262V486.287H134.311V662.262H130.54ZM148.129 662.262V486.287H151.9V662.262H148.129Z" fill="black"/>
<path d="M369.635 799.944V795.745H461.77V799.944H369.635ZM381.495 882.832C380.676 877.168 381.032 871.966 382.565 867.228C384.098 862.49 386.192 858.124 388.856 854.13C391.512 850.136 394.274 846.476 397.134 843.127C399.995 839.786 402.416 836.65 404.396 833.711C406.369 830.78 407.363 828.016 407.363 825.42C407.363 819.55 406.529 814.25 404.859 809.512C403.19 804.773 401.262 800.202 399.085 795.798C396.899 791.394 394.979 786.83 393.31 782.085C391.641 777.346 390.806 772.039 390.806 766.177C390.806 756.624 393.052 748.682 397.552 742.334C402.052 735.986 408.373 731.217 416.522 728.005C424.664 724.801 434.225 723.198 445.205 723.198C453.522 723.198 460.632 724.155 466.528 726.061C472.424 727.975 477.25 730.534 480.999 733.738C484.747 736.942 487.509 740.542 489.285 744.536C491.053 748.53 491.941 752.638 491.941 756.867C491.941 759.662 491.341 762 490.15 763.876C488.959 765.751 487.441 767.149 485.597 768.075C483.753 768.994 481.78 769.457 479.663 769.457C477.956 769.457 476.218 769.062 474.45 768.28C472.675 767.498 471.18 766.268 469.95 764.597C468.721 762.927 468.107 760.725 468.107 757.999C468.107 755.614 468.653 753.579 469.746 751.909C470.838 750.238 472.265 748.963 474.04 748.074C475.808 747.186 477.683 746.745 479.663 746.745C481.636 746.745 483.548 747.155 485.392 747.975C487.236 748.796 488.746 749.972 489.945 751.506C491.137 753.04 491.736 754.832 491.736 756.875H488.056C488.056 752.919 487.236 749.152 485.605 745.568C483.966 741.984 481.477 738.78 478.138 735.948C474.799 733.115 470.573 730.883 465.458 729.243C460.344 727.603 454.311 726.79 447.361 726.79C440.273 726.79 434.506 728.005 430.082 730.42C425.651 732.842 422.221 735.963 419.808 739.782C417.387 743.602 415.733 747.664 414.845 751.962C413.957 756.26 413.517 760.322 413.517 764.142C413.517 769.191 414.094 773.884 415.255 778.212C416.416 782.548 417.744 786.641 419.246 790.49C420.741 794.348 422.077 798.129 423.23 801.85C424.391 805.571 424.968 809.337 424.968 813.156C424.968 819.299 423.959 824.546 421.948 828.912C419.937 833.279 417.349 837.136 414.177 840.477C411.006 843.818 407.682 846.939 404.207 849.84C400.731 852.74 397.491 855.724 394.494 858.792C391.496 861.86 389.129 865.307 387.384 869.127C385.646 872.946 384.978 877.517 385.388 882.84H381.495V882.832ZM454.918 884.981C447.968 884.981 442.034 884.351 437.124 883.091C432.215 881.83 427.935 880.38 424.292 878.74C420.65 877.1 417.304 875.657 414.269 874.389C411.233 873.128 408.115 872.498 404.912 872.498C402.12 872.498 399.358 872.923 396.626 873.774C393.902 874.624 391.527 875.824 389.516 877.358C387.505 878.891 386.154 880.714 385.479 882.832H383.332C384.356 879.013 385.631 875.634 387.164 872.703C388.696 869.772 390.593 867.281 392.84 865.231C395.086 863.181 397.779 861.632 400.921 860.576C404.055 859.521 407.735 858.989 411.962 858.989C417.076 858.989 421.538 859.331 425.355 860.015C429.172 860.698 432.7 861.495 435.94 862.422C439.18 863.34 442.398 864.145 445.6 864.829C448.802 865.512 452.346 865.854 456.231 865.854C459.433 865.854 462.757 865.634 466.202 865.186C469.647 864.745 472.849 863.857 475.816 862.528C478.783 861.199 481.181 859.255 483.025 856.696C484.869 854.137 485.787 850.781 485.787 846.62H489.778C489.778 856.514 488.139 864.236 484.869 869.795C481.598 875.353 477.303 879.279 471.984 881.564C466.68 883.835 460.981 884.981 454.918 884.981Z" fill="black"/>
<path d="M1244.12 648.215L1293.68 576.541L1247.08 504.177V500.335H1353.87V540.754H1349.93C1349.93 533.723 1348.8 527.443 1346.53 521.923C1344.27 516.402 1340.72 512.067 1335.9 508.908C1331.07 505.757 1324.81 504.177 1317.13 504.177H1267.77L1306.78 565.106L1251.41 644.372H1315.05C1324.05 644.372 1331.24 642.732 1336.62 639.444C1342.01 636.156 1345.9 631.494 1348.3 625.442C1350.69 619.398 1351.89 612.2 1351.89 603.855H1355.73V648.215H1244.12Z" fill="black"/>
<path d="M382.375 584.256C377.193 584.256 372.367 583.406 367.92 581.69C363.466 579.981 359.581 577.415 356.249 573.998C352.926 570.581 350.331 566.366 348.472 561.362C346.612 556.358 345.679 550.588 345.679 544.057C345.679 537.527 346.605 531.756 348.472 526.752C350.331 521.748 352.926 517.534 356.249 514.117C359.573 510.7 363.466 508.118 367.92 506.379C372.374 504.64 377.193 503.767 382.375 503.767C387.498 503.767 392.286 504.64 396.74 506.379C401.194 508.118 405.064 510.7 408.365 514.117C411.658 517.534 414.238 521.748 416.097 526.752C417.956 531.756 418.89 537.527 418.89 544.057C418.89 550.588 417.805 556.358 415.642 561.362C413.479 566.366 410.596 570.581 406.992 573.998C403.395 577.415 399.441 579.981 395.139 581.69C390.844 583.406 386.587 584.256 382.375 584.256ZM382.375 580.778C385.729 580.778 388.476 579.753 390.609 577.711C392.741 575.668 394.41 572.904 395.594 569.426C396.785 565.949 397.605 562.008 398.068 557.611C398.523 553.215 398.751 548.697 398.751 544.057C398.751 539.357 398.523 534.824 398.068 530.458C397.613 526.091 396.785 522.173 395.594 518.688C394.403 515.21 392.741 512.446 390.609 510.404C388.476 508.361 385.729 507.336 382.375 507.336C378.961 507.336 376.168 508.361 374.006 510.404C371.843 512.446 370.159 515.21 368.975 518.688C367.783 522.166 366.964 526.091 366.501 530.458C366.046 534.824 365.818 539.357 365.818 544.057C365.818 548.697 366.046 553.215 366.501 557.611C366.956 562.008 367.783 565.941 368.975 569.426C370.166 572.904 371.843 575.668 374.006 577.711C376.168 579.753 378.961 580.778 382.375 580.778ZM381.465 642.952L475.9 505.597H480.111L385.669 642.952H381.465ZM479.193 644.782C474.071 644.782 469.275 643.909 464.828 642.17C460.374 640.431 456.504 637.85 453.203 634.433C449.91 631.016 447.33 626.801 445.471 621.798C443.612 616.794 442.679 611.023 442.679 604.492C442.679 597.962 443.604 592.191 445.471 587.187C447.33 582.183 449.91 577.969 453.203 574.552C456.497 571.135 460.374 568.568 464.828 566.86C469.283 565.151 474.071 564.293 479.193 564.293C484.376 564.293 489.194 565.151 493.648 566.86C498.103 568.568 501.988 571.135 505.319 574.552C508.643 577.969 511.238 582.183 513.097 587.187C514.956 592.191 515.889 597.962 515.889 604.492C515.889 611.023 514.789 616.794 512.596 621.798C510.403 626.801 507.52 631.016 503.946 634.433C500.379 637.85 496.426 640.431 492.093 642.17C487.76 643.917 483.465 644.782 479.193 644.782ZM479.193 641.214C482.608 641.214 485.4 640.188 487.563 638.146C489.725 636.103 491.41 633.339 492.594 629.862C493.785 626.384 494.604 622.443 495.067 618.046C495.523 613.65 495.75 609.132 495.75 604.492C495.75 599.792 495.523 595.259 495.067 590.893C494.612 586.527 493.785 582.608 492.594 579.123C491.402 575.645 489.725 572.881 487.563 570.839C485.4 568.796 482.608 567.771 479.193 567.771C475.839 567.771 473.092 568.796 470.96 570.839C468.82 572.881 467.158 575.645 465.974 579.123C464.783 582.601 463.963 586.527 463.501 590.893C463.045 595.259 462.818 599.792 462.818 604.492C462.818 609.132 463.045 613.65 463.501 618.046C463.956 622.443 464.783 626.376 465.974 629.862C467.166 633.339 468.827 636.103 470.96 638.146C473.092 640.196 475.839 641.214 479.193 641.214Z" fill="black"/>
<path d="M703.954 901.018C695.144 901.018 686.554 899.568 678.192 896.675C669.83 893.782 662.287 889.127 655.572 882.726C648.849 876.325 643.514 867.874 639.553 857.387C635.6 846.901 633.619 834.091 633.619 818.965C633.619 806.869 635.342 795.266 638.779 784.165C642.217 773.064 647.073 762.843 653.349 753.511C659.616 744.179 667.015 736.039 675.536 729.091C684.058 722.143 693.429 716.752 703.658 712.917C713.887 709.09 724.654 707.177 735.976 707.177C748.193 707.177 758.794 709.394 767.763 713.836C776.732 718.278 784.146 724.163 789.996 731.506C795.847 738.841 800.202 746.935 803.071 755.781C805.931 764.628 807.365 773.466 807.365 782.282C807.365 790.004 806.258 797.666 804.034 805.259C801.819 812.853 798.548 819.755 794.246 825.966C789.935 832.178 784.616 837.151 778.28 840.88C771.944 844.615 764.659 846.476 756.426 846.476C752.116 846.476 748.55 845.64 745.719 843.962C742.889 842.292 740.719 840.082 739.209 837.349C737.699 834.615 736.765 831.638 736.409 828.419C736.052 825.199 736.234 822.109 736.94 819.147L750.834 759.297H768.195L754.21 819.147C754.021 820.112 753.679 821.517 753.194 823.347C752.708 825.176 752.344 827.158 752.086 829.285C751.828 831.411 751.843 833.453 752.131 835.412C752.42 837.379 753.239 838.981 754.59 840.242C755.941 841.495 757.997 842.125 760.767 842.125C767.065 842.125 772.839 840.454 778.083 837.106C783.326 833.757 787.841 829.239 791.635 823.544C795.429 817.849 798.373 811.448 800.46 804.333C802.547 797.226 803.594 789.868 803.594 782.274C803.594 773.777 802.259 765.334 799.588 756.936C796.917 748.537 792.819 740.86 787.287 733.913C781.755 726.965 774.729 721.399 766.207 717.215C757.686 713.031 747.571 710.943 735.87 710.943C725.064 710.943 714.76 712.811 704.948 716.539C695.137 720.275 686.137 725.484 677.934 732.181C669.731 738.879 662.614 746.745 656.566 755.781C650.518 764.825 645.844 774.704 642.528 785.418C639.212 796.132 637.558 807.317 637.558 818.965C637.558 833.446 639.424 845.678 643.15 855.648C646.883 865.626 651.914 873.667 658.251 879.78C664.587 885.893 671.712 890.335 679.619 893.106C687.533 895.87 695.637 897.26 703.931 897.26C714.221 897.26 723.463 896.265 731.666 894.268C739.869 892.271 747.244 889.249 753.808 885.194C760.364 881.139 766.443 875.961 772.043 869.651L774.554 872.065C766.45 881.526 756.593 888.717 744.983 893.638C733.388 898.551 719.707 901.018 703.954 901.018ZM706.845 846.089C701.761 846.089 697.018 844.912 692.617 842.565C688.209 840.219 684.657 836.756 681.956 832.185C679.255 827.614 677.904 821.987 677.904 815.29C677.904 808.016 679.156 800.954 681.668 794.097C684.172 787.24 687.564 781.067 691.843 775.562C696.123 770.057 700.957 765.668 706.359 762.388C711.762 759.107 717.324 757.467 723.046 757.467C727.159 757.467 730.604 758.515 733.366 760.603C736.128 762.699 738.351 765.432 740.021 768.811C741.69 772.19 742.896 775.888 743.64 779.913C744.376 783.937 744.748 787.939 744.748 791.933C744.748 799.268 743.739 806.208 741.713 812.739C739.687 819.269 736.887 825.047 733.32 830.067C729.754 835.086 725.702 839.012 721.164 841.844C716.641 844.669 711.861 846.089 706.845 846.089ZM710.707 841.449C714.312 841.449 717.924 840.143 721.559 837.538C725.193 834.934 728.502 831.358 731.491 826.824C734.481 822.284 736.894 817.105 738.731 811.281C740.567 805.457 741.477 799.359 741.477 792.989C741.477 790.931 741.303 788.212 740.946 784.833C740.59 781.454 739.869 778.03 738.776 774.552C737.683 771.074 736.06 768.151 733.904 765.767C731.749 763.39 728.843 762.198 725.171 762.198C721.634 762.198 718.189 763.807 714.851 767.027C711.504 770.247 708.53 774.491 705.927 779.769C703.324 785.046 701.245 790.794 699.705 796.998C698.164 803.209 697.39 809.307 697.39 815.29C697.39 819.603 697.777 823.757 698.551 827.743C699.325 831.737 700.676 835.017 702.603 837.592C704.531 840.166 707.232 841.449 710.707 841.449Z" fill="black"/>
<path d="M1269.93 425.275C1260.63 425.275 1252.37 423.757 1245.13 420.712C1237.89 417.667 1232.21 413.293 1228.08 407.59C1223.96 401.888 1221.89 394.978 1221.89 386.861C1221.89 380.771 1223.33 375.304 1226.19 370.436C1229.06 365.577 1232.68 361.309 1237.05 357.634C1241.42 353.959 1245.95 350.793 1250.64 348.135C1255.32 345.477 1259.57 343.328 1263.38 341.681C1267.19 340.04 1269.86 338.833 1271.4 338.059L1272.97 341.104C1266.95 344.323 1261.87 347.922 1257.71 351.916C1253.55 355.903 1250.38 360.641 1248.21 366.139C1246.04 371.629 1244.97 378.227 1244.97 385.919C1244.97 390.118 1245.77 394.158 1247.38 398.038C1248.99 401.918 1251.28 405.404 1254.25 408.479C1257.22 411.562 1260.75 413.992 1264.84 415.776C1268.93 417.561 1273.42 418.449 1278.32 418.449C1286.22 418.449 1293.74 416.718 1300.87 413.255C1308 409.793 1314.59 405.054 1320.64 399.033C1326.68 393.019 1332.02 386.124 1336.63 378.356C1341.25 370.588 1345 362.372 1347.91 353.693C1350.81 345.022 1352.68 336.342 1353.52 327.663H1357.71C1356.66 337.041 1354.51 346.396 1351.26 355.736C1348.01 365.076 1343.78 373.907 1338.57 382.236C1333.37 390.566 1327.3 397.962 1320.38 404.432C1313.46 410.901 1305.76 415.996 1297.3 419.702C1288.84 423.415 1279.72 425.275 1269.93 425.275ZM1325.73 423.172L1256.3 320.321C1253.57 316.334 1251.28 311.945 1249.43 307.146C1247.58 302.355 1246.65 298.103 1246.65 294.397C1246.65 288.102 1248.47 282.658 1252.11 278.079C1255.74 273.5 1260.74 269.947 1267.1 267.426C1273.46 264.905 1280.7 263.644 1288.81 263.644C1296.29 263.644 1303.02 264.798 1309 267.107C1314.98 269.415 1319.7 272.65 1323.16 276.811C1326.62 280.972 1328.35 285.855 1328.35 291.451C1328.35 297.115 1327.25 301.96 1325.05 305.984C1322.85 310.009 1319.82 313.525 1315.98 316.532C1312.14 319.539 1307.74 322.34 1302.77 324.93C1297.8 327.519 1292.56 330.245 1287.04 333.115L1284.73 330.283C1288.08 328.187 1291.58 325.439 1295.22 322.044C1298.85 318.65 1301.91 314.398 1304.39 309.295C1306.87 304.185 1308.12 298.065 1308.12 290.927C1308.12 287.639 1307.59 284.161 1306.54 280.486C1305.5 276.811 1303.59 273.683 1300.83 271.093C1298.07 268.504 1294.07 267.213 1288.82 267.213C1283.43 267.213 1279.17 268.246 1276.03 270.311C1272.88 272.376 1270.62 275.072 1269.26 278.39C1267.9 281.716 1267.22 285.232 1267.22 288.937C1267.22 292.575 1268.48 297.04 1270.99 302.317C1273.51 307.602 1277 313.601 1281.48 320.313L1346.82 419.072H1374.82V423.164H1325.73V423.172ZM1327.61 330.716V326.623H1377.95V330.716H1327.61Z" fill="black"/>
<path d="M141.034 745.622C149.131 745.622 156.704 747.125 163.761 750.14C170.818 753.154 177.025 757.338 182.39 762.707C187.754 768.075 191.951 774.286 194.986 781.348C198.021 788.41 199.539 795.988 199.539 804.09C199.539 812.192 198.021 819.77 194.986 826.832C191.951 833.894 187.754 840.105 182.39 845.473C177.025 850.842 170.818 855.026 163.761 858.04C156.704 861.055 149.131 862.558 141.034 862.558C132.938 862.558 125.365 861.055 118.308 858.04C111.251 855.026 105.043 850.842 99.6786 845.473C94.3138 840.105 90.1327 833.894 87.1202 826.832C84.1077 819.77 82.6053 812.192 82.6053 804.09C82.6053 795.988 84.1077 788.41 87.1202 781.348C90.1327 774.286 94.3138 768.075 99.6786 762.707C105.043 757.338 111.251 753.154 118.308 750.14C125.365 747.133 132.938 745.622 141.034 745.622ZM141.034 859.597C148.721 859.597 155.907 858.154 162.584 855.269C169.262 852.383 175.143 848.397 180.227 843.309C185.311 838.222 189.28 832.337 192.14 825.655C195.001 818.973 196.428 811.782 196.428 804.09C196.428 796.398 195.001 789.207 192.14 782.525C189.28 775.843 185.311 769.958 180.227 764.871C175.143 759.783 169.262 755.797 162.584 752.911C155.907 750.026 148.721 748.583 141.034 748.583C133.347 748.583 126.161 750.026 119.484 752.911C112.806 755.797 106.925 759.783 101.841 764.871C96.7572 769.958 92.7886 775.843 89.9279 782.525C87.0671 789.207 85.6405 796.398 85.6405 804.09C85.6405 811.782 87.0671 818.973 89.9279 825.655C92.7886 832.337 96.7572 838.222 101.841 843.309C106.925 848.397 112.806 852.383 119.484 855.269C126.161 858.154 133.347 859.597 141.034 859.597ZM142.4 837.045C146.346 837.045 149.821 836.263 152.834 834.691C155.846 833.119 158.206 831.023 159.929 828.389C161.651 825.754 162.584 822.823 162.736 819.58H164.557V838.26H162.964L158.639 832.869C156.567 834.843 154.048 836.384 151.088 837.5C148.129 838.617 144.927 839.171 141.489 839.171C135.32 839.171 129.902 837.652 125.251 834.615C120.599 831.578 116.98 827.424 114.4 822.162C111.82 816.9 110.53 810.871 110.53 804.09C110.53 797.309 111.82 791.28 114.4 786.018C116.98 780.756 120.599 776.602 125.251 773.565C129.902 770.528 135.32 769.009 141.489 769.009C144.472 769.009 147.347 769.54 150.102 770.604C152.856 771.667 155.277 773.109 157.349 774.932L162.053 769.92H163.647V788.6H161.826C161.674 785.054 160.672 781.978 158.828 779.374C156.984 776.769 154.602 774.742 151.695 773.299C148.789 771.856 145.686 771.135 142.4 771.135C138.401 771.135 135.039 772.061 132.308 773.907C129.576 775.752 127.391 778.25 125.744 781.386C124.097 784.522 122.898 788.053 122.14 791.979C121.381 795.904 121.001 799.936 121.001 804.09C121.001 808.243 121.381 812.276 122.14 816.201C122.898 820.127 124.097 823.658 125.744 826.794C127.391 829.93 129.576 832.428 132.308 834.273C135.039 836.126 138.401 837.045 142.4 837.045Z" fill="black"/>
<path d="M1299.87 207.94C1286.95 207.94 1274.86 205.533 1263.6 200.734C1252.34 195.927 1242.43 189.245 1233.88 180.68C1225.32 172.122 1218.64 162.205 1213.84 150.937C1209.04 139.668 1206.64 127.572 1206.64 114.648C1206.64 101.725 1209.04 89.6284 1213.84 78.3599C1218.64 67.0915 1225.32 57.1746 1233.88 48.617C1242.43 40.0593 1252.34 33.3696 1263.6 28.5631C1274.86 23.7565 1286.95 21.357 1299.87 21.357C1312.78 21.357 1324.87 23.7641 1336.13 28.5631C1347.39 33.3696 1357.3 40.0517 1365.85 48.617C1374.41 57.1822 1381.11 67.0915 1385.96 78.3599C1390.8 89.6284 1393.22 101.725 1393.22 114.648C1393.22 127.572 1390.8 139.668 1385.96 150.937C1381.11 162.205 1374.41 172.122 1365.85 180.68C1357.29 189.245 1347.39 195.927 1336.13 200.734C1324.87 205.54 1312.78 207.94 1299.87 207.94ZM1299.87 203.217C1312.14 203.217 1323.6 200.916 1334.26 196.307C1344.91 191.705 1354.3 185.342 1362.41 177.225C1370.52 169.107 1376.86 159.715 1381.42 149.054C1385.98 138.393 1388.26 126.927 1388.26 114.641C1388.26 102.362 1385.98 90.8965 1381.42 80.2279C1376.86 69.5669 1370.52 60.174 1362.41 52.0567C1354.3 43.9395 1344.91 37.5763 1334.26 32.9748C1323.6 28.3732 1312.14 26.0649 1299.87 26.0649C1287.6 26.0649 1276.14 28.3656 1265.48 32.9748C1254.82 37.5763 1245.44 43.9395 1237.33 52.0567C1229.21 60.174 1222.88 69.5669 1218.32 80.2279C1213.76 90.8889 1211.47 102.362 1211.47 114.641C1211.47 126.919 1213.75 138.385 1218.32 149.054C1222.88 159.715 1229.21 169.107 1237.33 177.225C1245.44 185.342 1254.82 191.705 1265.48 196.307C1276.13 200.916 1287.6 203.217 1299.87 203.217ZM1338.01 170.383C1332.44 170.383 1328.44 169.07 1326.02 166.442C1323.6 163.815 1322.08 160.444 1321.48 156.328C1320.87 152.212 1320.57 147.831 1320.57 143.184C1320.57 138.537 1320.23 134.156 1319.54 130.04C1318.85 125.917 1317.19 122.545 1314.57 119.926C1311.95 117.298 1307.65 115.985 1301.68 115.985H1284.24V166.754H1300.22V169.662H1254.46V166.754H1270.44V63.515H1254.46V60.6068H1302.41C1313.39 60.6068 1322.18 62.8924 1328.81 67.456C1335.43 72.0195 1338.73 79.0282 1338.73 88.4742C1338.73 96.9559 1336.17 103.274 1331.05 107.435C1325.92 111.596 1318.56 113.995 1308.95 114.641C1315.97 115.127 1321.36 116.744 1325.11 119.485C1328.87 122.234 1331.49 125.583 1332.98 129.539C1334.48 133.495 1335.34 137.641 1335.58 141.954C1335.83 146.274 1335.96 150.352 1336.01 154.194C1336.05 158.029 1336.5 161.142 1337.35 163.526C1338.2 165.911 1339.99 167.103 1342.73 167.103C1344.27 167.103 1345.64 166.943 1346.85 166.617C1348.06 166.298 1349.14 165.934 1350.12 165.523L1351.09 168.067C1349.96 168.713 1348.22 169.259 1345.88 169.7C1343.53 170.163 1340.91 170.383 1338.01 170.383ZM1284.24 113.19H1302.4C1309.34 113.19 1314.71 111.049 1318.5 106.766C1322.3 102.484 1324.19 96.3864 1324.19 88.4742C1324.19 80.4785 1322.3 74.3203 1318.5 69.9997C1314.71 65.6791 1309.34 63.515 1302.4 63.515H1284.24V113.19Z" fill="black"/>
<path d="M957.178 376.754V375.182H966.74V313.023H958.021C952.937 313.023 949.666 314.641 948.217 317.868C946.76 321.103 946.039 325.461 946.039 330.951H944.226V311.323H997.623V330.951H995.931C995.931 325.461 995.188 321.095 993.693 317.868C992.198 314.641 988.912 313.023 983.828 313.023H975.109V375.182H984.67V376.754H957.178ZM1037.33 377.597L1013.97 313.866V375.175H1020.39V376.746H1005.98V375.175H1012.15V313.016H1005.49V311.323H1021.35L1041.57 365.964L1060.46 311.323H1076.2V313.016H1070.14V375.175H1076.2V376.746H1054.89V375.175H1061.8V313.016L1039.4 377.597H1037.33Z" fill="black"/>
<path d="M659.715 287.51V398.448H677.623V401.41H641.048V398.448H656.604V290.471H641.048V287.51H659.715ZM749.104 287.51V290.471H733.093V402.928H728.995L657.515 287.51H674.967L730.057 377.946V290.471H712.529V287.51H749.104ZM748.648 314.77C748.648 320.844 749.726 326.046 751.873 330.374C754.021 334.702 757.01 338.005 760.827 340.283C764.644 342.561 769.114 343.7 774.22 343.7C779.327 343.7 783.819 342.561 787.689 340.283C791.559 338.005 794.572 334.702 796.719 330.374C798.867 326.046 799.944 320.844 799.944 314.77C799.944 308.695 798.867 303.517 796.719 299.242C794.572 294.967 791.559 291.686 787.689 289.408C783.819 287.13 779.327 285.991 774.22 285.991C769.114 285.991 764.644 287.13 760.827 289.408C757.01 291.686 754.021 294.967 751.873 299.242C749.726 303.524 748.648 308.695 748.648 314.77ZM756.085 355.014V352.129H792.508V355.014H756.085ZM761.548 314.77C761.548 306.113 762.55 299.431 764.545 294.724C766.541 290.016 769.766 287.662 774.22 287.662C778.72 287.662 781.975 290.016 783.971 294.724C785.967 299.431 786.968 306.113 786.968 314.77C786.968 323.479 785.967 330.199 783.971 334.93C781.975 339.661 778.72 342.03 774.22 342.03C769.766 342.03 766.541 339.661 764.545 334.93C762.55 330.199 761.548 323.479 761.548 314.77Z" fill="black"/>
<path d="M409.776 447.083C400.739 447.083 393.029 445.124 386.648 441.206C380.266 437.288 375.425 432.421 372.116 426.604C368.808 420.788 367.154 415.055 367.154 409.398C367.154 400.43 369.354 393.847 373.755 389.647C378.157 385.448 383.142 383.345 388.712 383.345C393.712 383.345 398.136 385.099 401.968 388.615C405.8 392.13 407.72 397.036 407.72 403.338C407.72 408.266 405.762 412.283 401.847 415.396C397.931 418.51 393.553 420.059 388.712 420.059C385.001 420.059 381.693 419.39 378.786 418.062C375.88 416.725 373.862 415.252 372.731 413.642C373.619 418.487 375.652 423.096 378.847 427.454C382.034 431.813 386.253 435.374 391.497 438.115C396.74 440.864 402.833 442.231 409.776 442.231C419.702 442.231 428.056 439.422 434.84 433.81C441.616 428.199 446.769 420.742 450.274 411.455C453.788 402.169 455.541 392.032 455.541 381.044V241.844H460.26V380.33C460.26 392.047 458.386 402.989 454.63 413.164C450.874 423.339 445.266 431.54 437.799 437.759C430.34 443.978 420.999 447.083 409.776 447.083ZM435.326 360.702C413.449 360.702 396.785 356.746 385.32 348.826C373.854 340.914 368.125 329.076 368.125 313.327C368.125 297.579 373.854 285.726 385.32 277.768C396.778 269.81 413.449 265.831 435.326 265.831H494.415V270.554H438.839C434.802 270.554 430.985 272.126 427.396 275.277C423.807 278.428 420.901 283.174 418.677 289.515C416.454 295.855 415.346 303.79 415.346 313.32C415.346 322.849 416.454 330.769 418.677 337.064C420.893 343.366 423.799 348.089 427.396 351.241C430.985 354.392 434.802 355.964 438.839 355.964H459.304V360.687H435.326V360.702Z" fill="black"/>
<path d="M1277.71 888.543C1267.22 888.543 1258.84 885.854 1252.59 880.486C1246.33 875.118 1243.2 867.828 1243.2 858.617C1243.2 847.797 1247.84 839.292 1257.12 833.112C1266.4 826.931 1279.64 823.84 1296.84 823.84H1324.32V827.956H1296.84C1289.74 827.956 1284.01 829.452 1279.64 832.436C1275.29 835.427 1272.09 839.141 1270.08 843.583C1268.07 848.025 1267.06 852.467 1267.06 856.909C1267.06 860.949 1267.68 864.829 1268.93 868.542C1270.18 872.255 1272.14 875.33 1274.8 877.752C1277.47 880.175 1280.93 881.39 1285.21 881.39C1289.65 881.39 1294.01 879.917 1298.29 876.97C1302.57 874.024 1306.1 869.62 1308.88 863.766C1311.67 857.911 1313.06 850.584 1313.06 841.775H1315.85C1315.85 850.986 1314.38 859.103 1311.43 866.127C1308.49 873.151 1304.18 878.648 1298.54 882.605C1292.88 886.561 1285.94 888.543 1277.71 888.543ZM1334.13 888.543C1330.33 888.543 1326.84 887.874 1323.66 886.546C1320.47 885.209 1317.9 882.992 1315.97 879.879C1314.03 876.773 1313.06 872.589 1313.06 867.342V812.336C1313.06 806.52 1312.58 800.946 1311.61 795.616C1310.63 790.285 1308.6 785.927 1305.49 782.532C1302.38 779.138 1297.6 777.445 1291.14 777.445C1287.51 777.445 1283.73 777.847 1279.82 778.66C1275.9 779.472 1272.27 780.702 1268.92 782.358C1265.57 784.013 1262.84 786.094 1260.75 788.6C1258.65 791.105 1257.6 794.052 1257.6 797.446H1251.91C1251.91 793.33 1253.26 790.073 1255.96 787.696C1258.66 785.312 1261.63 784.12 1264.86 784.12C1268.33 784.12 1271.5 785.228 1274.37 787.453C1277.23 789.678 1278.67 792.844 1278.67 796.967C1278.67 801.812 1277.19 805.328 1274.25 807.507C1271.31 809.686 1268.18 810.78 1264.86 810.78C1261.15 810.78 1258.03 809.648 1255.48 807.385C1252.93 805.123 1251.66 801.812 1251.66 797.453C1251.66 793.657 1252.89 790.247 1255.36 787.218C1257.81 784.188 1261.12 781.606 1265.28 779.465C1269.44 777.324 1274.12 775.668 1279.33 774.499C1284.53 773.329 1289.88 772.745 1295.37 772.745C1306.51 772.745 1314.84 774.681 1320.37 778.561C1325.89 782.441 1329.59 787.407 1331.45 793.467C1333.31 799.526 1334.23 805.829 1334.23 812.367V871.974C1334.23 874.639 1334.7 876.902 1335.62 878.762C1336.55 880.623 1338.51 881.549 1341.5 881.549C1343.59 881.549 1345.91 880.684 1348.45 878.945C1351 877.206 1352.95 875.004 1354.33 872.338L1356.63 876.697C1354.52 880.091 1351.58 882.916 1347.79 885.179C1344.02 887.404 1339.45 888.543 1334.13 888.543ZM1313.55 752.843C1308.95 752.843 1304.85 751.871 1301.26 749.934C1297.67 747.998 1294.34 745.773 1291.28 743.268C1288.2 740.762 1285.16 738.545 1282.13 736.601C1279.11 734.664 1275.86 733.692 1272.39 733.692C1268.35 733.692 1264.8 734.907 1261.74 737.33C1258.67 739.752 1257.14 744.11 1257.14 750.413H1252.3C1252.3 743.549 1253.59 737.831 1256.17 733.267C1258.75 728.704 1262 725.294 1265.92 723.031C1269.83 720.769 1273.76 719.637 1277.73 719.637C1282.48 719.637 1286.63 720.609 1290.13 722.545C1293.65 724.482 1296.81 726.707 1299.64 729.212C1302.46 731.718 1305.21 733.935 1307.87 735.879C1310.54 737.816 1313.4 738.788 1316.47 738.788C1321.07 738.788 1324.78 737.573 1327.61 735.15C1330.43 732.728 1331.84 728.362 1331.84 722.067H1336.56C1336.56 729.744 1335.64 735.819 1333.78 740.299C1331.92 744.779 1329.28 747.991 1325.85 749.934C1322.4 751.871 1318.31 752.843 1313.55 752.843Z" fill="black"/>
<path d="M702.277 170.383C695.417 168.849 688.512 166.063 681.577 162.023C674.633 157.983 668.259 152.835 662.447 146.578C656.634 140.321 651.952 133.07 648.401 124.831C644.85 116.592 643.074 107.549 643.074 97.6925C643.074 82.5059 646.261 69.2784 652.635 58.0099C659.009 46.7414 668.009 38.0167 679.634 31.8358C691.259 25.6548 704.857 22.5644 720.436 22.5644C736.097 22.5644 749.718 25.6548 761.298 31.8358C772.877 38.0167 781.884 46.7414 788.296 58.0099C794.716 69.2784 797.918 82.5059 797.918 97.6925C797.918 107.549 796.143 116.532 792.591 124.649C789.04 132.766 784.358 139.896 778.546 146.031C772.733 152.174 766.359 157.201 759.416 161.119C752.473 165.038 745.567 167.764 738.715 169.297V164.939C745.492 162.114 751.228 157.429 755.91 150.884C760.592 144.338 764.143 136.487 766.564 127.322C768.985 118.156 770.199 108.278 770.199 97.7001C770.199 88.2464 769.455 79.2636 767.96 70.7439C766.465 62.2242 763.885 54.6688 760.213 48.0855C756.54 41.5021 751.471 36.331 745.021 32.5799C738.564 28.8212 730.368 26.9457 720.443 26.9457C710.518 26.9457 702.323 28.8212 695.865 32.5799C689.408 36.3386 684.361 41.5097 680.727 48.0855C677.092 54.6688 674.527 62.2242 673.04 70.7439C671.545 79.2636 670.801 88.254 670.801 97.7001C670.801 108.285 672.015 118.24 674.436 127.565C676.857 136.897 680.408 144.93 685.09 151.673C689.772 158.416 695.501 163.208 702.285 166.032V170.383H702.277ZM649.122 206.732V170.383H653.842C653.842 176.04 655.117 180.217 657.659 182.92C660.201 185.631 664.579 186.982 670.794 186.982H697.671V167.839L702.269 167.961V206.732H649.122ZM738.723 206.732V166.746H743.321V186.982H770.199C776.413 186.982 780.792 185.631 783.334 182.92C785.876 180.217 787.151 176.033 787.151 170.383H791.87V206.732H738.723Z" fill="black"/>
<path d="M286.764 0.748962H-4.62085V228.548H286.764V0.748962Z" stroke="black" stroke-miterlimit="10" stroke-dasharray="10 10"/>
<path d="M576.481 0.74881H285.095V228.548H576.481V0.74881Z" stroke="black" stroke-miterlimit="10" stroke-dasharray="10 10"/>
<path d="M866.189 0.74881H574.804V228.548H866.189V0.74881Z" stroke="black" stroke-miterlimit="10" stroke-dasharray="10 10"/>
<path d="M1155.9 0.74881H864.519V228.548H1155.9V0.74881Z" stroke="black" stroke-miterlimit="10" stroke-dasharray="10 10"/>
<path d="M1445.62 0.74881H1154.24V228.548H1445.62V0.74881Z" stroke="black" stroke-miterlimit="10" stroke-dasharray="10 10"/>
<path d="M286.764 230.56H-4.62109V458.359H286.764V230.56Z" stroke="black" stroke-miterlimit="10" stroke-dasharray="10 10"/>
<path d="M576.481 230.56H285.095V458.359H576.481V230.56Z" stroke="black" stroke-miterlimit="10" stroke-dasharray="10 10"/>
<path d="M866.189 230.56H574.804V458.359H866.189V230.56Z" stroke="black" stroke-miterlimit="10" stroke-dasharray="10 10"/>
<path d="M1155.9 230.56H864.519V458.359H1155.9V230.56Z" stroke="black" stroke-miterlimit="10" stroke-dasharray="10 10"/>
<path d="M1445.62 230.56H1154.24V458.359H1445.62V230.56Z" stroke="black" stroke-miterlimit="10" stroke-dasharray="10 10"/>
<path d="M286.764 460.379H-4.62109V688.178H286.764V460.379Z" stroke="black" stroke-miterlimit="10" stroke-dasharray="10 10"/>
<path d="M576.481 460.379H285.095V688.178H576.481V460.379Z" stroke="black" stroke-miterlimit="10" stroke-dasharray="10 10"/>
<path d="M866.189 460.379H574.804V688.178H866.189V460.379Z" stroke="black" stroke-miterlimit="10" stroke-dasharray="10 10"/>
<path d="M1155.9 460.379H864.519V688.178H1155.9V460.379Z" fill="black" stroke="black" stroke-miterlimit="10" stroke-dasharray="10 10"/>
<path d="M1445.62 460.379H1154.24V688.178H1445.62V460.379Z" stroke="black" stroke-miterlimit="10" stroke-dasharray="10 10"/>
<path d="M286.764 690.19H-4.62109V917.989H286.764V690.19Z" stroke="black" stroke-miterlimit="10" stroke-dasharray="10 10"/>
<path d="M576.481 690.19H285.095V917.989H576.481V690.19Z" stroke="black" stroke-miterlimit="10" stroke-dasharray="10 10"/>
<path d="M866.189 690.19H574.804V917.989H866.189V690.19Z" stroke="black" stroke-miterlimit="10" stroke-dasharray="10 10"/>
<path d="M1155.9 690.19H864.519V917.989H1155.9V690.19Z" stroke="black" stroke-miterlimit="10" stroke-dasharray="10 10"/>
<path d="M1445.62 690.19H1154.24V917.989H1445.62V690.19Z" stroke="black" stroke-miterlimit="10" stroke-dasharray="10 10"/>
<path d="M663.711 634.858L660.319 631.464L679.328 612.321C669.964 601.987 665.282 589.299 665.282 574.279C665.282 559.259 669.964 546.579 679.328 536.237L660.198 517.215L663.711 513.7L682.72 532.842C687.485 528.4 693.07 524.93 699.489 522.424C705.909 519.919 713.027 518.666 720.858 518.666C728.689 518.666 735.814 519.919 742.226 522.424C748.645 524.93 754.192 528.362 758.874 532.721L777.883 513.821L781.274 517.215L762.266 536.237C771.546 546.495 776.19 559.176 776.19 574.279C776.19 589.223 771.592 601.941 762.387 612.443L781.274 631.343L777.761 634.858L758.874 615.837C754.192 620.196 748.645 623.651 742.226 626.194C735.806 628.738 728.681 630.014 720.858 630.014C713.027 630.014 705.886 628.761 699.429 626.255C692.971 623.749 687.401 620.279 682.72 615.837L663.711 634.858ZM720.858 624.683C731.193 624.683 740.048 622.345 747.431 617.652C754.815 612.967 760.49 606.809 764.444 599.177C768.397 591.546 770.378 583.247 770.378 574.279C770.378 565.311 768.397 557.012 764.444 549.381C760.49 541.749 754.822 535.606 747.431 530.967C740.048 526.32 731.185 524.004 720.858 524.004C710.522 524.004 701.644 526.327 694.223 530.967C686.794 535.614 681.088 541.749 677.089 549.381C673.09 557.012 671.094 565.311 671.094 574.279C671.094 583.247 673.09 591.546 677.089 599.177C681.088 606.809 686.794 612.974 694.223 617.652C701.644 622.337 710.522 624.683 720.858 624.683Z" fill="black"/>
<ellipse cx="720.125" cy="574.4" rx="13.4838" ry="13.489" fill="black"/>
<path d="M1003.47 587.248C993.923 583.038 985.97 580.275 979.609 578.959C973.512 577.381 967.548 576.591 961.716 576.591C954.294 576.591 946.474 578.828 938.257 583.301C930.04 587.775 922.75 593.301 916.389 599.879V569.092C929.112 555.145 945.017 548.172 964.102 548.172C971.789 548.172 979.344 548.961 986.766 550.54C994.453 552.119 1004.39 555.54 1016.59 560.803C1026.13 565.013 1033.95 567.907 1040.05 569.486C1046.41 570.802 1052.37 571.46 1057.94 571.46C1065.62 571.46 1073.58 569.223 1081.79 564.75C1090.01 560.276 1097.3 554.75 1103.66 548.172V578.565C1090.67 592.774 1074.77 599.879 1055.95 599.879C1048.53 599.879 1040.84 599.09 1032.89 597.511C1025.2 595.669 1015.39 592.248 1003.47 587.248Z" fill="white"/>
</g>
<defs>
<clipPath id="clip0_201:143">
<rect width="1451" height="918" fill="white" transform="translate(-5 0.369141)"/>
</clipPath>
</defs>
</svg>
