<svg width="1389" height="736" viewBox="0 0 1389 736" fill="none" xmlns="http://www.w3.org/2000/svg">
<path d="M209.514 93.6476C210.099 93.0618 210.099 92.112 209.514 91.5263L199.968 81.9803C199.382 81.3945 198.432 81.3945 197.846 81.9803C197.26 82.5661 197.26 83.5158 197.846 84.1016L206.332 92.5869L197.846 101.072C197.26 101.658 197.26 102.608 197.846 103.194C198.432 103.779 199.382 103.779 199.968 103.194L209.514 93.6476ZM1.7124 94.0869H208.453V91.0869H1.7124V94.0869Z" fill="white"/>
<path d="M481.001 52.704C481.314 51.9368 480.945 51.0615 480.178 50.7489L467.676 45.6554C466.909 45.3428 466.033 45.7114 465.721 46.4786C465.408 47.2458 465.777 48.1211 466.544 48.4337L477.657 52.9612L473.13 64.0743C472.817 64.8415 473.186 65.7169 473.953 66.0294C474.72 66.342 475.595 65.9734 475.908 65.2062L481.001 52.704ZM280.944 137.415L480.194 53.5205L479.03 50.7556L279.78 134.65L280.944 137.415Z" fill="white"/>
<path d="M727.233 120.991C728.026 120.753 728.477 119.916 728.239 119.123L724.359 106.192C724.121 105.399 723.285 104.948 722.492 105.186C721.698 105.425 721.248 106.261 721.486 107.054L724.934 118.548L713.44 121.996C712.647 122.234 712.196 123.071 712.435 123.864C712.673 124.658 713.509 125.108 714.302 124.87L727.233 120.991ZM550.811 26.4931L726.091 120.875L727.513 118.233L552.233 23.8517L550.811 26.4931Z" fill="white"/>
<path d="M1003.72 137.514C1004.53 137.646 1005.3 137.09 1005.44 136.272L1007.58 122.944C1007.72 122.126 1007.16 121.356 1006.34 121.224C1005.53 121.092 1004.76 121.648 1004.62 122.466L1002.71 134.313L990.866 132.402C990.048 132.27 989.278 132.827 989.146 133.644C989.014 134.462 989.57 135.232 990.388 135.364L1003.72 137.514ZM905.361 2.08038L1002.74 136.911L1005.17 135.155L907.793 0.323913L905.361 2.08038Z" fill="white"/>
<path d="M1331.6 69.6778C1332.19 69.0921 1332.19 68.1423 1331.6 67.5565L1322.06 58.0106C1321.47 57.4248 1320.52 57.4248 1319.94 58.0106C1319.35 58.5964 1319.35 59.5461 1319.94 60.1319L1328.42 68.6172L1319.94 77.1025C1319.35 77.6883 1319.35 78.638 1319.94 79.2238C1320.52 79.8096 1321.47 79.8096 1322.06 79.2238L1331.6 69.6778ZM1138.78 70.1172H1330.54V67.1172H1138.78V70.1172Z" fill="white"/>
<path d="M221.083 255.738C221.831 255.382 222.148 254.487 221.792 253.739L215.985 241.551C215.629 240.803 214.734 240.486 213.986 240.842C213.238 241.199 212.921 242.094 213.277 242.842L218.439 253.675L207.605 258.836C206.857 259.193 206.54 260.088 206.896 260.836C207.253 261.584 208.148 261.901 208.896 261.545L221.083 255.738ZM8.70168 180.892L219.937 255.798L220.939 252.97L9.70433 178.064L8.70168 180.892Z" fill="white"/>
<path d="M361.342 310.305C361.612 311.088 362.466 311.503 363.249 311.233L376.009 306.822C376.792 306.551 377.207 305.697 376.936 304.914C376.666 304.131 375.811 303.716 375.028 303.987L363.687 307.907L359.766 296.566C359.496 295.783 358.642 295.368 357.859 295.638C357.076 295.909 356.66 296.763 356.931 297.546L361.342 310.305ZM440.811 145.864L361.41 309.159L364.108 310.471L443.509 147.176L440.811 145.864Z" fill="white"/>
<path d="M638.174 325.861C638.762 326.444 639.712 326.44 640.295 325.851L649.798 316.263C650.381 315.674 650.377 314.724 649.788 314.141C649.2 313.558 648.25 313.562 647.667 314.151L639.22 322.674L630.697 314.227C630.108 313.644 629.158 313.648 628.575 314.237C627.992 314.825 627.996 315.775 628.585 316.358L638.174 325.861ZM636.913 143.53L637.73 324.802L640.73 324.789L639.913 143.517L636.913 143.53Z" fill="white"/>
<path d="M900.562 157.274C900.709 156.458 900.168 155.678 899.353 155.531L886.068 153.128C885.253 152.981 884.473 153.522 884.325 154.337C884.178 155.152 884.719 155.933 885.534 156.08L897.343 158.216L895.207 170.024C895.06 170.839 895.601 171.62 896.416 171.767C897.231 171.915 898.012 171.373 898.159 170.558L900.562 157.274ZM733.649 273.594L899.941 158.239L898.231 155.774L731.939 271.129L733.649 273.594Z" fill="white"/>
<path d="M976.989 279.936C977.035 280.763 977.743 281.396 978.57 281.35L992.049 280.597C992.877 280.55 993.51 279.842 993.463 279.015C993.417 278.188 992.709 277.555 991.882 277.601L979.901 278.271L979.231 266.29C979.185 265.463 978.477 264.829 977.65 264.876C976.822 264.922 976.189 265.63 976.236 266.457L976.989 279.936ZM1091.23 151.512L977.369 278.853L979.605 280.852L1093.46 153.512L1091.23 151.512Z" fill="white"/>
<path d="M1303.54 273.862C1304.37 273.881 1305.06 273.225 1305.08 272.396L1305.39 258.9C1305.41 258.072 1304.75 257.385 1303.92 257.366C1303.1 257.347 1302.41 258.003 1302.39 258.831L1302.11 270.828L1290.12 270.552C1289.29 270.533 1288.6 271.189 1288.58 272.017C1288.56 272.845 1289.22 273.532 1290.05 273.551L1303.54 273.862ZM1175.15 140.065L1302.49 273.398L1304.66 271.326L1177.32 137.993L1175.15 140.065Z" fill="white"/>
<path d="M57.1419 488.144C57.1713 488.972 57.8663 489.619 58.6942 489.59L72.1857 489.111C73.0136 489.081 73.6609 488.386 73.6315 487.558C73.6021 486.73 72.9071 486.083 72.0792 486.112L60.0867 486.539L59.6606 474.546C59.6312 473.718 58.9362 473.071 58.1083 473.1C57.2804 473.13 56.6331 473.825 56.6625 474.653L57.1419 488.144ZM199.865 334.26L57.5433 487.069L59.7386 489.113L202.06 336.305L199.865 334.26Z" fill="white"/>
<path d="M468.688 432.223C469.274 431.637 469.274 430.687 468.688 430.101L459.142 420.556C458.557 419.97 457.607 419.97 457.021 420.556C456.435 421.141 456.435 422.091 457.021 422.677L465.506 431.162L457.021 439.647C456.435 440.233 456.435 441.183 457.021 441.769C457.607 442.354 458.557 442.354 459.142 441.769L468.688 432.223ZM251.898 432.662H467.628V429.662H251.898V432.662Z" fill="white"/>
<path d="M838.315 432.513C839.061 432.152 839.374 431.255 839.013 430.51L833.139 418.355C832.778 417.609 831.882 417.296 831.136 417.657C830.39 418.017 830.077 418.914 830.438 419.66L835.659 430.464L824.855 435.686C824.109 436.046 823.797 436.943 824.157 437.689C824.518 438.435 825.414 438.748 826.16 438.387L838.315 432.513ZM654.399 368.909L837.169 432.579L838.156 429.746L655.386 366.076L654.399 368.909Z" fill="white"/>
<path d="M1103.89 411.249C1104.48 410.663 1104.48 409.714 1103.89 409.128L1094.34 399.582C1093.76 398.996 1092.81 398.996 1092.22 399.582C1091.64 400.168 1091.64 401.117 1092.22 401.703L1100.71 410.188L1092.22 418.674C1091.64 419.26 1091.64 420.209 1092.22 420.795C1092.81 421.381 1093.76 421.381 1094.34 420.795L1103.89 411.249ZM893.093 411.688H1102.83V408.688H893.093V411.688Z" fill="white"/>
<path d="M1203.64 477.166C1204.23 477.752 1205.18 477.752 1205.76 477.166L1215.31 467.62C1215.9 467.035 1215.9 466.085 1215.31 465.499C1214.72 464.913 1213.77 464.913 1213.19 465.499L1204.7 473.984L1196.22 465.499C1195.63 464.913 1194.68 464.913 1194.1 465.499C1193.51 466.085 1193.51 467.035 1194.1 467.62L1203.64 477.166ZM1203.2 309.814L1203.2 476.106L1206.2 476.106L1206.2 309.814L1203.2 309.814Z" fill="white"/>
<path d="M0.651672 654.82C0.0658722 655.406 0.0658722 656.355 0.651672 656.941L10.1976 666.487C10.7834 667.073 11.7331 667.073 12.3189 666.487C12.9047 665.901 12.9047 664.951 12.3189 664.366L3.83365 655.88L12.3189 647.395C12.9047 646.809 12.9047 645.86 12.3189 645.274C11.7331 644.688 10.7834 644.688 10.1976 645.274L0.651672 654.82ZM197.966 654.38L1.71233 654.38L1.71233 657.38L197.966 657.38L197.966 654.38Z" fill="white"/>
<path d="M1197.65 654.82C1197.06 655.406 1197.06 656.355 1197.65 656.941L1207.2 666.487C1207.78 667.073 1208.73 667.073 1209.32 666.487C1209.9 665.901 1209.9 664.951 1209.32 664.366L1200.83 655.88L1209.32 647.395C1209.9 646.809 1209.9 645.86 1209.32 645.274C1208.73 644.688 1207.78 644.688 1207.2 645.274L1197.65 654.82ZM1394.96 654.38L1198.71 654.38L1198.71 657.38L1394.96 657.38L1394.96 654.38Z" fill="white"/>
<path d="M423.894 667.839C424.707 667.998 425.495 667.468 425.654 666.655L428.246 653.406C428.405 652.593 427.875 651.805 427.062 651.646C426.249 651.487 425.461 652.017 425.302 652.83L422.998 664.607L411.221 662.303C410.408 662.144 409.62 662.674 409.461 663.487C409.302 664.3 409.832 665.088 410.645 665.247L423.894 667.839ZM312.077 502.411L422.938 667.204L425.427 665.53L314.566 500.736L312.077 502.411Z" fill="white"/>
<path d="M665.306 502.043C665.565 501.257 665.137 500.408 664.35 500.149L651.529 495.923C650.742 495.664 649.894 496.091 649.635 496.878C649.376 497.665 649.803 498.513 650.59 498.772L661.987 502.529L658.23 513.926C657.971 514.712 658.399 515.561 659.185 515.82C659.972 516.079 660.82 515.652 661.079 514.865L665.306 502.043ZM486.28 592.8L664.556 502.913L663.206 500.234L484.929 590.122L486.28 592.8Z" fill="white"/>
<path d="M687.881 650.944C688.051 651.755 688.846 652.275 689.657 652.105L702.87 649.338C703.681 649.168 704.2 648.373 704.031 647.562C703.861 646.751 703.066 646.231 702.255 646.401L690.51 648.861L688.05 637.116C687.88 636.305 687.085 635.786 686.274 635.955C685.463 636.125 684.944 636.92 685.114 637.731L687.881 650.944ZM788.468 496.259L688.094 649.816L690.605 651.458L790.979 497.9L788.468 496.259Z" fill="white"/>
<path d="M912.884 503.918C912.084 504.133 911.609 504.955 911.824 505.755L915.318 518.795C915.532 519.596 916.355 520.071 917.155 519.856C917.955 519.642 918.43 518.819 918.216 518.019L915.11 506.428L926.701 503.322C927.501 503.108 927.976 502.285 927.762 501.485C927.547 500.685 926.725 500.21 925.924 500.424L912.884 503.918ZM1105.87 614.833L914.023 504.068L912.523 506.666L1104.37 617.431L1105.87 614.833Z" fill="white"/>
<path d="M552.752 271.325C552.178 270.728 551.228 270.709 550.631 271.283L540.898 280.638C540.301 281.212 540.282 282.162 540.856 282.759C541.43 283.356 542.38 283.375 542.977 282.801L551.628 274.485L559.944 283.137C560.518 283.734 561.468 283.753 562.065 283.179C562.662 282.605 562.681 281.655 562.107 281.058L552.752 271.325ZM550.026 431.192L553.17 272.394L550.171 272.335L547.026 431.132L550.026 431.192Z" fill="white"/>
<path d="M874.055 721.36C874.641 721.946 875.591 721.946 876.176 721.36L885.722 711.814C886.308 711.228 886.308 710.278 885.722 709.693C885.137 709.107 884.187 709.107 883.601 709.693L875.116 718.178L866.63 709.693C866.045 709.107 865.095 709.107 864.509 709.693C863.923 710.278 863.923 711.228 864.509 711.814L874.055 721.36ZM873.616 570.487L873.616 720.299L876.616 720.299L876.616 570.487L873.616 570.487Z" fill="white"/>
<path d="M664.458 721.684C665.223 721.365 665.584 720.487 665.266 719.723L660.073 707.261C659.755 706.496 658.876 706.135 658.112 706.453C657.347 706.772 656.985 707.65 657.304 708.415L661.919 719.492L650.842 724.107C650.078 724.426 649.716 725.304 650.035 726.069C650.353 726.833 651.232 727.195 651.996 726.876L664.458 721.684ZM485.034 648.279L663.31 721.686L664.452 718.912L486.176 645.505L485.034 648.279Z" fill="white"/>
<path d="M270.937 590.4C270.351 589.814 269.401 589.814 268.815 590.4L259.269 599.946C258.684 600.532 258.684 601.482 259.269 602.067C259.855 602.653 260.805 602.653 261.391 602.067L269.876 593.582L278.361 602.067C278.947 602.653 279.897 602.653 280.483 602.067C281.068 601.482 281.068 600.532 280.483 599.946L270.937 590.4ZM271.376 735.28L271.376 591.461L268.376 591.461L268.376 735.28L271.376 735.28Z" fill="white"/>
</svg>
